SplineFontDB: 3.2
FontName: PenstrokeOldish
FullName: Penstroke Oldish
FamilyName: Penstroke Oldish
Weight: Regular
Copyright: (c) 2026, Daniel Stelzer
UComments: "2026-2-17: Created with FontForge (http://fontforge.org)"
Version: 1.2.0
ItalicAngle: 0
UnderlinePosition: -100
UnderlineWidth: 50
Ascent: 800
Descent: 200
InvalidEm: 0
LayerCount: 2
Layer: 0 0 "Back" 1
Layer: 1 0 "Fore" 0
XUID: [1021 7 780499623 6792674]
OS2Version: 0
OS2_WeightWidthSlopeOnly: 0
OS2_UseTypoMetrics: 1
CreationTime: 1771385651
ModificationTime: 1771385782
OS2TypoAscent: 0
OS2TypoAOffset: 1
OS2TypoDescent: 0
OS2TypoDOffset: 1
OS2TypoLinegap: 0
OS2WinAscent: 0
OS2WinAOffset: 1
OS2WinDescent: 0
OS2WinDOffset: 1
HheadAscent: 0
HheadAOffset: 1
HheadDescent: 0
HheadDOffset: 1
OS2Vendor: 'PfEd'
Lookup: 4 0 1 "ligatures" { "ligsubtable"  } ['liga' ('latn' <'dflt' > 'xsux' <'dflt' > ) ]
DEI: 91125
Encoding: ISO8859-1
UnicodeInterp: none
NameList: AGL For New Fonts
DisplaySize: -48
AntiAlias: 1
FitToEm: 0
BeginChars: 694 438

StartChar: U12038
Encoding: 256 73784 0
Width: 1212
VWidth: 100
Flags: W
HStem: 287.5 25<220.617 1112.5>
VStem: 100 25<133.332 375.83 406.597 466.668>
LayerCount: 2
Fore
SplineSet
100 466.66796875 m 1
 125 466.66796875 l 1
 125 381.376953125 193.876953125 312.5 279.16796875 312.5 c 2
 1112.5 312.5 l 1
 1112.5 287.5 l 1
 279.16796875 287.5 l 2
 213.541015625 287.5 156.209960938 323.064453125 125 375.830078125 c 1
 125 133.33203125 l 1
 100 133.33203125 l 1
 100 466.66796875 l 1
EndSplineSet
EndChar

StartChar: U12224
Encoding: 257 74276 1
Width: 1719
VWidth: 100
Flags: W
HStem: 287.5 25<220.777 266.668 387.282 582.324 617.68 938.33 969.097 1082.32 1125 1156.45 1181.71 1433.33 1458.33 1612.5> 787.5 25<945.832 1188.33 1219.1 1521.66 1552.43 1612.5>
VStem: 100 25<133.332 375.83 406.051 466.668> 266.668 25<133.332 289.073 313.045 375.83 406.597 466.668> 315.723 24.6808<593.98 697.534> 815.723 24.6808<593.98 697.534> 850 25<-200 191.883> 1100 25<330.18 691.883> 1134.37 24.6849<141.326 209.713> 1273.05 24.6724<49.0383 117.262> 1433.33 25<312.5 691.883>
LayerCount: 2
Fore
SplineSet
945.83203125 812.5 m 1
 1279.16796875 812.5 l 1
 1612.5 812.5 l 1
 1612.5 787.5 l 1
 1527.20898438 787.5 1458.33203125 718.623046875 1458.33203125 633.33203125 c 2
 1458.33203125 312.5 l 1
 1612.5 312.5 l 1
 1612.5 287.5 l 1
 1181.7109375 287.5 l 1
 1185.02148438 285.29296875 l 1
 1167.46284108 258.955575716 1159.05764402 229.241386876 1159.05764402 199.86584435 c 0
 1159.05764402 154.000672592 1179.54765335 108.961045565 1217.6796875 78.888671875 c 1
 1302.89648438 206.7109375 l 1
 1323.69726562 192.84375 l 1
 1323.69726562 192.841796875 l 1
 1306.13003349 166.493849349 1297.71904607 136.761481085 1297.71904607 107.368529332 c 0
 1297.71904607 57.5963953635 1321.83659136 8.79749945316 1366.453125 -20.947265625 c 2
 1619.43359375 -189.599609375 l 1
 1605.56640625 -210.400390625 l 1
 1352.5859375 -41.748046875 l 2
 1300.8760542 -7.27417478769 1273.04664324 49.6131487672 1273.04664324 107.535244334 c 0
 1273.04664324 110.775411834 1273.13372965 114.01881744 1273.30859375 117.26171875 c 1
 1138.79492188 -84.50390625 l 1
 1117.99414062 -70.63671875 l 1
 1203.75390625 57.998046875 l 1
 1158.56681377 92.8769029777 1134.37275525 145.978866764 1134.37275525 199.985280234 c 0
 1134.37275525 203.225807833 1134.45986154 206.469591739 1134.63476562 209.712890625 c 1
 1000.11914062 7.9453125 l 1
 979.318359375 21.8125 l 1
 1156.44726562 287.5 l 1
 1029.16796875 287.5 l 2
 943.876953125 287.5 875 218.623046875 875 133.33203125 c 2
 875 -200 l 1
 850 -200 l 1
 850 133.33203125 l 2
 850 198.958984375 885.564453125 256.290039062 938.330078125 287.5 c 1
 445.83203125 287.5 l 2
 380.205078125 287.5 322.876953125 323.065429688 291.66796875 375.830078125 c 1
 291.66796875 133.33203125 l 1
 266.66796875 133.33203125 l 1
 266.66796875 287.9375 l 1
 206.306640625 292.130859375 154.2109375 326.444335938 125 375.830078125 c 1
 125 133.33203125 l 1
 100 133.33203125 l 1
 100 466.66796875 l 1
 125 466.66796875 l 1
 125 385.58984375 187.252929688 319.391601562 266.66796875 313.044921875 c 1
 266.66796875 466.66796875 l 1
 291.66796875 466.66796875 l 1
 291.66796875 381.376953125 360.541015625 312.5 445.83203125 312.5 c 2
 582.32421875 312.5 l 1
 367.95703125 526.865234375 l 2
 333.079980748 561.742284877 315.723129439 607.511194357 315.723129439 653.3080849 c 0
 315.723129439 668.445740074 317.619469306 683.586452345 321.40625 698.337890625 c 1
 149.931640625 526.865234375 l 1
 132.255859375 544.541015625 l 1
 367.95703125 780.244140625 l 1
 367.958984375 780.24609375 l 1
 385.63671875 762.568359375 l 1
 355.48156738 732.411743143 340.403930657 692.981952461 340.403930657 653.552762696 c 0
 340.403930657 614.124530613 355.480834958 574.696899417 385.634765625 544.54296875 c 2
 617.6796875 312.5 l 1
 1082.32421875 312.5 l 1
 867.95703125 526.865234375 l 2
 833.079980748 561.742284877 815.723129439 607.511194357 815.723129439 653.3080849 c 0
 815.723129439 668.445740074 817.619469306 683.586452345 821.40625 698.337890625 c 1
 649.931640625 526.865234375 l 1
 632.255859375 544.541015625 l 1
 867.95703125 780.244140625 l 1
 867.958984375 780.24609375 l 1
 885.63671875 762.568359375 l 1
 855.48156738 732.411743143 840.403930657 692.981952461 840.403930657 653.552762696 c 0
 840.403930657 614.124530613 855.480834958 574.696899417 885.634765625 544.54296875 c 2
 1100 330.1796875 l 1
 1100 633.33203125 l 2
 1100 698.958984375 1135.56445312 756.290039062 1188.33007812 787.5 c 1
 945.83203125 787.5 l 1
 945.83203125 812.5 l 1
1279.16796875 787.5 m 2
 1193.87695312 787.5 1125 718.623046875 1125 633.33203125 c 2
 1125 312.5 l 1
 1433.33203125 312.5 l 1
 1433.33203125 633.33203125 l 2
 1433.33203125 698.958984375 1468.89746094 756.290039062 1521.66210938 787.5 c 1
 1279.16796875 787.5 l 2
EndSplineSet
EndChar

StartChar: U1202e
Encoding: 258 73774 2
Width: 1212
VWidth: 100
Flags: W
HStem: -45.832 25<220.777 266.668 387.282 933.332> 287.5 25<220.777 266.668 387.282 933.332> 620.832 25<779.168 934.905 958.877 1021.66 1052.43 1112.5> 787.5 25<779.168 1021.66 1051.88 1112.5>
VStem: 100 25<-200 42.4961 72.716 375.83 406.051 466.668> 266.668 25<-200 -44.2592 -20.2871 42.4941 73.2617 289.073 313.045 375.83 406.597 466.668> 933.332 25<-200 -45.832 -20.832 287.5 312.5 525.218 645.832 691.723>
LayerCount: 2
Fore
SplineSet
779.16796875 812.5 m 1
 1112.5 812.5 l 1
 1112.5 787.5 l 1
 1031.421875 787.5 965.223632812 725.247070312 958.876953125 645.83203125 c 1
 1112.5 645.83203125 l 1
 1112.5 620.83203125 l 1
 1027.20898438 620.83203125 958.33203125 551.958984375 958.33203125 466.66796875 c 2
 958.33203125 -200 l 1
 933.33203125 -200 l 1
 933.33203125 -45.83203125 l 1
 445.83203125 -45.83203125 l 2
 380.206054688 -45.83203125 322.876953125 -10.26953125 291.66796875 42.494140625 c 1
 291.66796875 -200 l 1
 266.66796875 -200 l 1
 266.66796875 -45.39453125 l 1
 206.306640625 -41.2021484375 154.2109375 -6.8896484375 125 42.49609375 c 1
 125 -200 l 1
 100 -200 l 1
 100 133.33203125 l 1
 100 466.66796875 l 1
 125 466.66796875 l 1
 125 385.58984375 187.252929688 319.391601562 266.66796875 313.044921875 c 1
 266.66796875 466.66796875 l 1
 291.66796875 466.66796875 l 1
 291.66796875 381.376953125 360.541015625 312.5 445.83203125 312.5 c 2
 933.33203125 312.5 l 1
 933.33203125 466.66796875 l 2
 933.33203125 532.294921875 968.897460938 589.623046875 1021.66210938 620.83203125 c 1
 779.16796875 620.83203125 l 1
 779.16796875 645.83203125 l 1
 933.76953125 645.83203125 l 1
 937.962890625 706.193359375 972.276367188 758.2890625 1021.66210938 787.5 c 1
 779.16796875 787.5 l 1
 779.16796875 812.5 l 1
125 375.830078125 m 1
 125 133.33203125 l 2
 125 52.25390625 187.252929688 -13.9404296875 266.66796875 -20.287109375 c 1
 266.66796875 133.33203125 l 1
 266.66796875 287.9375 l 1
 206.306640625 292.130859375 154.2109375 326.444335938 125 375.830078125 c 1
291.66796875 375.830078125 m 1
 291.66796875 133.33203125 l 2
 291.66796875 48.041015625 360.541015625 -20.83203125 445.83203125 -20.83203125 c 2
 933.33203125 -20.83203125 l 1
 933.33203125 287.5 l 1
 445.83203125 287.5 l 2
 380.205078125 287.5 322.876953125 323.065429688 291.66796875 375.830078125 c 1
EndSplineSet
EndChar

StartChar: U1202f
Encoding: 259 73775 3
Width: 2212
VWidth: 100
Flags: W
HStem: -45.832 25<220.777 266.668 387.282 933.332> 287.5 25<220.777 266.668 387.282 933.332 1220.78 1266.67 1387.28 1933.33> 620.832 25<779.168 934.905 958.877 1021.66 1052.43 1112.5> 787.5 25<779.168 1021.66 1051.88 1112.5 1779.17 2021.66 2052.43 2112.5>
VStem: 100 25<-200 42.4961 72.716 375.83 406.051 466.668> 266.668 25<-200 -44.2592 -20.2871 42.4941 73.2617 289.073 313.045 375.83 406.597 466.668> 933.332 25<-200 -45.832 -20.832 287.5 312.5 525.218 645.832 691.723> 1100 25<133.332 375.83 406.051 466.668> 1266.67 25<133.332 289.073 313.045 375.83 406.597 466.668> 1933.33 25<-200 287.5 312.5 691.883>
LayerCount: 2
Fore
SplineSet
779.16796875 812.5 m 1
 1112.5 812.5 l 1
 1112.5 787.5 l 1
 1031.421875 787.5 965.223632812 725.247070312 958.876953125 645.83203125 c 1
 1112.5 645.83203125 l 1
 1112.5 620.83203125 l 1
 1027.20898438 620.83203125 958.33203125 551.958984375 958.33203125 466.66796875 c 2
 958.33203125 -200 l 1
 933.33203125 -200 l 1
 933.33203125 -45.83203125 l 1
 445.83203125 -45.83203125 l 2
 380.206054688 -45.83203125 322.876953125 -10.26953125 291.66796875 42.494140625 c 1
 291.66796875 -200 l 1
 266.66796875 -200 l 1
 266.66796875 -45.39453125 l 1
 206.306640625 -41.2021484375 154.2109375 -6.8896484375 125 42.49609375 c 1
 125 -200 l 1
 100 -200 l 1
 100 133.33203125 l 1
 100 466.66796875 l 1
 125 466.66796875 l 1
 125 385.58984375 187.252929688 319.391601562 266.66796875 313.044921875 c 1
 266.66796875 466.66796875 l 1
 291.66796875 466.66796875 l 1
 291.66796875 381.376953125 360.541015625 312.5 445.83203125 312.5 c 2
 933.33203125 312.5 l 1
 933.33203125 466.66796875 l 2
 933.33203125 532.294921875 968.897460938 589.623046875 1021.66210938 620.83203125 c 1
 779.16796875 620.83203125 l 1
 779.16796875 645.83203125 l 1
 933.76953125 645.83203125 l 1
 937.962890625 706.193359375 972.276367188 758.2890625 1021.66210938 787.5 c 1
 779.16796875 787.5 l 1
 779.16796875 812.5 l 1
1779.16796875 812.5 m 1
 2112.5 812.5 l 1
 2112.5 787.5 l 1
 2027.20898438 787.5 1958.33203125 718.623046875 1958.33203125 633.33203125 c 2
 1958.33203125 -200 l 1
 1933.33203125 -200 l 1
 1933.33203125 287.5 l 1
 1445.83203125 287.5 l 2
 1380.20507812 287.5 1322.87695312 323.065429688 1291.66796875 375.830078125 c 1
 1291.66796875 133.33203125 l 1
 1266.66796875 133.33203125 l 1
 1266.66796875 287.9375 l 1
 1206.30664062 292.130859375 1154.2109375 326.444335938 1125 375.830078125 c 1
 1125 133.33203125 l 1
 1100 133.33203125 l 1
 1100 466.66796875 l 1
 1125 466.66796875 l 1
 1125 385.58984375 1187.25292969 319.391601562 1266.66796875 313.044921875 c 1
 1266.66796875 466.66796875 l 1
 1291.66796875 466.66796875 l 1
 1291.66796875 381.376953125 1360.54101562 312.5 1445.83203125 312.5 c 2
 1933.33203125 312.5 l 1
 1933.33203125 633.33203125 l 2
 1933.33203125 698.958984375 1968.89746094 756.290039062 2021.66210938 787.5 c 1
 1779.16796875 787.5 l 1
 1779.16796875 812.5 l 1
125 375.830078125 m 1
 125 133.33203125 l 2
 125 52.25390625 187.252929688 -13.9404296875 266.66796875 -20.287109375 c 1
 266.66796875 133.33203125 l 1
 266.66796875 287.9375 l 1
 206.306640625 292.130859375 154.2109375 326.444335938 125 375.830078125 c 1
291.66796875 375.830078125 m 1
 291.66796875 133.33203125 l 2
 291.66796875 48.041015625 360.541015625 -20.83203125 445.83203125 -20.83203125 c 2
 933.33203125 -20.83203125 l 1
 933.33203125 287.5 l 1
 445.83203125 287.5 l 2
 380.205078125 287.5 322.876953125 323.065429688 291.66796875 375.830078125 c 1
EndSplineSet
EndChar

StartChar: U12323
Encoding: 260 74531 4
Width: 1212
VWidth: 100
Flags: W
HStem: 120.832 25<220.777 266.668 387.282 933.332> 454.168 25<220.777 266.668 387.282 933.332> 787.5 25<779.168 1021.66 1052.43 1112.5>
VStem: 100 25<-33.332 209.162 239.383 542.496 572.716 633.332> 266.668 25<-33.332 122.405 146.377 209.162 239.929 455.741 479.713 542.494 573.262 633.332> 933.332 25<-200 120.832 145.832 454.168 479.168 691.883>
LayerCount: 2
Fore
SplineSet
779.16796875 812.5 m 1
 1112.5 812.5 l 1
 1112.5 787.5 l 1
 1027.20898438 787.5 958.33203125 718.623046875 958.33203125 633.33203125 c 2
 958.33203125 -200 l 1
 933.33203125 -200 l 1
 933.33203125 120.83203125 l 1
 445.83203125 120.83203125 l 2
 380.205078125 120.83203125 322.876953125 156.397460938 291.66796875 209.162109375 c 1
 291.66796875 -33.33203125 l 1
 266.66796875 -33.33203125 l 1
 266.66796875 121.26953125 l 1
 206.306640625 125.462890625 154.2109375 159.776367188 125 209.162109375 c 1
 125 -33.33203125 l 1
 100 -33.33203125 l 1
 100 300 l 1
 100 633.33203125 l 1
 125 633.33203125 l 1
 125 552.25390625 187.252929688 486.059570312 266.66796875 479.712890625 c 1
 266.66796875 633.33203125 l 1
 291.66796875 633.33203125 l 1
 291.66796875 548.041015625 360.541015625 479.16796875 445.83203125 479.16796875 c 2
 933.33203125 479.16796875 l 1
 933.33203125 633.33203125 l 2
 933.33203125 698.958984375 968.896484375 756.290039062 1021.66210938 787.5 c 1
 779.16796875 787.5 l 1
 779.16796875 812.5 l 1
582.828125 808.837890625 m 1
 600.505859375 791.162109375 l 1
 484.345703125 675 l 1
 600.505859375 558.837890625 l 1
 582.828125 541.162109375 l 1
 448.990234375 675 l 1
 582.828125 808.837890625 l 1
125 542.49609375 m 1
 125 300 l 2
 125 218.921875 187.252929688 152.723632812 266.66796875 146.376953125 c 1
 266.66796875 300 l 1
 266.66796875 454.60546875 l 1
 206.306640625 458.797851562 154.2109375 493.110351562 125 542.49609375 c 1
291.66796875 542.494140625 m 1
 291.66796875 300 l 2
 291.66796875 214.708984375 360.541015625 145.83203125 445.83203125 145.83203125 c 2
 933.33203125 145.83203125 l 1
 933.33203125 454.16796875 l 1
 445.83203125 454.16796875 l 2
 380.206054688 454.16796875 322.876953125 489.73046875 291.66796875 542.494140625 c 1
582.828125 58.837890625 m 1
 600.505859375 41.162109375 l 1
 484.345703125 -75 l 1
 600.505859375 -191.162109375 l 1
 582.828125 -208.837890625 l 1
 448.990234375 -75 l 1
 582.828125 58.837890625 l 1
EndSplineSet
EndChar

StartChar: U12253
Encoding: 261 74323 5
Width: 1712
VWidth: 100
Flags: W
HStem: -45.832 25<887.282 1433.33> 120.875 25<220.592 766.668> 287.5 25<1109.66 1155.55 1276.17 1433.33> 454.125 25<220.592 766.668> 620.832 25<887.282 1433.33> 787.5 25<1279.17 1521.66 1552.43 1612.5>
VStem: 100 25<-33.25 209.174 239.946 542.424 573.196 633.25> 766.668 25<-200 42.4941 73.2617 120.875 479.125 709.162 739.929 800> 988.891 25<133.332 375.83 406.051 466.668> 1155.55 25<133.332 289.073 313.045 375.83 406.597 466.668> 1433.33 25<-200 -45.832 -20.832 287.5 312.5 620.832 645.832 691.909>
LayerCount: 2
Fore
SplineSet
1279.16796875 812.5 m 1
 1612.5 812.5 l 1
 1612.5 787.5 l 1
 1527.20898438 787.5 1458.33203125 718.623046875 1458.33203125 633.33203125 c 2
 1458.33203125 -200 l 1
 1433.33203125 -200 l 1
 1433.33203125 -45.83203125 l 1
 945.83203125 -45.83203125 l 2
 880.206054688 -45.83203125 822.876953125 -10.26953125 791.66796875 42.494140625 c 1
 791.66796875 -200 l 1
 766.66796875 -200 l 1
 766.66796875 120.875 l 1
 279.125 120.875 l 2
 213.518554688 120.875 156.204101562 156.427734375 125 209.173828125 c 1
 125 -33.25 l 1
 100 -33.25 l 1
 100 300 l 1
 100 633.25 l 1
 125 633.25 l 1
 125 547.982421875 193.857421875 479.125 279.125 479.125 c 2
 766.66796875 479.125 l 1
 766.66796875 800 l 1
 791.66796875 800 l 1
 791.66796875 714.708984375 860.541015625 645.83203125 945.83203125 645.83203125 c 2
 1433.76953125 645.83203125 l 1
 1437.96289062 706.193359375 1472.27636719 758.2890625 1521.66210938 787.5 c 1
 1279.16796875 787.5 l 1
 1279.16796875 812.5 l 1
791.66796875 709.162109375 m 1
 791.66796875 466.66796875 l 1
 779.16796875 466.66796875 l 1
 779.16796875 454.125 l 1
 279.125 454.125 l 2
 213.517578125 454.125 156.204101562 489.676757812 125 542.423828125 c 1
 125 300 l 2
 125 214.732421875 193.857421875 145.875 279.125 145.875 c 2
 779.16796875 145.875 l 1
 779.16796875 133.33203125 l 1
 791.66796875 133.33203125 l 1
 791.66796875 48.041015625 860.541015625 -20.83203125 945.83203125 -20.83203125 c 2
 1433.33203125 -20.83203125 l 1
 1433.33203125 287.5 l 1
 1334.72265625 287.5 l 2
 1269.09570312 287.5 1211.76464844 323.064453125 1180.5546875 375.830078125 c 1
 1180.5546875 133.33203125 l 1
 1155.5546875 133.33203125 l 1
 1155.5546875 287.9375 l 1
 1095.19335938 292.130859375 1043.10058594 326.444335938 1013.890625 375.830078125 c 1
 1013.890625 133.33203125 l 1
 988.890625 133.33203125 l 1
 988.890625 466.66796875 l 1
 1013.890625 466.66796875 l 1
 1013.890625 385.58984375 1076.140625 319.391601562 1155.5546875 313.044921875 c 1
 1155.5546875 466.66796875 l 1
 1180.5546875 466.66796875 l 1
 1180.5546875 381.376953125 1249.43164062 312.5 1334.72265625 312.5 c 2
 1433.33203125 312.5 l 1
 1433.33203125 620.83203125 l 1
 945.83203125 620.83203125 l 2
 880.205078125 620.83203125 822.876953125 656.397460938 791.66796875 709.162109375 c 1
EndSplineSet
EndChar

StartChar: U12259
Encoding: 262 74329 6
Width: 1712
VWidth: 100
Flags: W
HStem: -45.832 25<803.949 1433.33> 120.875 25<220.592 683.332> 287.5 25<901.829 1058.33 1083.33 1241.67 1266.67 1345.83> 454.125 25<220.592 683.332> 520.832 25<795.832 911.686 936.431 1095.02 1119.76 1278.35 1303.1 1345.83> 620.832 25<803.949 1433.33> 787.5 25<1279.17 1521.66 1552.43 1612.5>
VStem: 100 25<-33.25 209.174 239.946 542.424 573.196 633.25> 683.332 25<-200 42.4961 73.2617 120.875 479.125 709.162 739.929 800> 783.332 25<133.332 375.83 406.316 466.668> 875 25<66.668 298.807 339.67 483.409> 1058.33 25<66.668 287.5 312.5 483.409> 1241.67 25<66.668 287.5 312.5 483.409> 1433.33 25<-200 -45.832 -20.832 620.832 645.832 691.909>
LayerCount: 2
Fore
SplineSet
1279.16796875 812.5 m 1
 1612.5 812.5 l 1
 1612.5 787.5 l 1
 1527.20898438 787.5 1458.33203125 718.623046875 1458.33203125 633.33203125 c 2
 1458.33203125 -200 l 1
 1433.33203125 -200 l 1
 1433.33203125 -45.83203125 l 1
 862.5 -45.83203125 l 2
 796.873046875 -45.83203125 739.541992188 -10.2685546875 708.33203125 42.49609375 c 1
 708.33203125 -200 l 1
 683.33203125 -200 l 1
 683.33203125 120.875 l 1
 279.125 120.875 l 2
 213.518554688 120.875 156.204101562 156.427734375 125 209.173828125 c 1
 125 -33.25 l 1
 100 -33.25 l 1
 100 300 l 1
 100 633.25 l 1
 125 633.25 l 1
 125 547.982421875 193.857421875 479.125 279.125 479.125 c 2
 683.33203125 479.125 l 1
 683.33203125 800 l 1
 708.33203125 800 l 1
 708.33203125 714.708984375 777.208984375 645.83203125 862.5 645.83203125 c 2
 1433.76953125 645.83203125 l 1
 1437.96289062 706.193359375 1472.27636719 758.2890625 1521.66210938 787.5 c 1
 1279.16796875 787.5 l 1
 1279.16796875 812.5 l 1
708.33203125 709.162109375 m 1
 708.33203125 466.66796875 l 1
 695.83203125 466.66796875 l 1
 695.83203125 454.125 l 1
 279.125 454.125 l 2
 213.517578125 454.125 156.204101562 489.676757812 125 542.423828125 c 1
 125 300 l 2
 125 214.732421875 193.857421875 145.875 279.125 145.875 c 2
 695.83203125 145.875 l 1
 695.83203125 133.33203125 l 1
 708.33203125 133.33203125 l 1
 708.33203125 48.041015625 777.208007812 -20.83203125 862.5 -20.83203125 c 2
 1433.33203125 -20.83203125 l 1
 1433.33203125 620.83203125 l 1
 862.5 620.83203125 l 2
 796.873046875 620.83203125 739.541992188 656.396484375 708.33203125 709.162109375 c 1
795.83203125 545.83203125 m 1
 979.16796875 545.83203125 l 1
 1162.5 545.83203125 l 1
 1345.83203125 545.83203125 l 1
 1345.83203125 520.83203125 l 1
 1301.96289062 520.83203125 1266.66796875 485.537109375 1266.66796875 441.66796875 c 2
 1266.66796875 312.5 l 1
 1345.83203125 312.5 l 1
 1345.83203125 287.5 l 1
 1266.66796875 287.5 l 1
 1266.66796875 66.66796875 l 1
 1241.66796875 66.66796875 l 1
 1241.66796875 287.5 l 1
 1083.33203125 287.5 l 1
 1083.33203125 66.66796875 l 1
 1058.33203125 66.66796875 l 1
 1058.33203125 287.5 l 1
 962.5 287.5 l 2
 940.508789062 287.5 919.45703125 291.510742188 900 298.806640625 c 1
 900 66.66796875 l 1
 875 66.66796875 l 1
 875 310.525390625 l 1
 847.477539062 326.068359375 824.41796875 348.634765625 808.33203125 375.830078125 c 1
 808.33203125 133.33203125 l 1
 783.33203125 133.33203125 l 1
 783.33203125 466.66796875 l 1
 808.33203125 466.66796875 l 1
 808.33203125 413.907226562 834.705078125 367.450195312 875 339.669921875 c 1
 875 441.66796875 l 2
 875 473.323242188 889.284179688 501.703125 911.685546875 520.83203125 c 1
 795.83203125 520.83203125 l 1
 795.83203125 545.83203125 l 1
979.16796875 520.83203125 m 2
 935.293945312 520.83203125 900 485.537109375 900 441.66796875 c 2
 900 325.69140625 l 1
 919.098632812 317.233398438 940.229492188 312.5 962.5 312.5 c 2
 1058.33203125 312.5 l 1
 1058.33203125 441.66796875 l 2
 1058.33203125 473.323242188 1072.61621094 501.703125 1095.01757812 520.83203125 c 1
 979.16796875 520.83203125 l 2
1162.5 520.83203125 m 2
 1118.63085938 520.83203125 1083.33203125 485.537109375 1083.33203125 441.66796875 c 2
 1083.33203125 312.5 l 1
 1241.66796875 312.5 l 1
 1241.66796875 441.66796875 l 2
 1241.66796875 473.323242188 1255.95117188 501.703125 1278.3515625 520.83203125 c 1
 1162.5 520.83203125 l 2
EndSplineSet
EndChar

StartChar: U1201c
Encoding: 263 73756 7
Width: 1712
VWidth: 100
Flags: W
HStem: -87.5 25<852.887 1433.33> 37.5 25<220.617 766.668> 162.5 25<1075.11 1433.33> 412.5 25<1075.11 1433.33> 537.5 25<220.617 766.668> 662.5 25<852.887 1435.73> 787.5 25<1279.17 1521.66 1552.43 1612.5>
VStem: 100 25<-116.668 125.83 156.597 216.668 383.332 625.83 656.597 716.668> 766.668 25<-200 -28.7891 -1.28064 37.5 562.5 721.211 748.719 800> 988.891 25<50 221.211 248.719 471.211 498.719 550> 1433.33 25<-200 -87.5 -62.5 162.5 187.5 412.5 437.5 662.055>
LayerCount: 2
Fore
SplineSet
1279.16796875 812.5 m 1
 1612.5 812.5 l 1
 1612.5 787.5 l 1
 1527.20898438 787.5 1458.33203125 718.623046875 1458.33203125 633.33203125 c 2
 1458.33203125 -200 l 1
 1433.33203125 -200 l 1
 1433.33203125 -87.5 l 1
 904.16796875 -87.5 l 2
 857.68359375 -87.5 816.569335938 -64.2275390625 791.66796875 -28.7890625 c 1
 791.66796875 -200 l 1
 766.66796875 -200 l 1
 766.66796875 37.5 l 1
 279.16796875 37.5 l 2
 213.541015625 37.5 156.209960938 73.064453125 125 125.830078125 c 1
 125 -116.66796875 l 1
 100 -116.66796875 l 1
 100 216.66796875 l 1
 125 216.66796875 l 1
 125 131.376953125 193.876953125 62.5 279.16796875 62.5 c 2
 779.16796875 62.5 l 1
 779.16796875 50 l 1
 791.66796875 50 l 1
 791.66796875 -12.279296875 841.888671875 -62.5 904.16796875 -62.5 c 2
 1433.33203125 -62.5 l 1
 1433.33203125 162.5 l 1
 1126.390625 162.5 l 2
 1079.90332031 162.5 1038.79199219 185.772460938 1013.890625 221.2109375 c 1
 1013.890625 50 l 1
 988.890625 50 l 1
 988.890625 300 l 1
 988.890625 550 l 1
 1013.890625 550 l 1
 1013.890625 487.720703125 1064.10644531 437.5 1126.390625 437.5 c 2
 1433.33203125 437.5 l 1
 1433.33203125 633.33203125 l 2
 1433.33203125 643.266601562 1434.16015625 653.0078125 1435.7265625 662.5 c 1
 904.16796875 662.5 l 2
 857.68359375 662.5 816.569335938 685.772460938 791.66796875 721.2109375 c 1
 791.66796875 550 l 1
 779.16796875 550 l 1
 779.16796875 537.5 l 1
 279.16796875 537.5 l 2
 213.541015625 537.5 156.209960938 573.064453125 125 625.830078125 c 1
 125 383.33203125 l 1
 100 383.33203125 l 1
 100 716.66796875 l 1
 125 716.66796875 l 1
 125 631.376953125 193.876953125 562.5 279.16796875 562.5 c 2
 766.66796875 562.5 l 1
 766.66796875 800 l 1
 791.66796875 800 l 1
 791.66796875 737.720703125 841.888671875 687.5 904.16796875 687.5 c 2
 1441.74609375 687.5 l 1
 1455.2421875 729.788085938 1484.08203125 765.271484375 1521.66210938 787.5 c 1
 1279.16796875 787.5 l 1
 1279.16796875 812.5 l 1
1013.890625 471.2109375 m 1
 1013.890625 300 l 2
 1013.890625 237.720703125 1064.10644531 187.5 1126.390625 187.5 c 2
 1433.33203125 187.5 l 1
 1433.33203125 412.5 l 1
 1126.390625 412.5 l 2
 1079.90332031 412.5 1038.79199219 435.772460938 1013.890625 471.2109375 c 1
EndSplineSet
EndChar

StartChar: U120a1
Encoding: 264 73889 8
Width: 2212
VWidth: 100
Flags: W
HStem: -87.5 25<797.329 1322.22> 120.875 25<220.592 711.109 1442.81 1933.33> 162.5 25<797.329 1322.22> 412.5 25<797.329 1322.22> 454.125 25<220.592 711.109 1442.81 1933.33> 662.5 25<797.329 1324.62> 787.5 25<1168.05 1410.55 1441.32 1501.39 1779.17 2021.66 2052.43 2112.5>
VStem: 100 25<-33.25 209.174 239.946 542.424 573.196 633.25> 711.109 25<-200 -28.7891 -1.28064 120.875 145.875 221.211 248.719 454.125 498.719 721.211 748.719 800> 1322.22 25<-200 -87.5 -62.5 162.5 187.5 209.174 239.946 412.5 437.5 542.424 573.196 662.055> 1933.33 25<-200 120.875 145.875 454.125 479.125 691.883>
LayerCount: 2
Fore
SplineSet
1168.0546875 812.5 m 1
 1501.390625 812.5 l 1
 1501.390625 787.5 l 1
 1416.09472656 787.5 1347.22265625 718.623046875 1347.22265625 633.33203125 c 2
 1347.22265625 633.25 l 2
 1347.22265625 547.982421875 1416.08007812 479.125 1501.34765625 479.125 c 2
 1933.33203125 479.125 l 1
 1933.33203125 633.33203125 l 2
 1933.33203125 698.958984375 1968.89746094 756.290039062 2021.66210938 787.5 c 1
 1779.16796875 787.5 l 1
 1779.16796875 812.5 l 1
 2112.5 812.5 l 1
 2112.5 787.5 l 1
 2027.20898438 787.5 1958.33203125 718.623046875 1958.33203125 633.33203125 c 2
 1958.33203125 -200 l 1
 1933.33203125 -200 l 1
 1933.33203125 120.875 l 1
 1501.34765625 120.875 l 2
 1435.74121094 120.875 1378.42675781 156.427734375 1347.22265625 209.173828125 c 1
 1347.22265625 -200 l 1
 1322.22265625 -200 l 1
 1322.22265625 -87.5 l 1
 848.609375 -87.5 l 2
 802.125 -87.5 761.010742188 -64.2275390625 736.109375 -28.7890625 c 1
 736.109375 -200 l 1
 711.109375 -200 l 1
 711.109375 50 l 1
 711.109375 120.875 l 1
 279.125 120.875 l 2
 213.518554688 120.875 156.204101562 156.427734375 125 209.173828125 c 1
 125 -33.25 l 1
 100 -33.25 l 1
 100 300 l 1
 100 633.25 l 1
 125 633.25 l 1
 125 547.982421875 193.857421875 479.125 279.125 479.125 c 2
 711.109375 479.125 l 1
 711.109375 550 l 1
 711.109375 800 l 1
 736.109375 800 l 1
 736.109375 737.720703125 786.330078125 687.5 848.609375 687.5 c 2
 1330.63671875 687.5 l 1
 1344.13183594 729.788085938 1372.97070312 765.271484375 1410.55078125 787.5 c 1
 1168.0546875 787.5 l 1
 1168.0546875 812.5 l 1
736.109375 721.2109375 m 1
 736.109375 550 l 2
 736.109375 487.720703125 786.330078125 437.5 848.609375 437.5 c 2
 1322.22265625 437.5 l 1
 1322.22265625 633.33203125 l 2
 1322.22265625 643.266601562 1323.05078125 653.0078125 1324.6171875 662.5 c 1
 848.609375 662.5 l 2
 802.125 662.5 761.010742188 685.772460938 736.109375 721.2109375 c 1
125 542.423828125 m 1
 125 300 l 2
 125 214.732421875 193.857421875 145.875 279.125 145.875 c 2
 711.109375 145.875 l 1
 711.109375 300 l 1
 711.109375 454.125 l 1
 279.125 454.125 l 2
 213.517578125 454.125 156.204101562 489.676757812 125 542.423828125 c 1
1347.22265625 542.423828125 m 1
 1347.22265625 300 l 2
 1347.22265625 214.732421875 1416.08007812 145.875 1501.34765625 145.875 c 2
 1933.33203125 145.875 l 1
 1933.33203125 454.125 l 1
 1501.34765625 454.125 l 2
 1435.74121094 454.125 1378.42675781 489.676757812 1347.22265625 542.423828125 c 1
736.109375 471.2109375 m 1
 736.109375 300 l 2
 736.109375 237.720703125 786.330078125 187.5 848.609375 187.5 c 2
 1322.22265625 187.5 l 1
 1322.22265625 412.5 l 1
 848.609375 412.5 l 2
 802.125 412.5 761.010742188 435.772460938 736.109375 471.2109375 c 1
736.109375 221.2109375 m 1
 736.109375 50 l 2
 736.109375 -12.279296875 786.330078125 -62.5 848.609375 -62.5 c 2
 1322.22265625 -62.5 l 1
 1322.22265625 -33.25390625 l 1
 1322.22265625 162.5 l 1
 848.609375 162.5 l 2
 802.125 162.5 761.010742188 185.772460938 736.109375 221.2109375 c 1
EndSplineSet
EndChar

StartChar: Ue00f
Encoding: 265 57359 9
Width: 2212
VWidth: 100
Flags: W
HStem: -87.5 25<797.329 1322.22> -45.832 25<1442.84 1933.33> 37.5 25<220.617 711.109> 162.5 25<1001.03 1322.22> 412.5 25<1001.03 1322.22> 537.5 25<220.617 711.109> 620.832 25<1441.73 1933.33> 662.5 25<797.329 1322.22> 787.5 25<1168.05 1322.22 1347.77 1410.55 1441.36 1501.39 1779.17 2021.66 2052.43 2112.5>
VStem: 100 25<-116.668 125.83 156.597 216.668 383.332 625.83 656.597 716.668> 711.109 25<-200 -28.7891 -1.28064 37.5 562.5 721.211 748.719 800> 914.816 25<50 221.211 248.719 471.211 498.719 550> 1322.22 25<-200 -87.5 -62.5 42.4941 73.2617 162.5 187.5 412.5 437.5 661.863 742.057 787.5> 1933.33 25<-200 -45.832 -20.832 620.832 645.832 691.909>
LayerCount: 2
Fore
SplineSet
1168.0546875 812.5 m 1
 1501.390625 812.5 l 1
 1501.390625 787.5 l 1
 1446.83300781 787.5 1399.03027344 759.295898438 1371.63671875 716.666015625 c 1
 1399.03027344 674.036132812 1446.83398438 645.83203125 1501.390625 645.83203125 c 2
 1933.76953125 645.83203125 l 1
 1937.96289062 706.193359375 1972.27636719 758.2890625 2021.66210938 787.5 c 1
 1779.16796875 787.5 l 1
 1779.16796875 812.5 l 1
 2112.5 812.5 l 1
 2112.5 787.5 l 1
 2027.20898438 787.5 1958.33203125 718.623046875 1958.33203125 633.33203125 c 2
 1958.33203125 -200 l 1
 1933.33203125 -200 l 1
 1933.33203125 -45.83203125 l 1
 1501.390625 -45.83203125 l 2
 1435.76171875 -45.83203125 1378.43164062 -10.26953125 1347.22265625 42.494140625 c 1
 1347.22265625 -200 l 1
 1322.22265625 -200 l 1
 1322.22265625 -87.5 l 1
 848.609375 -87.5 l 2
 802.125 -87.5 761.010742188 -64.2275390625 736.109375 -28.7890625 c 1
 736.109375 -200 l 1
 711.109375 -200 l 1
 711.109375 37.5 l 1
 279.16796875 37.5 l 2
 213.541015625 37.5 156.209960938 73.064453125 125 125.830078125 c 1
 125 -116.66796875 l 1
 100 -116.66796875 l 1
 100 216.66796875 l 1
 125 216.66796875 l 1
 125 131.376953125 193.876953125 62.5 279.16796875 62.5 c 2
 723.609375 62.5 l 1
 723.609375 50 l 1
 736.109375 50 l 1
 736.109375 -12.279296875 786.330078125 -62.5 848.609375 -62.5 c 2
 1322.22265625 -62.5 l 1
 1322.22265625 162.5 l 1
 1052.31640625 162.5 l 2
 1005.82910156 162.5 964.717773438 185.772460938 939.81640625 221.2109375 c 1
 939.81640625 50 l 1
 914.81640625 50 l 1
 914.81640625 300 l 1
 914.81640625 550 l 1
 939.81640625 550 l 1
 939.81640625 487.720703125 990.032226562 437.5 1052.31640625 437.5 c 2
 1322.22265625 437.5 l 1
 1322.22265625 466.66796875 l 1
 1322.22265625 662.5 l 1
 848.609375 662.5 l 2
 802.125 662.5 761.010742188 685.772460938 736.109375 721.2109375 c 1
 736.109375 550 l 1
 723.609375 550 l 1
 723.609375 537.5 l 1
 279.16796875 537.5 l 2
 213.541015625 537.5 156.209960938 573.064453125 125 625.830078125 c 1
 125 383.33203125 l 1
 100 383.33203125 l 1
 100 716.66796875 l 1
 125 716.66796875 l 1
 125 631.376953125 193.876953125 562.5 279.16796875 562.5 c 2
 711.109375 562.5 l 1
 711.109375 800 l 1
 736.109375 800 l 1
 736.109375 737.720703125 786.330078125 687.5 848.609375 687.5 c 2
 1322.22265625 687.5 l 1
 1322.22265625 787.5 l 1
 1168.0546875 787.5 l 1
 1168.0546875 812.5 l 1
1347.76953125 787.5 m 1
 1349.06542969 771.282226562 1352.83789062 755.782226562 1358.74609375 741.380859375 c 1
 1372.84472656 759.884765625 1390.43457031 775.6015625 1410.55078125 787.5 c 1
 1347.76953125 787.5 l 1
1358.78320312 692.046875 m 1
 1351.34667969 673.955078125 1347.22265625 654.138671875 1347.22265625 633.33203125 c 2
 1347.22265625 133.33203125 l 2
 1347.22265625 48.041015625 1416.09570312 -20.83203125 1501.390625 -20.83203125 c 2
 1933.33203125 -20.83203125 l 1
 1933.33203125 620.83203125 l 1
 1501.390625 620.83203125 l 2
 1443.15429688 620.83203125 1391.49804688 648.87109375 1358.78320312 692.046875 c 1
1541.16210938 558.837890625 m 1
 1558.83789062 541.162109375 l 1
 1442.67578125 425 l 1
 1558.83789062 308.837890625 l 1
 1550 300 l 1
 1558.83789062 291.162109375 l 1
 1442.67578125 175 l 1
 1558.83789062 58.837890625 l 1
 1541.16210938 41.162109375 l 1
 1407.32226562 175 l 1
 1532.32421875 300 l 1
 1407.32226562 425 l 1
 1541.16210938 558.837890625 l 1
1846.71484375 558.837890625 m 1
 1864.39257812 541.162109375 l 1
 1748.23242188 425 l 1
 1864.39257812 308.837890625 l 1
 1855.5546875 300 l 1
 1864.39257812 291.162109375 l 1
 1748.23242188 175 l 1
 1864.39257812 58.837890625 l 1
 1846.71484375 41.162109375 l 1
 1712.87695312 175 l 1
 1837.87695312 300 l 1
 1712.87695312 425 l 1
 1846.71484375 558.837890625 l 1
939.81640625 471.2109375 m 1
 939.81640625 300 l 2
 939.81640625 237.720703125 990.032226562 187.5 1052.31640625 187.5 c 2
 1322.22265625 187.5 l 1
 1322.22265625 412.5 l 1
 1052.31640625 412.5 l 2
 1005.82910156 412.5 964.717773438 435.772460938 939.81640625 471.2109375 c 1
EndSplineSet
EndChar

StartChar: U12362
Encoding: 266 74594 10
Width: 1712
VWidth: 100
Flags: W
HStem: -45.832 25<887.282 1433.33> 37.5 25<220.617 766.668> 170.832 25<948.345 1100 1125 1345.83> 404.168 25<948.345 1103.98 1138.19 1345.83> 520.832 25<945.832 1188.33 1218.22 1279.17> 537.5 25<220.617 766.668> 620.832 25<887.282 1433.33> 787.5 25<1279.17 1521.66 1552.43 1612.5>
VStem: 100 25<-116.668 125.83 156.597 216.668 383.332 625.83 656.597 716.668> 766.668 25<-200 37.5 73.2617 133.332 466.668 537.5 562.5 709.162 739.929 800> 866.668 25<66.668 223.967 252.512 457.303 485.845 533.332> 1100 25<66.668 170.832 195.832 404.168> 1433.33 25<-200 -45.832 -20.832 620.832 645.832 691.909>
LayerCount: 2
Fore
SplineSet
1279.16796875 812.5 m 1xf7f8
 1612.5 812.5 l 1
 1612.5 787.5 l 1
 1527.20898438 787.5 1458.33203125 718.623046875 1458.33203125 633.33203125 c 2
 1458.33203125 -200 l 1
 1433.33203125 -200 l 1
 1433.33203125 -45.83203125 l 1
 945.83203125 -45.83203125 l 2
 880.206054688 -45.83203125 822.876953125 -10.26953125 791.66796875 42.494140625 c 1
 791.66796875 -200 l 1
 766.66796875 -200 l 1
 766.66796875 37.5 l 1
 279.16796875 37.5 l 2
 213.541015625 37.5 156.209960938 73.064453125 125 125.830078125 c 1
 125 -116.66796875 l 1
 100 -116.66796875 l 1
 100 216.66796875 l 1
 125 216.66796875 l 1
 125 131.376953125 193.876953125 62.5 279.16796875 62.5 c 2
 766.66796875 62.5 l 1
 766.66796875 133.33203125 l 1
 791.66796875 133.33203125 l 1
 791.66796875 48.041015625 860.541015625 -20.83203125 945.83203125 -20.83203125 c 2
 1433.33203125 -20.83203125 l 1
 1433.33203125 620.83203125 l 1
 945.83203125 620.83203125 l 2
 880.205078125 620.83203125 822.876953125 656.397460938 791.66796875 709.162109375 c 1
 791.66796875 466.66796875 l 1
 766.66796875 466.66796875 l 1
 766.66796875 537.5 l 1
 279.16796875 537.5 l 2
 213.541015625 537.5 156.209960938 573.064453125 125 625.830078125 c 1
 125 383.33203125 l 1
 100 383.33203125 l 1
 100 716.66796875 l 1
 125 716.66796875 l 1
 125 631.376953125 193.876953125 562.5 279.16796875 562.5 c 2
 766.66796875 562.5 l 1
 766.66796875 800 l 1
 791.66796875 800 l 1
 791.66796875 714.708984375 860.541015625 645.83203125 945.83203125 645.83203125 c 2
 1433.76953125 645.83203125 l 1
 1437.96289062 706.193359375 1472.27636719 758.2890625 1521.66210938 787.5 c 1
 1279.16796875 787.5 l 1
 1279.16796875 812.5 l 1xf7f8
945.83203125 545.83203125 m 1xfbf8
 1279.16796875 545.83203125 l 1
 1279.16796875 520.83203125 l 1
 1216.14746094 520.83203125 1162.12597656 483.209960938 1138.19140625 429.16796875 c 1
 1345.83203125 429.16796875 l 1
 1345.83203125 404.16796875 l 1
 1129.59570312 404.16796875 l 1
 1126.60742188 392.165039062 1125 379.609375 1125 366.66796875 c 2
 1125 195.83203125 l 1
 1345.83203125 195.83203125 l 1
 1345.83203125 170.83203125 l 1
 1125 170.83203125 l 1
 1125 66.66796875 l 1
 1100 66.66796875 l 1
 1100 170.83203125 l 1
 995.83203125 170.83203125 l 2
 953.07421875 170.83203125 915.193359375 191.834960938 891.66796875 223.966796875 c 1
 891.66796875 66.66796875 l 1
 866.66796875 66.66796875 l 1
 866.66796875 300 l 1
 866.66796875 533.33203125 l 1
 891.66796875 533.33203125 l 1
 891.66796875 475.653320312 938.154296875 429.16796875 995.83203125 429.16796875 c 2
 1111.30664062 429.16796875 l 1
 1125.78417969 467.774414062 1153.24609375 500.081054688 1188.33007812 520.83203125 c 1
 945.83203125 520.83203125 l 1
 945.83203125 545.83203125 l 1xfbf8
891.66796875 457.302734375 m 1
 891.66796875 300 l 2
 891.66796875 242.322265625 938.154296875 195.83203125 995.83203125 195.83203125 c 2
 1100 195.83203125 l 1
 1100 366.66796875 l 2
 1100 379.534179688 1101.38671875 392.07421875 1103.98242188 404.16796875 c 1
 995.83203125 404.16796875 l 2
 953.073242188 404.16796875 915.193359375 425.170898438 891.66796875 457.302734375 c 1
EndSplineSet
EndChar

StartChar: U1234f
Encoding: 267 74575 11
Width: 1712
VWidth: 100
Flags: W
HStem: -45.832 25<887.282 1433.33> 37.5 25<220.617 766.668> 537.5 25<220.617 766.668> 620.832 25<887.282 1433.33> 787.5 25<1279.17 1521.66 1552.43 1612.5>
VStem: 100 25<-116.668 125.83 156.597 216.668 383.332 625.83 656.597 716.668> 766.668 25<-200 37.5 73.2617 133.332 466.668 537.5 562.5 709.162 739.929 800> 1433.33 25<-200 -45.832 -20.832 620.832 645.832 691.909>
LayerCount: 2
Fore
SplineSet
1279.16796875 812.5 m 1
 1612.5 812.5 l 1
 1612.5 787.5 l 1
 1527.20898438 787.5 1458.33203125 718.623046875 1458.33203125 633.33203125 c 2
 1458.33203125 -200 l 1
 1433.33203125 -200 l 1
 1433.33203125 -45.83203125 l 1
 945.83203125 -45.83203125 l 2
 880.206054688 -45.83203125 822.876953125 -10.26953125 791.66796875 42.494140625 c 1
 791.66796875 -200 l 1
 766.66796875 -200 l 1
 766.66796875 37.5 l 1
 279.16796875 37.5 l 2
 213.541015625 37.5 156.209960938 73.064453125 125 125.830078125 c 1
 125 -116.66796875 l 1
 100 -116.66796875 l 1
 100 216.66796875 l 1
 125 216.66796875 l 1
 125 131.376953125 193.876953125 62.5 279.16796875 62.5 c 2
 766.66796875 62.5 l 1
 766.66796875 133.33203125 l 1
 791.66796875 133.33203125 l 1
 791.66796875 48.041015625 860.541015625 -20.83203125 945.83203125 -20.83203125 c 2
 1433.33203125 -20.83203125 l 1
 1433.33203125 620.83203125 l 1
 945.83203125 620.83203125 l 2
 880.205078125 620.83203125 822.876953125 656.397460938 791.66796875 709.162109375 c 1
 791.66796875 466.66796875 l 1
 766.66796875 466.66796875 l 1
 766.66796875 537.5 l 1
 279.16796875 537.5 l 2
 213.541015625 537.5 156.209960938 573.064453125 125 625.830078125 c 1
 125 383.33203125 l 1
 100 383.33203125 l 1
 100 716.66796875 l 1
 125 716.66796875 l 1
 125 631.376953125 193.876953125 562.5 279.16796875 562.5 c 2
 766.66796875 562.5 l 1
 766.66796875 800 l 1
 791.66796875 800 l 1
 791.66796875 714.708984375 860.541015625 645.83203125 945.83203125 645.83203125 c 2
 1433.76953125 645.83203125 l 1
 1437.96289062 706.193359375 1472.27636719 758.2890625 1521.66210938 787.5 c 1
 1279.16796875 787.5 l 1
 1279.16796875 812.5 l 1
1186.9921875 475.505859375 m 1
 1204.66992188 457.830078125 l 1
 1046.84570312 300 l 1
 1204.66992188 142.169921875 l 1
 1186.9921875 124.4921875 l 1
 1011.49023438 300 l 1
 1186.9921875 475.505859375 l 1
EndSplineSet
EndChar

StartChar: U12321
Encoding: 268 74529 12
Width: 1712
VWidth: 100
Flags: W
HStem: -45.832 25<887.282 1433.33> 37.5 25<220.617 766.668> 537.5 25<220.617 766.668> 620.832 25<887.282 1433.33> 787.5 25<1279.17 1521.66 1552.43 1612.5>
VStem: 100 25<-116.668 125.83 156.597 216.668 383.332 625.83 656.597 716.668> 766.668 25<-200 37.5 73.2617 133.332 466.668 537.5 562.5 709.162 739.929 800> 1433.33 25<-200 -45.832 -20.832 620.832 645.832 691.909>
LayerCount: 2
Fore
SplineSet
1279.16796875 812.5 m 1
 1612.5 812.5 l 1
 1612.5 787.5 l 1
 1527.20898438 787.5 1458.33203125 718.623046875 1458.33203125 633.33203125 c 2
 1458.33203125 -200 l 1
 1433.33203125 -200 l 1
 1433.33203125 -45.83203125 l 1
 945.83203125 -45.83203125 l 2
 880.206054688 -45.83203125 822.876953125 -10.26953125 791.66796875 42.494140625 c 1
 791.66796875 -200 l 1
 766.66796875 -200 l 1
 766.66796875 37.5 l 1
 279.16796875 37.5 l 2
 213.541015625 37.5 156.209960938 73.064453125 125 125.830078125 c 1
 125 -116.66796875 l 1
 100 -116.66796875 l 1
 100 216.66796875 l 1
 125 216.66796875 l 1
 125 131.376953125 193.876953125 62.5 279.16796875 62.5 c 2
 766.66796875 62.5 l 1
 766.66796875 133.33203125 l 1
 791.66796875 133.33203125 l 1
 791.66796875 48.041015625 860.541015625 -20.83203125 945.83203125 -20.83203125 c 2
 1433.33203125 -20.83203125 l 1
 1433.33203125 620.83203125 l 1
 945.83203125 620.83203125 l 2
 880.205078125 620.83203125 822.876953125 656.397460938 791.66796875 709.162109375 c 1
 791.66796875 466.66796875 l 1
 766.66796875 466.66796875 l 1
 766.66796875 537.5 l 1
 279.16796875 537.5 l 2
 213.541015625 537.5 156.209960938 573.064453125 125 625.830078125 c 1
 125 383.33203125 l 1
 100 383.33203125 l 1
 100 716.66796875 l 1
 125 716.66796875 l 1
 125 631.376953125 193.876953125 562.5 279.16796875 562.5 c 2
 766.66796875 562.5 l 1
 766.66796875 800 l 1
 791.66796875 800 l 1
 791.66796875 714.708984375 860.541015625 645.83203125 945.83203125 645.83203125 c 2
 1433.76953125 645.83203125 l 1
 1437.96289062 706.193359375 1472.27636719 758.2890625 1521.66210938 787.5 c 1
 1279.16796875 787.5 l 1
 1279.16796875 812.5 l 1
1186.9921875 475.505859375 m 1
 1204.66992188 457.830078125 l 1
 1046.84570312 300 l 1
 1204.66992188 142.169921875 l 1
 1186.9921875 124.4921875 l 1
 1011.49023438 300 l 1
 1186.9921875 475.505859375 l 1
EndSplineSet
EndChar

StartChar: U12350
Encoding: 269 74576 13
Width: 1712
VWidth: 100
Flags: W
HStem: -45.832 25<887.282 1433.33> 37.5 25<220.617 766.668> 537.5 25<220.617 766.668> 620.832 25<887.282 1433.33> 787.5 25<1279.17 1521.66 1552.43 1612.5>
VStem: 100 25<-116.668 125.83 156.597 216.668 383.332 625.83 656.597 716.668> 766.668 25<-200 37.5 73.2617 133.332 466.668 537.5 562.5 709.162 739.929 800> 1433.33 25<-200 -45.832 -20.832 620.832 645.832 691.909>
LayerCount: 2
Fore
SplineSet
1279.16796875 812.5 m 1
 1612.5 812.5 l 1
 1612.5 787.5 l 1
 1527.20898438 787.5 1458.33203125 718.623046875 1458.33203125 633.33203125 c 2
 1458.33203125 -200 l 1
 1433.33203125 -200 l 1
 1433.33203125 -45.83203125 l 1
 945.83203125 -45.83203125 l 2
 880.206054688 -45.83203125 822.876953125 -10.26953125 791.66796875 42.494140625 c 1
 791.66796875 -200 l 1
 766.66796875 -200 l 1
 766.66796875 37.5 l 1
 279.16796875 37.5 l 2
 213.541015625 37.5 156.209960938 73.064453125 125 125.830078125 c 1
 125 -116.66796875 l 1
 100 -116.66796875 l 1
 100 216.66796875 l 1
 125 216.66796875 l 1
 125 131.376953125 193.876953125 62.5 279.16796875 62.5 c 2
 766.66796875 62.5 l 1
 766.66796875 133.33203125 l 1
 791.66796875 133.33203125 l 1
 791.66796875 48.041015625 860.541015625 -20.83203125 945.83203125 -20.83203125 c 2
 1433.33203125 -20.83203125 l 1
 1433.33203125 620.83203125 l 1
 945.83203125 620.83203125 l 2
 880.205078125 620.83203125 822.876953125 656.397460938 791.66796875 709.162109375 c 1
 791.66796875 466.66796875 l 1
 766.66796875 466.66796875 l 1
 766.66796875 537.5 l 1
 279.16796875 537.5 l 2
 213.541015625 537.5 156.209960938 573.064453125 125 625.830078125 c 1
 125 383.33203125 l 1
 100 383.33203125 l 1
 100 716.66796875 l 1
 125 716.66796875 l 1
 125 631.376953125 193.876953125 562.5 279.16796875 562.5 c 2
 766.66796875 562.5 l 1
 766.66796875 800 l 1
 791.66796875 800 l 1
 791.66796875 714.708984375 860.541015625 645.83203125 945.83203125 645.83203125 c 2
 1433.76953125 645.83203125 l 1
 1437.96289062 706.193359375 1472.27636719 758.2890625 1521.66210938 787.5 c 1
 1279.16796875 787.5 l 1
 1279.16796875 812.5 l 1
1186.9921875 475.505859375 m 1
 1204.66992188 457.830078125 l 1
 1046.84570312 300 l 1
 1204.66992188 142.169921875 l 1
 1186.9921875 124.4921875 l 1
 1011.49023438 300 l 1
 1186.9921875 475.505859375 l 1
EndSplineSet
EndChar

StartChar: U12261
Encoding: 270 74337 14
Width: 1212
VWidth: 100
Flags: W
HStem: 287.5 25<220.617 357.322 392.676 1112.5>
VStem: 100 25<133.332 375.83 406.597 466.668>
LayerCount: 2
Fore
SplineSet
853.662109375 808.837890625 m 1
 871.337890625 791.162109375 l 1
 392.67578125 312.5 l 1
 1112.5 312.5 l 1
 1112.5 287.5 l 1
 392.67578125 287.5 l 1
 871.337890625 -191.162109375 l 1
 853.662109375 -208.837890625 l 1
 357.322265625 287.5 l 1
 279.16796875 287.5 l 2
 213.541015625 287.5 156.209960938 323.064453125 125 375.830078125 c 1
 125 133.33203125 l 1
 100 133.33203125 l 1
 100 466.66796875 l 1
 125 466.66796875 l 1
 125 381.376953125 193.876953125 312.5 279.16796875 312.5 c 2
 357.322265625 312.5 l 1
 853.662109375 808.837890625 l 1
EndSplineSet
EndChar

StartChar: U12318
Encoding: 271 74520 15
Width: 1712
VWidth: 100
Flags: W
HStem: -45.832 25<887.282 1433.33> 120.875 25<220.592 766.668> 454.125 25<220.592 766.668> 620.832 25<887.282 1434.91 1458.88 1521.66 1552.43 1612.5> 787.5 25<1279.17 1521.66 1551.88 1612.5>
VStem: 100 25<-33.25 209.174 239.946 542.424 573.196 633.25> 766.668 25<-200 42.4941 73.2617 120.875 479.125 709.162 739.929 800> 1433.33 25<-200 -45.832 -20.832 525.218 645.832 691.723>
LayerCount: 2
Fore
SplineSet
1279.16796875 812.5 m 1
 1612.5 812.5 l 1
 1612.5 787.5 l 1
 1531.421875 787.5 1465.22363281 725.247070312 1458.87695312 645.83203125 c 1
 1612.5 645.83203125 l 1
 1612.5 620.83203125 l 1
 1527.20898438 620.83203125 1458.33203125 551.958984375 1458.33203125 466.66796875 c 2
 1458.33203125 -200 l 1
 1433.33203125 -200 l 1
 1433.33203125 -45.83203125 l 1
 945.83203125 -45.83203125 l 2
 880.206054688 -45.83203125 822.876953125 -10.26953125 791.66796875 42.494140625 c 1
 791.66796875 -200 l 1
 766.66796875 -200 l 1
 766.66796875 120.875 l 1
 279.125 120.875 l 2
 213.518554688 120.875 156.204101562 156.427734375 125 209.173828125 c 1
 125 -33.25 l 1
 100 -33.25 l 1
 100 300 l 1
 100 633.25 l 1
 125 633.25 l 1
 125 547.982421875 193.857421875 479.125 279.125 479.125 c 2
 766.66796875 479.125 l 1
 766.66796875 800 l 1
 791.66796875 800 l 1
 791.66796875 714.708984375 860.541015625 645.83203125 945.83203125 645.83203125 c 2
 1433.76953125 645.83203125 l 1
 1437.96289062 706.193359375 1472.27636719 758.2890625 1521.66210938 787.5 c 1
 1279.16796875 787.5 l 1
 1279.16796875 812.5 l 1
791.66796875 709.162109375 m 1
 791.66796875 466.66796875 l 1
 779.16796875 466.66796875 l 1
 779.16796875 454.125 l 1
 279.125 454.125 l 2
 213.517578125 454.125 156.204101562 489.676757812 125 542.423828125 c 1
 125 300 l 2
 125 214.732421875 193.857421875 145.875 279.125 145.875 c 2
 779.16796875 145.875 l 1
 779.16796875 133.33203125 l 1
 791.66796875 133.33203125 l 1
 791.66796875 48.041015625 860.541015625 -20.83203125 945.83203125 -20.83203125 c 2
 1433.33203125 -20.83203125 l 1
 1433.33203125 466.66796875 l 2
 1433.33203125 532.294921875 1468.89746094 589.623046875 1521.66210938 620.83203125 c 1
 1445.83203125 620.83203125 l 1
 945.83203125 620.83203125 l 2
 880.205078125 620.83203125 822.876953125 656.397460938 791.66796875 709.162109375 c 1
964.76953125 475.505859375 m 1
 982.44921875 457.830078125 l 1
 824.623046875 300 l 1
 982.44921875 142.169921875 l 1
 964.76953125 124.4921875 l 1
 789.267578125 300 l 1
 964.76953125 475.505859375 l 1
1186.9921875 475.505859375 m 1
 1204.66992188 457.830078125 l 1
 1046.84570312 300 l 1
 1204.66992188 142.169921875 l 1
 1186.9921875 124.4921875 l 1
 1011.49023438 300 l 1
 1186.9921875 475.505859375 l 1
1409.21679688 475.505859375 m 1
 1426.89453125 457.830078125 l 1
 1269.06835938 300 l 1
 1426.89453125 142.169921875 l 1
 1409.21679688 124.4921875 l 1
 1233.71289062 300 l 1
 1409.21679688 475.505859375 l 1
EndSplineSet
EndChar

StartChar: U12015
Encoding: 272 73749 16
Width: 1712
VWidth: 100
Flags: W
HStem: -45.832 25<887.282 1433.33> 37.5 25<220.617 766.668> 537.5 25<220.617 766.668> 620.832 25<887.282 1434.91 1458.88 1521.66 1552.43 1612.5> 787.5 25<1279.17 1521.66 1551.88 1612.5>
VStem: 100 25<-116.668 125.83 156.597 216.668 383.332 625.83 656.597 716.668> 766.668 25<-200 37.5 73.2617 133.332 466.668 537.5 562.5 709.162 739.929 800> 1433.33 25<-200 -45.832 -20.832 525.218 645.832 691.723>
LayerCount: 2
Fore
SplineSet
1279.16796875 812.5 m 1
 1612.5 812.5 l 1
 1612.5 787.5 l 1
 1531.421875 787.5 1465.22363281 725.247070312 1458.87695312 645.83203125 c 1
 1612.5 645.83203125 l 1
 1612.5 620.83203125 l 1
 1527.20898438 620.83203125 1458.33203125 551.958984375 1458.33203125 466.66796875 c 2
 1458.33203125 -200 l 1
 1433.33203125 -200 l 1
 1433.33203125 -45.83203125 l 1
 945.83203125 -45.83203125 l 2
 880.206054688 -45.83203125 822.876953125 -10.26953125 791.66796875 42.494140625 c 1
 791.66796875 -200 l 1
 766.66796875 -200 l 1
 766.66796875 37.5 l 1
 279.16796875 37.5 l 2
 213.541015625 37.5 156.209960938 73.064453125 125 125.830078125 c 1
 125 -116.66796875 l 1
 100 -116.66796875 l 1
 100 216.66796875 l 1
 125 216.66796875 l 1
 125 131.376953125 193.876953125 62.5 279.16796875 62.5 c 2
 766.66796875 62.5 l 1
 766.66796875 133.33203125 l 1
 791.66796875 133.33203125 l 1
 791.66796875 48.041015625 860.541015625 -20.83203125 945.83203125 -20.83203125 c 2
 1433.33203125 -20.83203125 l 1
 1433.33203125 466.66796875 l 2
 1433.33203125 532.294921875 1468.89746094 589.623046875 1521.66210938 620.83203125 c 1
 1445.83203125 620.83203125 l 1
 945.83203125 620.83203125 l 2
 880.205078125 620.83203125 822.876953125 656.397460938 791.66796875 709.162109375 c 1
 791.66796875 466.66796875 l 1
 766.66796875 466.66796875 l 1
 766.66796875 537.5 l 1
 279.16796875 537.5 l 2
 213.541015625 537.5 156.209960938 573.064453125 125 625.830078125 c 1
 125 383.33203125 l 1
 100 383.33203125 l 1
 100 716.66796875 l 1
 125 716.66796875 l 1
 125 631.376953125 193.876953125 562.5 279.16796875 562.5 c 2
 766.66796875 562.5 l 1
 766.66796875 800 l 1
 791.66796875 800 l 1
 791.66796875 714.708984375 860.541015625 645.83203125 945.83203125 645.83203125 c 2
 1433.76953125 645.83203125 l 1
 1437.96289062 706.193359375 1472.27636719 758.2890625 1521.66210938 787.5 c 1
 1279.16796875 787.5 l 1
 1279.16796875 812.5 l 1
964.76953125 475.505859375 m 1
 982.44921875 457.830078125 l 1
 824.623046875 300 l 1
 982.44921875 142.169921875 l 1
 964.76953125 124.4921875 l 1
 789.267578125 300 l 1
 964.76953125 475.505859375 l 1
1186.9921875 475.505859375 m 1
 1204.66992188 457.830078125 l 1
 1046.84570312 300 l 1
 1204.66992188 142.169921875 l 1
 1186.9921875 124.4921875 l 1
 1011.49023438 300 l 1
 1186.9921875 475.505859375 l 1
1409.21679688 475.505859375 m 1
 1426.89453125 457.830078125 l 1
 1269.06835938 300 l 1
 1426.89453125 142.169921875 l 1
 1409.21679688 124.4921875 l 1
 1233.71289062 300 l 1
 1409.21679688 475.505859375 l 1
EndSplineSet
EndChar

StartChar: U12229
Encoding: 273 74281 17
Width: 1712
VWidth: 100
Flags: W
HStem: -45.832 25<887.282 1433.33> 37.5 25<220.617 766.668> 404.168 25<1112.5 1219.1 1242.44 1269.8 1298.34 1345.83> 520.832 25<879.168 1036.47 1065.01 1269.8 1297.33 1345.83> 537.5 25<220.617 766.668> 620.832 25<887.282 1433.33> 787.5 25<1279.17 1521.66 1552.43 1612.5>
VStem: 100 25<-116.668 125.83 156.597 216.668 383.332 625.83 656.597 716.668> 766.668 25<-200 37.5 73.2617 133.332 466.668 537.5 562.5 709.162 739.929 800> 983.332 25<66.668 464.155> 1216.67 25<66.668 347.488 429.168 465.32> 1433.33 25<-200 -45.832 -20.832 620.832 645.832 691.909>
LayerCount: 2
Fore
SplineSet
1279.16796875 812.5 m 1xeff0
 1612.5 812.5 l 1
 1612.5 787.5 l 1
 1527.20898438 787.5 1458.33203125 718.623046875 1458.33203125 633.33203125 c 2
 1458.33203125 -200 l 1
 1433.33203125 -200 l 1
 1433.33203125 -45.83203125 l 1
 945.83203125 -45.83203125 l 2
 880.206054688 -45.83203125 822.876953125 -10.26953125 791.66796875 42.494140625 c 1
 791.66796875 -200 l 1
 766.66796875 -200 l 1
 766.66796875 37.5 l 1
 279.16796875 37.5 l 2
 213.541015625 37.5 156.209960938 73.064453125 125 125.830078125 c 1
 125 -116.66796875 l 1
 100 -116.66796875 l 1
 100 216.66796875 l 1
 125 216.66796875 l 1
 125 131.376953125 193.876953125 62.5 279.16796875 62.5 c 2
 766.66796875 62.5 l 1
 766.66796875 133.33203125 l 1
 791.66796875 133.33203125 l 1
 791.66796875 48.041015625 860.541015625 -20.83203125 945.83203125 -20.83203125 c 2
 1433.33203125 -20.83203125 l 1
 1433.33203125 620.83203125 l 1
 945.83203125 620.83203125 l 2
 880.205078125 620.83203125 822.876953125 656.397460938 791.66796875 709.162109375 c 1
 791.66796875 466.66796875 l 1
 766.66796875 466.66796875 l 1
 766.66796875 537.5 l 1
 279.16796875 537.5 l 2
 213.541015625 537.5 156.209960938 573.064453125 125 625.830078125 c 1
 125 383.33203125 l 1
 100 383.33203125 l 1
 100 716.66796875 l 1
 125 716.66796875 l 1
 125 631.376953125 193.876953125 562.5 279.16796875 562.5 c 2
 766.66796875 562.5 l 1
 766.66796875 800 l 1
 791.66796875 800 l 1
 791.66796875 714.708984375 860.541015625 645.83203125 945.83203125 645.83203125 c 2
 1433.76953125 645.83203125 l 1
 1437.96289062 706.193359375 1472.27636719 758.2890625 1521.66210938 787.5 c 1
 1279.16796875 787.5 l 1
 1279.16796875 812.5 l 1xeff0
879.16796875 545.83203125 m 1xf7f0
 1112.5 545.83203125 l 1
 1345.83203125 545.83203125 l 1
 1345.83203125 520.83203125 l 1
 1292.38769531 520.83203125 1248.58398438 480.912109375 1242.43554688 429.16796875 c 1
 1345.83203125 429.16796875 l 1
 1345.83203125 404.16796875 l 1
 1288.15332031 404.16796875 1241.66796875 357.677734375 1241.66796875 300 c 2
 1241.66796875 66.66796875 l 1
 1216.66796875 66.66796875 l 1
 1216.66796875 300 l 2
 1216.66796875 342.758789062 1237.67089844 380.641601562 1269.80273438 404.16796875 c 1
 1112.5 404.16796875 l 1
 1112.5 429.16796875 l 1
 1217.33007812 429.16796875 l 1
 1220.98242188 466.751953125 1240.84472656 499.629882812 1269.80273438 520.83203125 c 1
 1112.5 520.83203125 l 2
 1054.82226562 520.83203125 1008.33203125 474.345703125 1008.33203125 416.66796875 c 2
 1008.33203125 66.66796875 l 1
 983.33203125 66.66796875 l 1
 983.33203125 416.66796875 l 2
 983.33203125 459.42578125 1004.33496094 497.306640625 1036.46679688 520.83203125 c 1
 879.16796875 520.83203125 l 1
 879.16796875 545.83203125 l 1xf7f0
EndSplineSet
EndChar

StartChar: U120f6
Encoding: 274 73974 18
Width: 1712
VWidth: 100
Flags: W
HStem: -45.832 25<970.617 1612.5> 37.5 25<220.617 850> 287.5 25<970.617 1612.5> 537.5 25<220.617 850> 620.832 25<970.617 1612.5>
VStem: 100 25<-116.668 125.83 156.597 216.668 383.332 625.83 656.597 716.668> 850 25<-200 37.5 73.2617 375.83 406.597 537.5 562.5 709.162 739.929 800>
LayerCount: 2
Fore
SplineSet
850 800 m 1
 875 800 l 1
 875 714.708984375 943.876953125 645.83203125 1029.16796875 645.83203125 c 2
 1612.5 645.83203125 l 1
 1612.5 620.83203125 l 1
 1029.16796875 620.83203125 l 2
 963.541015625 620.83203125 906.209960938 656.396484375 875 709.162109375 c 1
 875 466.66796875 l 2
 875 381.376953125 943.876953125 312.5 1029.16796875 312.5 c 2
 1612.5 312.5 l 1
 1612.5 287.5 l 1
 1029.16796875 287.5 l 2
 963.541015625 287.5 906.209960938 323.064453125 875 375.830078125 c 1
 875 133.33203125 l 2
 875 48.041015625 943.876953125 -20.83203125 1029.16796875 -20.83203125 c 2
 1612.5 -20.83203125 l 1
 1612.5 -45.83203125 l 1
 1029.16796875 -45.83203125 l 2
 963.541015625 -45.83203125 906.209960938 -10.2685546875 875 42.49609375 c 1
 875 -200 l 1
 850 -200 l 1
 850 37.5 l 1
 279.16796875 37.5 l 2
 213.541015625 37.5 156.209960938 73.064453125 125 125.830078125 c 1
 125 -116.66796875 l 1
 100 -116.66796875 l 1
 100 216.66796875 l 1
 125 216.66796875 l 1
 125 131.376953125 193.876953125 62.5 279.16796875 62.5 c 2
 850 62.5 l 1
 850 133.33203125 l 1
 850 466.66796875 l 1
 850 537.5 l 1
 279.16796875 537.5 l 2
 213.541015625 537.5 156.209960938 573.064453125 125 625.830078125 c 1
 125 383.33203125 l 1
 100 383.33203125 l 1
 100 716.66796875 l 1
 125 716.66796875 l 1
 125 631.376953125 193.876953125 562.5 279.16796875 562.5 c 2
 850 562.5 l 1
 850 800 l 1
EndSplineSet
EndChar

StartChar: U120a6
Encoding: 275 73894 19
Width: 1712
VWidth: 100
Flags: W
HStem: -45.832 25<665.06 988.891 1109.5 1433.33> 37.5 25<220.617 544.445> 204.168 25<600.924 860.098> 287.5 25<1109.5 1433.33> 370.832 25<600.923 860.098> 537.5 25<220.617 544.445> 620.832 25<665.059 988.891> 787.5 25<834.723 1077.22 1107.98 1168.05 1279.17 1521.66 1552.43 1612.5>
VStem: 100 25<-116.668 125.83 156.597 216.668 383.332 625.83 656.597 716.668> 544.445 25<-200 37.5 73.2617 235.727 260.332 402.395 426.999 537.5 562.5 709.162 739.929 800> 988.891 25<-200 -45.832 -20.832 42.4941 73.2617 375.83 406.597 620.832 645.832 691.909> 1433.33 25<-200 -45.832 -20.832 287.5 312.5 691.883>
LayerCount: 2
Fore
SplineSet
834.72265625 812.5 m 1
 1168.0546875 812.5 l 1
 1168.0546875 787.5 l 1
 1082.76464844 787.5 1013.890625 718.623046875 1013.890625 633.33203125 c 2
 1013.890625 466.66796875 l 2
 1013.890625 381.376953125 1082.76367188 312.5 1168.0546875 312.5 c 2
 1433.33203125 312.5 l 1
 1433.33203125 633.33203125 l 2
 1433.33203125 698.958984375 1468.89746094 756.290039062 1521.66210938 787.5 c 1
 1279.16796875 787.5 l 1
 1279.16796875 812.5 l 1
 1612.5 812.5 l 1
 1612.5 787.5 l 1
 1527.20898438 787.5 1458.33203125 718.623046875 1458.33203125 633.33203125 c 2
 1458.33203125 -200 l 1
 1433.33203125 -200 l 1
 1433.33203125 -45.83203125 l 1
 1168.0546875 -45.83203125 l 2
 1102.42871094 -45.83203125 1045.09960938 -10.26953125 1013.890625 42.494140625 c 1
 1013.890625 -200 l 1
 988.890625 -200 l 1
 988.890625 -45.83203125 l 1
 723.609375 -45.83203125 l 2
 657.983398438 -45.83203125 600.654296875 -10.26953125 569.4453125 42.494140625 c 1
 569.4453125 -200 l 1
 544.4453125 -200 l 1
 544.4453125 37.5 l 1
 279.16796875 37.5 l 2
 213.541015625 37.5 156.209960938 73.064453125 125 125.830078125 c 1
 125 -116.66796875 l 1
 100 -116.66796875 l 1
 100 216.66796875 l 1
 125 216.66796875 l 1
 125 131.376953125 193.876953125 62.5 279.16796875 62.5 c 2
 544.4453125 62.5 l 1
 544.4453125 133.33203125 l 1
 544.4453125 300 l 1
 544.4453125 466.66796875 l 1
 544.4453125 537.5 l 1
 279.16796875 537.5 l 2
 213.541015625 537.5 156.209960938 573.064453125 125 625.830078125 c 1
 125 383.33203125 l 1
 100 383.33203125 l 1
 100 716.66796875 l 1
 125 716.66796875 l 1
 125 631.376953125 193.876953125 562.5 279.16796875 562.5 c 2
 544.4453125 562.5 l 1
 544.4453125 800 l 1
 569.4453125 800 l 1
 569.4453125 714.708984375 638.318359375 645.83203125 723.609375 645.83203125 c 2
 989.328125 645.83203125 l 1
 993.520507812 706.193359375 1027.83300781 758.2890625 1077.21875 787.5 c 1
 834.72265625 787.5 l 1
 834.72265625 812.5 l 1
569.4453125 709.162109375 m 1
 569.4453125 466.66796875 l 2
 569.4453125 427.400390625 601.009765625 395.83203125 640.27734375 395.83203125 c 2
 885.09765625 395.83203125 l 1
 964.76953125 475.505859375 l 1
 982.44921875 457.830078125 l 1
 824.623046875 300 l 1
 982.44921875 142.169921875 l 1
 964.76953125 124.4921875 l 1
 885.095703125 204.16796875 l 1
 640.27734375 204.16796875 l 2
 612.224609375 204.16796875 586.999023438 216.404296875 569.4453125 235.7265625 c 1
 569.4453125 133.33203125 l 2
 569.4453125 48.041015625 638.318359375 -20.83203125 723.609375 -20.83203125 c 2
 988.890625 -20.83203125 l 1
 988.890625 133.33203125 l 1
 988.890625 466.66796875 l 1
 988.890625 620.83203125 l 1
 723.609375 620.83203125 l 2
 657.982421875 620.83203125 600.654296875 656.397460938 569.4453125 709.162109375 c 1
569.4453125 402.39453125 m 1
 569.4453125 300 l 2
 569.4453125 260.731445312 601.009765625 229.16796875 640.27734375 229.16796875 c 2
 860.09765625 229.16796875 l 1
 789.267578125 300 l 1
 860.09765625 370.83203125 l 1
 640.27734375 370.83203125 l 2
 612.223632812 370.83203125 586.998046875 383.071289062 569.4453125 402.39453125 c 1
1013.890625 375.830078125 m 1
 1013.890625 133.33203125 l 2
 1013.890625 48.041015625 1082.76269531 -20.83203125 1168.0546875 -20.83203125 c 2
 1433.33203125 -20.83203125 l 1
 1433.33203125 287.5 l 1
 1168.0546875 287.5 l 2
 1102.42773438 287.5 1045.09960938 323.065429688 1013.890625 375.830078125 c 1
EndSplineSet
EndChar

StartChar: U12217
Encoding: 276 74263 20
Width: 2218
VWidth: 100
Flags: W
HStem: -177.058 24.9469<841.355 965.373> 37.5 25<220.617 779.168> 537.5 25<220.617 779.168>
VStem: 100 25<-116.668 125.83 156.597 216.668 383.332 625.83 656.597 716.668>
LayerCount: 2
Fore
SplineSet
842.5234375 954.66015625 m 1
 864.8828125 943.48046875 l 1
 853.781925808 921.27841115 848.520535428 897.710942399 848.520535428 874.513102504 c 0
 848.520535428 818.003307769 879.741972746 763.68691503 933.828125 736.64453125 c 2
 1440.2421875 483.4375 l 1
 1509.1875 621.328125 l 1
 1531.546875 610.1484375 l 1
 1520.44617203 587.946178952 1515.18496935 564.379203331 1515.18496935 541.182114611 c 0
 1515.18496935 484.670789849 1546.40900559 430.35465936 1600.49609375 403.3125 c 2
 2118.09179688 144.51171875 l 1
 2112.5 133.330078125 l 1
 2115.53125 121.205078125 l 1
 943.88671875 -171.705078125 l 2
 929.401775238 -175.326369548 914.887008337 -177.057565749 900.598471219 -177.057565749 c 0
 852.08329907 -177.057565749 806.176257902 -157.09915716 772.900390625 -123.40234375 c 1
 831.716796875 -358.66015625 l 1
 807.462890625 -364.72265625 l 1
 726.615234375 -41.33984375 l 1
 750.869140625 -35.275390625 l 1
 750.869140625 -35.27734375 l 1
 768.407543005 -105.417708619 831.092242936 -152.110627436 900.179397971 -152.110627436 c 0
 912.595842442 -152.110627436 925.219084956 -150.602455324 937.82421875 -147.451171875 c 2
 2076.6875 137.263671875 l 1
 1589.31640625 380.953125 l 2
 1530.61523438 410.301757812 1495.24121094 467.75 1490.92382812 528.90234375 c 1
 1382.4765625 312.00390625 l 1
 1360.1171875 323.18359375 l 1
 1429.0625 461.078125 l 1
 922.6484375 714.28515625 l 1
 922.6484375 714.283203125 l 1
 863.948242188 743.631835938 828.577148438 801.081054688 824.259765625 862.232421875 c 1
 715.8125 645.33984375 l 1
 693.453125 656.51953125 l 1
 842.5234375 954.66015625 l 1
100 716.66796875 m 1
 125 716.66796875 l 1
 125 631.376953125 193.876953125 562.5 279.16796875 562.5 c 2
 779.16796875 562.5 l 1
 779.16796875 537.5 l 1
 279.16796875 537.5 l 2
 213.541015625 537.5 156.209960938 573.064453125 125 625.830078125 c 1
 125 383.33203125 l 1
 100 383.33203125 l 1
 100 716.66796875 l 1
842.5234375 621.328125 m 1
 864.8828125 610.1484375 l 1
 853.781614619 587.94518909 848.520106863 564.377184634 848.520106863 541.179187899 c 0
 848.520106863 484.669204774 879.742026694 430.354856807 933.828125 403.3125 c 2
 1451.421875 144.51171875 l 1
 1440.2421875 122.15234375 l 1
 922.6484375 380.953125 l 2
 863.947265625 410.302734375 828.576171875 467.75 824.259765625 528.90234375 c 1
 715.8125 312.00390625 l 1
 693.453125 323.18359375 l 1
 842.5234375 621.328125 l 1
100 216.66796875 m 1
 125 216.66796875 l 1
 125 131.376953125 193.876953125 62.5 279.16796875 62.5 c 2
 779.16796875 62.5 l 1
 779.16796875 37.5 l 1
 279.16796875 37.5 l 2
 213.541015625 37.5 156.209960938 73.064453125 125 125.830078125 c 1
 125 -116.66796875 l 1
 100 -116.66796875 l 1
 100 216.66796875 l 1
EndSplineSet
EndChar

StartChar: LIG_DI3M_RAB_GAM
Encoding: 277 -1 21
Width: 2222
VWidth: 100
Flags: W
HStem: -45.832 25<695.617 1387.5> 37.5 25<220.617 575> 287.5 25<1745.78 1791.67 1912.28 2112.5> 537.5 25<220.617 587.5>
VStem: 100 25<-116.668 125.83 156.597 216.668 383.332 625.83 656.597 716.668> 575 25<-200 37.5 73.2617 133.332> 643.32 24.6854<429.105 531.915 761.556 865.246> 771.358 24.6666<322.49 425.218> 1043.32 24.668<429.186 531.905> 1625 25<133.332 269.824 330.176 375.83 406.051 466.668> 1791.67 25<133.332 150.602 208.836 289.073 313.045 375.83 406.597 466.668> 1833.32 24.6883<87.9487 196.201>
LayerCount: 2
Fore
SplineSet
684.595703125 936.037109375 m 1
 703.80078125 920.033203125 l 1
 679.732882721 891.153877076 667.986724461 856.157886317 667.986724461 821.371950017 c 0
 667.986724461 777.2366467 686.895381486 733.439483533 723.537109375 702.90234375 c 2
 985.900390625 484.2734375 l 1
 1084.59570312 602.705078125 l 1
 1103.80273438 586.701171875 l 1
 1103.78320312 586.677734375 l 2
 1079.72799204 557.802270949 1067.98781127 522.815003343 1067.98781127 488.037855526 c 0
 1067.98781127 443.903148263 1086.89588827 400.106848154 1123.53710938 369.5703125 c 2
 1395.50195312 142.935546875 l 1
 1379.49804688 123.73046875 l 1
 1107.53320312 350.365234375 l 2
 1065.10951737 385.720771188 1043.31981879 436.660714972 1043.31981879 487.9798377 c 0
 1043.31981879 497.645643894 1044.09280001 507.324901316 1045.64648438 516.916015625 c 1
 890.404296875 330.626953125 l 1
 871.197265625 346.630859375 l 1
 969.896484375 465.068359375 l 1
 707.533203125 683.697265625 l 2
 665.109241977 719.052347087 643.319428036 769.992817125 643.319428036 821.311707571 c 0
 643.319428036 830.97825546 644.092538977 840.658229849 645.646484375 850.25 c 1
 490.404296875 663.962890625 l 1
 471.197265625 679.966796875 l 1
 684.595703125 936.037109375 l 1
1628.66210938 808.837890625 m 1
 1646.33789062 791.162109375 l 1
 1405.17578125 550 l 1
 1625 330.17578125 l 1
 1625 466.66796875 l 1
 1650 466.66796875 l 1
 1650 385.58984375 1712.25292969 319.391601562 1791.66796875 313.044921875 c 1
 1791.66796875 466.66796875 l 1
 1816.66796875 466.66796875 l 1
 1816.66796875 381.376953125 1885.54101562 312.5 1970.83203125 312.5 c 2
 2112.5 312.5 l 1
 2112.5 287.5 l 1
 1970.83203125 287.5 l 2
 1905.20507812 287.5 1847.87695312 323.065429688 1816.66796875 375.830078125 c 1
 1816.66796875 208.8359375 l 1
 1888.84765625 277.40625 l 1
 1906.06640625 259.28125 l 1
 1874.11215187 228.926222282 1858.00423942 188.254447537 1858.00423942 147.501270475 c 0
 1858.00423942 109.391367839 1872.09037928 71.210280037 1900.4765625 41.328125 c 2
 2121.5625 -191.390625 l 1
 2103.4375 -208.609375 l 1
 1882.3515625 24.109375 l 2
 1849.52926966 58.6613591289 1833.31596865 102.959860169 1833.31596865 147.210595328 c 0
 1833.31596865 163.894428051 1835.6207096 180.571470794 1840.20898438 196.716796875 c 1
 1816.66796875 174.353515625 l 1
 1816.66796875 133.33203125 l 1
 1791.66796875 133.33203125 l 1
 1791.66796875 150.6015625 l 1
 1664.40234375 29.69921875 l 1
 1647.18359375 47.82421875 l 1
 1791.66796875 185.0859375 l 1
 1791.66796875 287.9375 l 1
 1731.30664062 292.130859375 1679.2109375 326.444335938 1650 375.830078125 c 1
 1650 133.33203125 l 1
 1625 133.33203125 l 1
 1625 269.82421875 l 1
 1405.17578125 50 l 1
 1646.33789062 -191.162109375 l 1
 1628.66210938 -208.837890625 l 1
 1369.82226562 50 l 1
 1619.82421875 300 l 1
 1369.82226562 550 l 1
 1628.66210938 808.837890625 l 1
100 716.66796875 m 1
 125 716.66796875 l 1
 125 631.376953125 193.876953125 562.5 279.16796875 562.5 c 2
 587.5 562.5 l 1
 587.5 537.5 l 1
 279.16796875 537.5 l 2
 213.541015625 537.5 156.209960938 573.064453125 125 625.830078125 c 1
 125 383.33203125 l 1
 100 383.33203125 l 1
 100 716.66796875 l 1
684.595703125 602.705078125 m 1
 703.80078125 586.701171875 l 1
 703.802734375 586.701171875 l 1
 703.783203125 586.677734375 l 2
 679.737368835 557.813862897 668.005604036 522.849060323 668.005604036 488.092064883 c 0
 668.005604036 447.849522972 683.73274226 407.885559057 714.283203125 377.9921875 c 1
 812.6328125 496.009765625 l 1
 831.837890625 480.005859375 l 1
 807.771084584 451.12457298 796.02489432 416.127659166 796.02489432 381.341659403 c 0
 796.02489432 337.20692756 814.933044208 293.411709584 851.576171875 262.876953125 c 1
 851.576171875 262.875 l 1
 995.501953125 142.935546875 l 1
 979.498046875 123.73046875 l 1
 835.572265625 243.669921875 l 2
 793.146419145 279.022876501 771.358304707 329.962176587 771.358304707 381.281477606 c 0
 771.358304707 390.948936539 772.1314887 400.629880376 773.685546875 410.22265625 c 1
 618.443359375 223.931640625 l 1
 599.236328125 239.935546875 l 1
 698.2109375 358.703125 l 1
 661.922159187 393.47899207 643.320164234 440.568962813 643.320164234 487.983485474 c 0
 643.320164234 497.648022748 644.093020776 507.32604417 645.646484375 516.916015625 c 1
 490.404296875 330.626953125 l 1
 471.197265625 346.630859375 l 1
 684.595703125 602.705078125 l 1
100 216.66796875 m 1
 125 216.66796875 l 1
 125 131.376953125 193.876953125 62.5 279.16796875 62.5 c 2
 575 62.5 l 1
 575 133.33203125 l 1
 600 133.33203125 l 1
 600 48.041015625 668.876953125 -20.83203125 754.16796875 -20.83203125 c 2
 1387.5 -20.83203125 l 1
 1387.5 -45.83203125 l 1
 754.16796875 -45.83203125 l 2
 688.541015625 -45.83203125 631.209960938 -10.2685546875 600 42.49609375 c 1
 600 -200 l 1
 575 -200 l 1
 575 37.5 l 1
 279.16796875 37.5 l 2
 213.541015625 37.5 156.209960938 73.064453125 125 125.830078125 c 1
 125 -116.66796875 l 1
 100 -116.66796875 l 1
 100 216.66796875 l 1
EndSplineSet
Ligature2: "ligsubtable" U12290 U120f5
EndChar

StartChar: U1214b
Encoding: 278 74059 22
Width: 2212
VWidth: 100
Flags: W
HStem: -159.116 24.8612<887.333 1009.49> -45.832 25<220.617 799.01 807.754 862.5> 287.5 25<220.617 799.002 807.658 862.5> 620.832 25<1779.17 1934.91 1958.88 2021.66 2052.43 2112.5> 787.5 25<1445.83 1688.33 1719.1 2021.66 2051.88 2112.5>
VStem: 100 25<-200 42.4961 73.2617 375.83 406.597 466.668> 1600 25<-200 114.096 152.566 691.883> 1933.33 25<-200 525.218 645.832 691.723>
LayerCount: 2
Fore
SplineSet
1445.83203125 812.5 m 1
 1779.16796875 812.5 l 1
 2112.5 812.5 l 1
 2112.5 787.5 l 1
 2031.421875 787.5 1965.22363281 725.247070312 1958.87695312 645.83203125 c 1
 2112.5 645.83203125 l 1
 2112.5 620.83203125 l 1
 2027.20898438 620.83203125 1958.33203125 551.958984375 1958.33203125 466.66796875 c 2
 1958.33203125 -200 l 1
 1933.33203125 -200 l 1
 1933.33203125 466.66796875 l 2
 1933.33203125 532.294921875 1968.89746094 589.623046875 2021.66210938 620.83203125 c 1
 1779.16796875 620.83203125 l 1
 1779.16796875 645.83203125 l 1
 1933.76953125 645.83203125 l 1
 1937.96289062 706.193359375 1972.27636719 758.2890625 2021.66210938 787.5 c 1
 1779.16796875 787.5 l 2
 1693.87695312 787.5 1625 718.623046875 1625 633.33203125 c 2
 1625 -200 l 1
 1600 -200 l 1
 1600 114.095703125 l 1
 1019.87695312 -143.73046875 l 1
 1009.72460938 -120.884765625 l 1
 1581.72265625 133.33203125 l 1
 1162.02929688 319.8671875 l 2
 1102.05566406 346.520507812 1064.11035156 402.302734375 1057.02148438 463.1953125 c 1
 958.53515625 241.599609375 l 1
 935.689453125 251.751953125 l 1
 998.48046875 393.029296875 l 1
 945.0234375 421.375 911.354492188 473.888671875 904.71875 530.8828125 c 1
 807.658203125 312.5 l 1
 862.5 312.5 l 1
 862.5 287.5 l 1
 279.16796875 287.5 l 2
 213.541015625 287.5 156.209960938 323.064453125 125 375.830078125 c 1
 125 133.33203125 l 2
 125 48.041015625 193.876953125 -20.83203125 279.16796875 -20.83203125 c 2
 862.5 -20.83203125 l 1
 862.5 -45.83203125 l 1
 807.75390625 -45.83203125 l 1
 833.969307592 -101.400620672 889.163989098 -134.254894546 947.074715965 -134.254894546 c 0
 968.016167086 -134.254894546 989.312785146 -129.958665905 1009.72265625 -120.88671875 c 1
 1019.87695312 -143.73046875 l 1
 996.369181813 -154.179217765 971.807322521 -159.116099471 947.621310801 -159.116099471 c 0
 910.105354753 -159.116099471 873.493704404 -147.23774613 843.123046875 -125.626953125 c 1
 941.61328125 -347.224609375 l 1
 918.76953125 -357.376953125 l 1
 783.38671875 -52.775390625 l 1
 799.009765625 -45.83203125 l 1
 279.16796875 -45.83203125 l 2
 213.541015625 -45.83203125 156.209960938 -10.2685546875 125 42.49609375 c 1
 125 -200 l 1
 100 -200 l 1
 100 133.33203125 l 1
 100 466.66796875 l 1
 125 466.66796875 l 1
 125 381.376953125 193.876953125 312.5 279.16796875 312.5 c 2
 799.001953125 312.5 l 1
 783.38671875 319.439453125 l 1
 918.76953125 624.044921875 l 1
 941.61328125 613.892578125 l 1
 941.61328125 613.890625 l 1
 932.541727257 593.481377081 928.245750971 572.185336729 928.245750971 551.244364404 c 0
 928.245750971 496.165222039 957.965321434 443.542440831 1008.67773438 415.97265625 c 1
 1071.0703125 556.353515625 l 1
 1093.91601562 546.201171875 l 1
 1084.84190407 525.783525489 1080.54410318 504.475824636 1080.54410318 483.522833763 c 0
 1080.54410318 424.491820554 1114.65669511 368.276218558 1172.18164062 342.7109375 c 2
 1600 152.56640625 l 1
 1600 633.33203125 l 2
 1600 698.958984375 1635.56445312 756.290039062 1688.33007812 787.5 c 1
 1445.83203125 787.5 l 1
 1445.83203125 812.5 l 1
561.9921875 808.837890625 m 1
 579.669921875 791.162109375 l 1
 421.845703125 633.33203125 l 1
 579.669921875 475.505859375 l 1
 561.9921875 457.830078125 l 1
 386.490234375 633.33203125 l 1
 561.9921875 808.837890625 l 1
EndSplineSet
EndChar

StartChar: U1227c
Encoding: 279 74364 23
Width: 1712
VWidth: 100
Flags: W
HStem: 287.5 25<220.617 582.324 642.678 670.945 694.504 818.023 843.779 1612.5> 620.832 25<220.617 1612.5>
VStem: 100 25<133.332 375.83 406.597 709.162 739.929 800> 669.701 24.8027<238.885 287.5 312.5 343.439> 787.127 24.7021<122.564 226.113>
LayerCount: 2
Fore
SplineSet
100 800 m 1
 125 800 l 1
 125 714.708984375 193.876953125 645.83203125 279.16796875 645.83203125 c 2
 1612.5 645.83203125 l 1
 1612.5 620.83203125 l 1
 279.16796875 620.83203125 l 2
 213.541015625 620.83203125 156.209960938 656.396484375 125 709.162109375 c 1
 125 466.66796875 l 2
 125 381.376953125 193.876953125 312.5 279.16796875 312.5 c 2
 607.322265625 312.5 l 1
 721.513671875 426.69140625 l 1
 739.19140625 409.013671875 l 1
 712.2265625 382.048828125 697.356445312 347.666015625 694.50390625 312.5 c 1
 1612.5 312.5 l 1
 1612.5 287.5 l 1
 853.55859375 287.5 l 1
 825.74183433 257.83938189 811.82857063 219.967240266 811.82857063 182.097641 c 0
 811.82857063 142.688127472 826.896367106 103.281367269 857.04296875 73.134765625 c 2
 1121.33984375 -191.16015625 l 1
 1103.66210938 -208.837890625 l 1
 839.365234375 55.45703125 l 2
 804.485382297 90.3368833282 787.126517614 136.107772345 787.126517614 181.90581803 c 0
 787.126517614 197.041525088 789.02249369 212.180198261 792.80859375 226.9296875 c 1
 621.337890625 55.458984375 l 1
 603.66015625 73.13671875 l 1
 712.982421875 182.458984375 l 1
 686.654296875 212.71875 672.260742188 249.768554688 669.701171875 287.5 c 1
 617.677734375 287.5 l 1
 503.486328125 173.310546875 l 1
 485.810546875 190.986328125 l 1
 582.32421875 287.5 l 1
 279.16796875 287.5 l 2
 213.541015625 287.5 156.209960938 323.064453125 125 375.830078125 c 1
 125 133.33203125 l 1
 100 133.33203125 l 1
 100 466.66796875 l 1
 100 800 l 1
674.9609375 344.783203125 m 1
 642.677734375 312.5 l 1
 669.74609375 312.5 l 1
 670.51171875 323.364257812 672.23828125 334.17578125 674.9609375 344.783203125 c 1
694.50390625 287.5 m 1
 697.041015625 256.220703125 709.122070312 225.583007812 730.736328125 200.212890625 c 1
 818.0234375 287.5 l 1
 694.50390625 287.5 l 1
EndSplineSet
EndChar

StartChar: U12252
Encoding: 280 74322 24
Width: 1712
VWidth: 100
Flags: W
HStem: 37.5 25<220.617 695.832 1137.28 1612.5> 537.5 25<220.617 695.832 1137.28 1612.5>
VStem: 100 25<-116.668 125.83 156.597 216.668 383.332 625.83 656.597 716.668> 1016.67 25<-116.668 -38.5078 -3.15234 125.83 156.597 216.668 383.332 603.152 656.597 716.668>
LayerCount: 2
Fore
SplineSet
100 716.66796875 m 1
 125 716.66796875 l 1
 125 631.376953125 193.876953125 562.5 279.16796875 562.5 c 2
 695.83203125 562.5 l 1
 695.83203125 537.5 l 1
 279.16796875 537.5 l 2
 213.541015625 537.5 156.209960938 573.064453125 125 625.830078125 c 1
 125 383.33203125 l 1
 100 383.33203125 l 1
 100 716.66796875 l 1
1016.66796875 716.66796875 m 1
 1041.66796875 716.66796875 l 1
 1041.66796875 631.376953125 1110.54101562 562.5 1195.83203125 562.5 c 2
 1612.5 562.5 l 1
 1612.5 537.5 l 1
 1195.83203125 537.5 l 2
 1130.20507812 537.5 1072.87695312 573.065429688 1041.66796875 625.830078125 c 1
 1041.66796875 383.33203125 l 1
 1016.66796875 383.33203125 l 1
 1016.66796875 603.15234375 l 1
 713.509765625 300 l 1
 1016.66796875 -3.15234375 l 1
 1016.66796875 216.66796875 l 1
 1041.66796875 216.66796875 l 1
 1041.66796875 131.376953125 1110.54101562 62.5 1195.83203125 62.5 c 2
 1612.5 62.5 l 1
 1612.5 37.5 l 1
 1195.83203125 37.5 l 2
 1130.20507812 37.5 1072.87695312 73.0654296875 1041.66796875 125.830078125 c 1
 1041.66796875 -116.66796875 l 1
 1016.66796875 -116.66796875 l 1
 1016.66796875 -38.5078125 l 1
 678.154296875 300 l 1
 1016.66796875 638.509765625 l 1
 1016.66796875 716.66796875 l 1
100 216.66796875 m 1
 125 216.66796875 l 1
 125 131.376953125 193.876953125 62.5 279.16796875 62.5 c 2
 695.83203125 62.5 l 1
 695.83203125 37.5 l 1
 279.16796875 37.5 l 2
 213.541015625 37.5 156.209960938 73.064453125 125 125.830078125 c 1
 125 -116.66796875 l 1
 100 -116.66796875 l 1
 100 216.66796875 l 1
EndSplineSet
EndChar

StartChar: U120f4
Encoding: 281 73972 25
Width: 2221
VWidth: 100
Flags: W
HStem: -146.5 24.7443<991.936 1110.84> 37.5 25<220.617 812.5> 537.5 25<220.617 812.5>
VStem: 100 25<-116.668 125.83 156.597 216.668 383.332 625.83 656.597 716.668> 1066.07 24.6696<779.714 876.601>
LayerCount: 2
Fore
SplineSet
1099.19921875 942.88671875 m 1
 1119.54296875 928.35546875 l 1
 1100.09883845 901.132613819 1090.74460351 869.806583849 1090.74460351 838.792873601 c 0
 1090.74460351 790.736440559 1113.20430024 743.429893133 1155.38671875 713.30078125 c 2
 1711.1484375 316.326171875 l 1
 2103.66210938 708.837890625 l 1
 2121.33789062 691.162109375 l 1
 1730.17578125 300 l 1
 2121.33789062 -91.162109375 l 1
 2103.66210938 -108.837890625 l 1
 1711.1484375 283.673828125 l 1
 1155.38671875 -113.30078125 l 2
 1123.96422945 -135.745006026 1087.72314421 -146.500112236 1051.79187718 -146.500112236 c 0
 1026.65704138 -146.500112236 1001.67381075 -141.237253115 978.59765625 -131.03125 c 1
 1119.54296875 -328.35546875 l 1
 1099.19921875 -342.88671875 l 1
 905.45703125 -71.64453125 l 1
 925.80078125 -57.11328125 l 1
 955.929935884 -99.2957596097 1003.23657481 -121.755820951 1051.29307816 -121.755820951 c 0
 1082.3067216 -121.755820951 1113.63267367 -112.40150184 1140.85546875 -92.95703125 c 2
 1690.99414062 300 l 1
 1140.85742188 692.95703125 l 2
 1091.98220885 727.867003918 1066.07498124 782.979282152 1066.07498124 838.894567964 c 0
 1066.07498124 844.073794671 1066.29725577 849.25991089 1066.74414062 854.4375 c 1
 925.80078125 657.11328125 l 1
 905.45703125 671.64453125 l 1
 1099.19921875 942.88671875 l 1
100 716.66796875 m 1
 125 716.66796875 l 1
 125 631.376953125 193.876953125 562.5 279.16796875 562.5 c 2
 812.5 562.5 l 1
 812.5 537.5 l 1
 279.16796875 537.5 l 2
 213.541015625 537.5 156.209960938 573.064453125 125 625.830078125 c 1
 125 383.33203125 l 1
 100 383.33203125 l 1
 100 716.66796875 l 1
1003.66210938 708.837890625 m 1
 1021.33789062 691.162109375 l 1
 630.17578125 300 l 1
 1021.33789062 -91.162109375 l 1
 1003.66210938 -108.837890625 l 1
 594.822265625 300 l 1
 1003.66210938 708.837890625 l 1
100 216.66796875 m 1
 125 216.66796875 l 1
 125 131.376953125 193.876953125 62.5 279.16796875 62.5 c 2
 812.5 62.5 l 1
 812.5 37.5 l 1
 279.16796875 37.5 l 2
 213.541015625 37.5 156.209960938 73.064453125 125 125.830078125 c 1
 125 -116.66796875 l 1
 100 -116.66796875 l 1
 100 216.66796875 l 1
EndSplineSet
EndChar

StartChar: U121b0
Encoding: 282 74160 26
Width: 1221
VWidth: 100
Flags: W
HStem: 287.5 25<220.617 482.33 517.686 1082.35>
VStem: 100 25<133.332 375.83 406.597 466.668>
LayerCount: 2
Fore
SplineSet
1103.66015625 808.837890625 m 1
 1121.33789062 791.162109375 l 1
 880.189453125 550.013671875 l 1
 1121.33789062 308.865234375 l 1
 1112.5 300.02734375 l 1
 1112.5 299.970703125 l 1
 1121.33789062 291.1328125 l 1
 880.189453125 49.98828125 l 1
 1121.33789062 -191.162109375 l 1
 1103.66015625 -208.83984375 l 1
 844.833984375 49.98828125 l 1
 1082.34765625 287.5 l 1
 517.685546875 287.5 l 1
 746.33203125 58.849609375 l 1
 728.654296875 41.171875 l 1
 482.330078125 287.5 l 1
 279.16796875 287.5 l 2
 213.541015625 287.5 156.209960938 323.064453125 125 375.830078125 c 1
 125 133.33203125 l 1
 100 133.33203125 l 1
 100 466.66796875 l 1
 125 466.66796875 l 1
 125 381.376953125 193.876953125 312.5 279.16796875 312.5 c 2
 482.330078125 312.5 l 1
 728.654296875 558.826171875 l 1
 746.33203125 541.150390625 l 1
 517.685546875 312.5 l 1
 1082.34765625 312.5 l 1
 844.833984375 550.01171875 l 1
 1103.66015625 808.837890625 l 1
EndSplineSet
EndChar

StartChar: U12123
Encoding: 283 74019 27
Width: 1721
VWidth: 100
Flags: W
HStem: 37.5 25<970.617 1440.65> 120.875 25<220.592 487.5> 454.125 25<220.592 487.5> 537.5 25<970.617 1440.65>
VStem: 100 25<-33.25 209.174 239.946 542.424 573.196 633.25> 850 25<-116.668 -80.1758 -44.8242 125.83 156.597 216.668 383.332 625.83 680.176 716.668>
LayerCount: 2
Fore
SplineSet
1603.66210938 725.505859375 m 1
 1621.33984375 707.830078125 l 1
 1463.50976562 550 l 1
 1621.33984375 392.169921875 l 1
 1603.66210938 374.4921875 l 1
 1440.65429688 537.5 l 1
 1029.16796875 537.5 l 2
 963.541015625 537.5 906.209960938 573.064453125 875 625.830078125 c 1
 875 383.33203125 l 1
 850 383.33203125 l 1
 850 644.82421875 l 1
 505.17578125 300 l 1
 850 -44.82421875 l 1
 850 216.66796875 l 1
 875 216.66796875 l 1
 875 131.376953125 943.876953125 62.5 1029.16796875 62.5 c 2
 1440.65429688 62.5 l 1
 1603.66210938 225.505859375 l 1
 1621.33984375 207.830078125 l 1
 1463.50976562 50 l 1
 1621.33984375 -107.830078125 l 1
 1603.66210938 -125.5078125 l 1
 1440.65429688 37.5 l 1
 1029.16796875 37.5 l 2
 963.541015625 37.5 906.209960938 73.064453125 875 125.830078125 c 1
 875 -116.66796875 l 1
 850 -116.66796875 l 1
 850 -80.17578125 l 1
 469.822265625 300 l 1
 850 680.17578125 l 1
 850 716.66796875 l 1
 875 716.66796875 l 1
 875 631.376953125 943.876953125 562.5 1029.16796875 562.5 c 2
 1440.65429688 562.5 l 1
 1603.66210938 725.505859375 l 1
100 633.25 m 1
 125 633.25 l 1
 125 547.982421875 193.857421875 479.125 279.125 479.125 c 2
 487.5 479.125 l 1
 487.5 454.125 l 1
 279.125 454.125 l 2
 213.517578125 454.125 156.204101562 489.676757812 125 542.423828125 c 1
 125 300 l 2
 125 214.732421875 193.857421875 145.875 279.125 145.875 c 2
 487.5 145.875 l 1
 487.5 120.875 l 1
 279.125 120.875 l 2
 213.518554688 120.875 156.204101562 156.427734375 125 209.173828125 c 1
 125 -33.25 l 1
 100 -33.25 l 1
 100 300 l 1
 100 633.25 l 1
EndSplineSet
EndChar

StartChar: U12258
Encoding: 284 74328 28
Width: 2212
VWidth: 100
Flags: W
HStem: -45.832 25<970.617 1933.33> 120.875 25<220.592 612.5> 212.5 25<1000.1 1174.47 1565.4 1727.35> 362.5 25<1000.1 1174.47 1565.4 1728.84> 437.5 25<1633.86 1773.34 1799.23 1845.83> 454.125 25<220.592 612.5> 620.832 25<970.617 1933.33> 787.5 25<1779.17 2021.66 2052.43 2112.5>
VStem: 100 25<-33.25 209.174 239.946 542.424 573.196 633.25> 850 25<-200 42.4961 80.2658 133.332 466.668 519.824 555.176 709.162 739.929 800> 950 25<150 238.936 262.541 388.936 412.541 450> 1382.76 24.7337<254.23 314.588> 1515.3 25<150 238.936 262.541 388.936 412.541 450> 1727.35 25<150 212.5 237.5 360.599> 1933.33 25<-200 -45.832 -20.832 620.832 645.832 691.909>
LayerCount: 2
Fore
SplineSet
1779.16796875 812.5 m 1xf3fe
 2112.5 812.5 l 1
 2112.5 787.5 l 1
 2027.20898438 787.5 1958.33203125 718.623046875 1958.33203125 633.33203125 c 2
 1958.33203125 -200 l 1
 1933.33203125 -200 l 1
 1933.33203125 -45.83203125 l 1
 1029.16796875 -45.83203125 l 2
 963.541015625 -45.83203125 906.209960938 -10.2685546875 875 42.49609375 c 1
 875 -200 l 1
 850 -200 l 1
 850 44.82421875 l 1
 594.822265625 300 l 1
 850 555.17578125 l 1
 850 800 l 1
 875 800 l 1
 875 714.708984375 943.876953125 645.83203125 1029.16796875 645.83203125 c 2
 1933.76953125 645.83203125 l 1
 1937.96289062 706.193359375 1972.27636719 758.2890625 2021.66210938 787.5 c 1
 1779.16796875 787.5 l 1
 1779.16796875 812.5 l 1xf3fe
875 709.162109375 m 1
 875 466.66796875 l 1
 850 466.66796875 l 1
 850 519.82421875 l 1
 630.17578125 300 l 1
 850 80.17578125 l 1
 850 133.33203125 l 1
 875 133.33203125 l 1
 875 48.041015625 943.876953125 -20.83203125 1029.16796875 -20.83203125 c 2
 1933.33203125 -20.83203125 l 1
 1933.33203125 620.83203125 l 1
 1029.16796875 620.83203125 l 2
 963.541015625 620.83203125 906.209960938 656.396484375 875 709.162109375 c 1
100 633.25 m 1
 125 633.25 l 1
 125 547.982421875 193.857421875 479.125 279.125 479.125 c 2
 612.5 479.125 l 1
 612.5 454.125 l 1
 279.125 454.125 l 2xf7fe
 213.517578125 454.125 156.204101562 489.676757812 125 542.423828125 c 1
 125 300 l 2
 125 214.732421875 193.857421875 145.875 279.125 145.875 c 2
 612.5 145.875 l 1
 612.5 120.875 l 1
 279.125 120.875 l 2
 213.518554688 120.875 156.204101562 156.427734375 125 209.173828125 c 1
 125 -33.25 l 1
 100 -33.25 l 1
 100 300 l 1
 100 633.25 l 1
1633.859375 462.5 m 1xfbfe
 1845.83203125 462.5 l 1
 1845.83203125 437.5 l 1
 1794.05273438 437.5 1752.34765625 395.791015625 1752.34765625 344.01171875 c 2
 1752.34765625 150 l 1
 1727.34765625 150 l 1
 1727.34765625 212.5 l 1
 1602.8046875 212.5 l 2
 1578.35253906 212.5 1556.21191406 222.659179688 1540.3046875 238.935546875 c 1
 1540.3046875 150 l 1
 1515.3046875 150 l 1
 1515.3046875 300 l 1
 1515.3046875 450 l 1
 1540.3046875 450 l 1
 1540.3046875 415.333007812 1568.13769531 387.5 1602.8046875 387.5 c 2
 1735.71484375 387.5 l 1
 1743.62011719 407.3359375 1756.71289062 424.573242188 1773.33789062 437.5 c 1
 1633.859375 437.5 l 1
 1633.859375 462.5 l 1xfbfe
1342.30273438 458.837890625 m 1
 1359.97851562 441.16015625 l 1
 1355.46191406 436.643554688 1353.20361328 430.821289062 1353.20361328 424.999023438 c 0
 1353.20361328 419.176757812 1355.46191406 413.354492188 1359.97851562 408.837890625 c 2
 1401.140625 367.677734375 l 1
 1417.30273438 383.83984375 l 1
 1434.98046875 366.162109375 l 1
 1416.65808106 347.839721681 1407.4967041 323.919847295 1407.4967041 299.999888127 c 0
 1407.4967041 276.080247682 1416.65783692 252.160522459 1434.98046875 233.837890625 c 1
 1417.30273438 216.162109375 l 1
 1394.22744853 239.237395221 1382.7629849 269.557034079 1382.7629849 299.892023126 c 0
 1382.7629849 304.89871748 1383.07528219 309.905829981 1383.69921875 314.880859375 c 1
 1284.97851562 216.162109375 l 1
 1267.30273438 233.837890625 l 1
 1283.46484375 250 l 1
 1242.30273438 291.162109375 l 2
 1236.43066406 297.034179688 1232.62988281 304.149414062 1230.46875 311.650390625 c 1
 1209.97851562 291.162109375 l 1
 1192.30273438 308.837890625 l 1
 1242.30273438 358.837890625 l 1
 1292.30273438 408.837890625 l 1
 1342.30273438 458.837890625 l 1
950 450 m 1
 975 450 l 1
 975 415.333007812 1002.83300781 387.5 1037.5 387.5 c 2
 1174.47265625 387.5 l 1
 1174.47265625 362.5 l 1
 1037.5 362.5 l 2
 1013.04785156 362.5 990.907226562 372.659179688 975 388.935546875 c 1
 975 300 l 2
 975 265.333007812 1002.83300781 237.5 1037.5 237.5 c 2
 1174.47265625 237.5 l 1
 1174.47265625 212.5 l 1
 1037.5 212.5 l 2
 1013.04785156 212.5 990.907226562 222.659179688 975 238.935546875 c 1
 975 150 l 1
 950 150 l 1
 950 300 l 1
 950 450 l 1
1330.46875 411.650390625 m 1
 1309.97851562 391.162109375 l 1
 1309.97851562 391.16015625 l 1
 1305.46191406 386.643554688 1303.20361328 380.821289062 1303.20361328 374.999023438 c 0
 1303.20361328 369.176757812 1305.46191406 363.354492188 1309.97851562 358.837890625 c 2
 1351.140625 317.677734375 l 1
 1383.46289062 350 l 1
 1342.30273438 391.162109375 l 2
 1336.43066406 397.034179688 1332.62988281 404.149414062 1330.46875 411.650390625 c 1
1540.3046875 388.935546875 m 1
 1540.3046875 300 l 2
 1540.3046875 265.333007812 1568.13769531 237.5 1602.8046875 237.5 c 2
 1727.34765625 237.5 l 1
 1727.34765625 344.01171875 l 2
 1727.34765625 350.305664062 1727.88867188 356.471679688 1728.84375 362.5 c 1
 1602.8046875 362.5 l 2
 1578.35253906 362.5 1556.21191406 372.659179688 1540.3046875 388.935546875 c 1
1280.46875 361.650390625 m 1
 1259.97851562 341.162109375 l 1
 1259.97851562 341.16015625 l 1
 1255.46191406 336.643554688 1253.20361328 330.821289062 1253.20361328 324.999023438 c 0
 1253.20361328 319.176757812 1255.46191406 313.354492188 1259.97851562 308.837890625 c 2
 1301.140625 267.677734375 l 1
 1333.46289062 300 l 1
 1292.30273438 341.162109375 l 2
 1286.43066406 347.034179688 1282.62988281 354.149414062 1280.46875 361.650390625 c 1
EndSplineSet
EndChar

StartChar: U12124
Encoding: 285 74020 29
Width: 2221
VWidth: 100
Flags: W
HStem: -45.832 25<1345.62 1940.65> 37.5 25<220.617 987.5> 537.5 25<220.617 987.5> 620.832 25<1345.62 1940.65>
VStem: 100 25<-116.668 125.83 156.597 216.668 383.332 625.83 656.597 716.668> 1225 25<-200 42.4961 80.2658 133.332 466.668 519.824 555.176 709.162 739.929 800>
LayerCount: 2
Fore
SplineSet
2103.66210938 808.837890625 m 1
 2121.33984375 791.162109375 l 1
 1963.50976562 633.33203125 l 1
 2121.33984375 475.5078125 l 1
 2103.66210938 457.828125 l 1
 1940.65429688 620.83203125 l 1
 1404.16796875 620.83203125 l 2
 1338.54101562 620.83203125 1281.20996094 656.396484375 1250 709.162109375 c 1
 1250 466.66796875 l 1
 1225 466.66796875 l 1
 1225 519.82421875 l 1
 1005.17578125 300 l 1
 1225 80.17578125 l 1
 1225 133.33203125 l 1
 1250 133.33203125 l 1
 1250 48.041015625 1318.87695312 -20.83203125 1404.16796875 -20.83203125 c 2
 1940.65429688 -20.83203125 l 1
 2103.66210938 142.171875 l 1
 2121.33984375 124.4921875 l 1
 1963.50976562 -33.33203125 l 1
 2121.33984375 -191.16015625 l 1
 2103.66210938 -208.837890625 l 1
 1940.65429688 -45.83203125 l 1
 1404.16796875 -45.83203125 l 2
 1338.54101562 -45.83203125 1281.20996094 -10.2685546875 1250 42.49609375 c 1
 1250 -200 l 1
 1225 -200 l 1
 1225 44.82421875 l 1
 969.822265625 300 l 1
 1225 555.17578125 l 1
 1225 800 l 1
 1250 800 l 1
 1250 714.708984375 1318.87695312 645.83203125 1404.16796875 645.83203125 c 2
 1940.65429688 645.83203125 l 1
 2103.66210938 808.837890625 l 1
100 716.66796875 m 1
 125 716.66796875 l 1
 125 631.376953125 193.876953125 562.5 279.16796875 562.5 c 2
 987.5 562.5 l 1
 987.5 537.5 l 1
 279.16796875 537.5 l 2
 213.541015625 537.5 156.209960938 573.064453125 125 625.830078125 c 1
 125 383.33203125 l 1
 100 383.33203125 l 1
 100 716.66796875 l 1
1489.078125 475.505859375 m 1
 1506.75585938 457.830078125 l 1
 1432.25976562 383.333984375 l 1
 1506.75585938 308.837890625 l 1
 1497.91796875 300 l 1
 1506.75585938 291.16015625 l 1
 1432.25976562 216.666015625 l 1
 1506.75585938 142.169921875 l 1
 1489.078125 124.494140625 l 1
 1396.90429688 216.66796875 l 1
 1480.24023438 300 l 1
 1396.90429688 383.33203125 l 1
 1489.078125 475.505859375 l 1
1926.578125 475.505859375 m 1
 1944.25585938 457.830078125 l 1
 1869.75976562 383.333984375 l 1
 1944.25585938 308.837890625 l 1
 1935.41796875 300 l 1
 1944.25585938 291.16015625 l 1
 1869.75976562 216.666015625 l 1
 1944.25585938 142.169921875 l 1
 1926.578125 124.494140625 l 1
 1834.40429688 216.66796875 l 1
 1917.74023438 300 l 1
 1834.40429688 383.33203125 l 1
 1926.578125 475.505859375 l 1
100 216.66796875 m 1
 125 216.66796875 l 1
 125 131.376953125 193.876953125 62.5 279.16796875 62.5 c 2
 987.5 62.5 l 1
 987.5 37.5 l 1
 279.16796875 37.5 l 2
 213.541015625 37.5 156.209960938 73.064453125 125 125.830078125 c 1
 125 -116.66796875 l 1
 100 -116.66796875 l 1
 100 216.66796875 l 1
EndSplineSet
EndChar

StartChar: LIG_NI2NDAxCE_A_AN_DMS
Encoding: 286 -1 30
Width: 3212
VWidth: 100
Flags: W
HStem: -45.832 25<942.839 1556.95> 120.875 25<220.592 822.223> 287.5 25<2331.89 2377.78 2498.39 2933.33> 454.125 25<220.592 822.223> 620.832 25<942.839 1556.95 1890.28 2046.02 2069.99 2132.77 2163.54 2223.61> 787.5 25<1556.95 1799.44 1830.21 2132.77 2162.99 2223.61 2779.17 3021.66 3052.43 3112.5>
VStem: 100 25<-33.25 209.174 239.946 542.424 573.196 633.25> 822.223 25<-200 42.4941 73.2617 120.875 479.125 709.162 739.929 800> 1711.11 25<-200 691.883> 2044.45 25<-200 525.218 645.832 691.723> 2211.11 25<133.332 375.83 406.051 466.668> 2377.78 25<133.332 289.073 313.045 375.83 406.597 466.668> 2933.33 25<-200 287.5 312.5 691.883>
LayerCount: 2
Fore
SplineSet
1556.9453125 812.5 m 1
 1890.27734375 812.5 l 1
 2223.609375 812.5 l 1
 2223.609375 787.5 l 1
 2142.53125 787.5 2076.33691406 725.247070312 2069.99023438 645.83203125 c 1
 2223.609375 645.83203125 l 1
 2223.609375 620.83203125 l 1
 2138.31835938 620.83203125 2069.4453125 551.958984375 2069.4453125 466.66796875 c 2
 2069.4453125 -200 l 1
 2044.4453125 -200 l 1
 2044.4453125 466.66796875 l 2
 2044.4453125 532.294921875 2080.00976562 589.623046875 2132.7734375 620.83203125 c 1
 1890.27734375 620.83203125 l 1
 1890.27734375 645.83203125 l 1
 2044.8828125 645.83203125 l 1
 2049.07617188 706.193359375 2083.38867188 758.288085938 2132.7734375 787.5 c 1
 1890.27734375 787.5 l 2
 1804.98632812 787.5 1736.109375 718.623046875 1736.109375 633.33203125 c 2
 1736.109375 -200 l 1
 1711.109375 -200 l 1
 1711.109375 633.33203125 l 2
 1711.109375 698.958984375 1746.67382812 756.290039062 1799.43945312 787.5 c 1
 1556.9453125 787.5 l 1
 1556.9453125 812.5 l 1
2779.16796875 812.5 m 1
 3112.5 812.5 l 1
 3112.5 787.5 l 1
 3027.20898438 787.5 2958.33203125 718.623046875 2958.33203125 633.33203125 c 2
 2958.33203125 -200 l 1
 2933.33203125 -200 l 1
 2933.33203125 287.5 l 1
 2556.9453125 287.5 l 2
 2491.31835938 287.5 2433.98730469 323.064453125 2402.77734375 375.830078125 c 1
 2402.77734375 133.33203125 l 1
 2377.77734375 133.33203125 l 1
 2377.77734375 287.9375 l 1
 2317.41601562 292.130859375 2265.3203125 326.444335938 2236.109375 375.830078125 c 1
 2236.109375 133.33203125 l 1
 2211.109375 133.33203125 l 1
 2211.109375 466.66796875 l 1
 2236.109375 466.66796875 l 1
 2236.109375 385.58984375 2298.36328125 319.391601562 2377.77734375 313.044921875 c 1
 2377.77734375 466.66796875 l 1
 2402.77734375 466.66796875 l 1
 2402.77734375 381.376953125 2471.65429688 312.5 2556.9453125 312.5 c 2
 2933.33203125 312.5 l 1
 2933.33203125 633.33203125 l 2
 2933.33203125 698.958984375 2968.89746094 756.290039062 3021.66210938 787.5 c 1
 2779.16796875 787.5 l 1
 2779.16796875 812.5 l 1
822.22265625 800 m 1
 847.22265625 800 l 1
 847.22265625 714.708984375 916.095703125 645.83203125 1001.390625 645.83203125 c 2
 1556.9453125 645.83203125 l 1
 1556.9453125 620.83203125 l 1
 1001.390625 620.83203125 l 2
 935.76171875 620.83203125 878.431640625 656.397460938 847.22265625 709.162109375 c 1
 847.22265625 466.66796875 l 1
 834.72265625 466.66796875 l 1
 834.72265625 454.125 l 1
 279.125 454.125 l 2
 213.517578125 454.125 156.204101562 489.676757812 125 542.423828125 c 1
 125 300 l 2
 125 214.732421875 193.857421875 145.875 279.125 145.875 c 2
 834.72265625 145.875 l 1
 834.72265625 133.33203125 l 1
 847.22265625 133.33203125 l 1
 847.22265625 48.041015625 916.095703125 -20.83203125 1001.390625 -20.83203125 c 2
 1556.9453125 -20.83203125 l 1
 1556.9453125 -45.83203125 l 1
 1001.390625 -45.83203125 l 2
 935.76171875 -45.83203125 878.431640625 -10.26953125 847.22265625 42.494140625 c 1
 847.22265625 -200 l 1
 822.22265625 -200 l 1
 822.22265625 120.875 l 1
 279.125 120.875 l 2
 213.518554688 120.875 156.204101562 156.427734375 125 209.173828125 c 1
 125 -33.25 l 1
 100 -33.25 l 1
 100 300 l 1
 100 633.25 l 1
 125 633.25 l 1
 125 547.982421875 193.857421875 479.125 279.125 479.125 c 2
 822.22265625 479.125 l 1
 822.22265625 800 l 1
1029.58789062 475.505859375 m 1
 1047.265625 457.830078125 l 1
 889.435546875 300 l 1
 1047.265625 142.169921875 l 1
 1029.58789062 124.4921875 l 1
 854.080078125 300 l 1
 1029.58789062 475.505859375 l 1
1228.66015625 475.505859375 m 1
 1246.33984375 457.830078125 l 1
 1171.84570312 383.33203125 l 1
 1246.33789062 308.837890625 l 1
 1237.5 300 l 1
 1246.33789062 291.162109375 l 1
 1171.84570312 216.66796875 l 1
 1246.33984375 142.169921875 l 1
 1228.66015625 124.494140625 l 1
 1136.49023438 216.66796875 l 1
 1219.82226562 300 l 1
 1136.49023438 383.33203125 l 1
 1228.66015625 475.505859375 l 1
1469.40429688 475.505859375 m 1
 1487.08007812 457.830078125 l 1
 1412.58398438 383.333984375 l 1
 1487.08007812 308.837890625 l 1
 1478.2421875 300 l 1
 1487.08007812 291.16015625 l 1
 1412.58398438 216.666015625 l 1
 1487.08007812 142.169921875 l 1
 1469.40429688 124.494140625 l 1
 1377.22851562 216.66796875 l 1
 1460.56445312 300 l 1
 1377.22851562 383.33203125 l 1
 1469.40429688 475.505859375 l 1
EndSplineSet
Ligature2: "ligsubtable" U1225a U12000 U1202d
EndChar

StartChar: U1232b
Encoding: 287 74539 31
Width: 2212
VWidth: 100
Flags: W
HStem: -45.832 25<220.617 1016.67 1137.28 1475 1500.54 1933.33> 120.832 25<1320.83 1563.33 1593.55 1654.17> 287.5 25<220.617 1016.67 1137.28 1933.33> 787.5 25<1779.17 2021.66 2052.43 2112.5>
VStem: 100 25<-200 42.4961 73.2617 375.83 406.597 466.668> 1016.67 25<-200 -45.832 -20.832 42.4941 73.2617 287.5 312.5 375.83 406.597 466.668> 1475 25<-200 -45.832 -20.832 25.0585> 1933.33 25<-200 -45.832 -20.832 287.5 312.5 691.883>
LayerCount: 2
Fore
SplineSet
1779.16796875 812.5 m 1
 2112.5 812.5 l 1
 2112.5 787.5 l 1
 2027.20898438 787.5 1958.33203125 718.623046875 1958.33203125 633.33203125 c 2
 1958.33203125 -200 l 1
 1933.33203125 -200 l 1
 1933.33203125 -45.83203125 l 1
 1500 -45.83203125 l 1
 1500 -200 l 1
 1475 -200 l 1
 1475 -45.83203125 l 1
 1195.83203125 -45.83203125 l 2
 1130.20605469 -45.83203125 1072.87695312 -10.26953125 1041.66796875 42.494140625 c 1
 1041.66796875 -200 l 1
 1016.66796875 -200 l 1
 1016.66796875 -45.83203125 l 1
 279.16796875 -45.83203125 l 2
 213.541015625 -45.83203125 156.209960938 -10.2685546875 125 42.49609375 c 1
 125 -200 l 1
 100 -200 l 1
 100 133.33203125 l 1
 100 466.66796875 l 1
 125 466.66796875 l 1
 125 381.376953125 193.876953125 312.5 279.16796875 312.5 c 2
 1016.66796875 312.5 l 1
 1016.66796875 466.66796875 l 1
 1041.66796875 466.66796875 l 1
 1041.66796875 381.376953125 1110.54101562 312.5 1195.83203125 312.5 c 2
 1933.33203125 312.5 l 1
 1933.33203125 633.33203125 l 2
 1933.33203125 698.958984375 1968.89746094 756.290039062 2021.66210938 787.5 c 1
 1779.16796875 787.5 l 1
 1779.16796875 812.5 l 1
645.330078125 808.837890625 m 1
 663.005859375 791.162109375 l 1
 505.177734375 633.333984375 l 1
 663.005859375 475.5078125 l 1
 645.330078125 457.828125 l 1
 469.822265625 633.33203125 l 1
 645.330078125 808.837890625 l 1
125 375.830078125 m 1
 125 133.33203125 l 2
 125 48.041015625 193.876953125 -20.83203125 279.16796875 -20.83203125 c 2
 1016.66796875 -20.83203125 l 1
 1016.66796875 133.33203125 l 1
 1016.66796875 287.5 l 1
 279.16796875 287.5 l 2
 213.541015625 287.5 156.209960938 323.064453125 125 375.830078125 c 1
1041.66796875 375.830078125 m 1
 1041.66796875 133.33203125 l 2
 1041.66796875 48.041015625 1110.54101562 -20.83203125 1195.83203125 -20.83203125 c 2
 1475.4375 -20.83203125 l 1
 1479.63085938 39.5283203125 1513.94433594 91.6220703125 1563.33007812 120.83203125 c 1
 1320.83203125 120.83203125 l 1
 1320.83203125 145.83203125 l 1
 1654.16796875 145.83203125 l 1
 1654.16796875 120.83203125 l 1
 1573.08984375 120.83203125 1506.89160156 58.58203125 1500.54492188 -20.83203125 c 1
 1933.33203125 -20.83203125 l 1
 1933.33203125 287.5 l 1
 1195.83203125 287.5 l 2
 1130.20507812 287.5 1072.87695312 323.065429688 1041.66796875 375.830078125 c 1
EndSplineSet
EndChar

StartChar: U12308
Encoding: 288 74504 32
Width: 2212
VWidth: 100
Flags: W
HStem: -87.5 25<1186.22 2112.5> -45.832 25<220.617 1100> 162.5 25<1519.55 2112.5> 287.5 25<220.617 1112.5> 412.5 25<1519.55 2112.5> 662.5 25<1519.55 2112.5>
VStem: 100 25<-200 42.4961 73.2617 375.83 406.597 466.668> 1100 25<-200 -45.832 -1.28064 50> 1433.33 25<50 221.211 248.719 471.211 498.719 721.211 748.719 800>
LayerCount: 2
Fore
SplineSet
686.9921875 808.837890625 m 1
 704.669921875 791.162109375 l 1
 546.845703125 633.33203125 l 1
 704.669921875 475.505859375 l 1
 686.9921875 457.830078125 l 1
 511.490234375 633.33203125 l 1
 686.9921875 808.837890625 l 1
1433.33203125 800 m 1
 1458.33203125 800 l 1
 1458.33203125 737.720703125 1508.55273438 687.5 1570.83203125 687.5 c 2
 2112.5 687.5 l 1
 2112.5 662.5 l 1
 1570.83203125 662.5 l 2
 1524.34667969 662.5 1483.234375 685.772460938 1458.33203125 721.2109375 c 1
 1458.33203125 550 l 2
 1458.33203125 487.720703125 1508.55273438 437.5 1570.83203125 437.5 c 2
 2112.5 437.5 l 1
 2112.5 412.5 l 1
 1570.83203125 412.5 l 2
 1524.34667969 412.5 1483.234375 435.772460938 1458.33203125 471.2109375 c 1
 1458.33203125 300 l 2
 1458.33203125 237.720703125 1508.55273438 187.5 1570.83203125 187.5 c 2
 2112.5 187.5 l 1
 2112.5 162.5 l 1
 1570.83203125 162.5 l 2
 1524.34667969 162.5 1483.234375 185.772460938 1458.33203125 221.2109375 c 1
 1458.33203125 50 l 1
 1433.33203125 50 l 1
 1433.33203125 300 l 1
 1433.33203125 550 l 1
 1433.33203125 800 l 1
100 466.66796875 m 1
 125 466.66796875 l 1
 125 381.376953125 193.876953125 312.5 279.16796875 312.5 c 2
 1112.5 312.5 l 1
 1112.5 287.5 l 1
 279.16796875 287.5 l 2
 213.541015625 287.5 156.209960938 323.064453125 125 375.830078125 c 1
 125 133.33203125 l 2
 125 48.041015625 193.876953125 -20.83203125 279.16796875 -20.83203125 c 2
 1100 -20.83203125 l 1
 1100 50 l 1
 1125 50 l 1
 1125 -12.279296875 1175.22070312 -62.5 1237.5 -62.5 c 2
 2112.5 -62.5 l 1
 2112.5 -87.5 l 1
 1237.5 -87.5 l 2
 1191.01464844 -87.5 1149.90234375 -64.2275390625 1125 -28.7890625 c 1
 1125 -200 l 1
 1100 -200 l 1
 1100 -45.83203125 l 1
 279.16796875 -45.83203125 l 2
 213.541015625 -45.83203125 156.209960938 -10.2685546875 125 42.49609375 c 1
 125 -200 l 1
 100 -200 l 1
 100 133.33203125 l 1
 100 466.66796875 l 1
EndSplineSet
EndChar

StartChar: U12095
Encoding: 289 73877 33
Width: 1712
VWidth: 100
Flags: W
HStem: -87.5 25<852.887 1433.33> -45.832 25<220.617 766.668> 162.5 25<852.887 1315.65> 287.5 25<220.617 741.668> 412.5 25<852.887 1315.65> 620.832 25<1279.17 1435.06 1458.88 1521.66 1552.43 1612.5> 662.5 25<852.887 1435.73> 787.5 25<1279.17 1521.66 1551.88 1612.5>
VStem: 100 25<-200 42.4961 73.2617 375.83 406.597 466.668> 362.18 24.6672<627.01 726.407> 766.668 25<-200 -45.832 -1.28064 221.211 248.719 287.5 325 471.211 498.719 721.211 748.719 800> 1433.33 25<-200 -87.5 -62.5 44.8242 80.1777 269.822 330.178 526.738 645.832 660.51>
LayerCount: 2
Fore
SplineSet
1279.16796875 812.5 m 1
 1612.5 812.5 l 1
 1612.5 787.5 l 1
 1531.421875 787.5 1465.22363281 725.247070312 1458.87695312 645.83203125 c 1
 1612.5 645.83203125 l 1
 1612.5 620.83203125 l 1
 1527.20898438 620.83203125 1458.33203125 551.958984375 1458.33203125 466.66796875 c 2
 1458.33203125 -200 l 1
 1433.33203125 -200 l 1
 1433.33203125 -87.5 l 1
 904.16796875 -87.5 l 2
 857.68359375 -87.5 816.569335938 -64.2275390625 791.66796875 -28.7890625 c 1
 791.66796875 -200 l 1
 766.66796875 -200 l 1
 766.66796875 -45.83203125 l 1
 279.16796875 -45.83203125 l 2
 213.541015625 -45.83203125 156.209960938 -10.2685546875 125 42.49609375 c 1
 125 -200 l 1
 100 -200 l 1
 100 133.33203125 l 1
 100 466.66796875 l 1
 125 466.66796875 l 1
 125 381.376953125 193.876953125 312.5 279.16796875 312.5 c 2
 741.66796875 312.5 l 1
 433.59375 543.5546875 l 2
 386.750737556 578.685639878 362.179938704 632.503484763 362.179938704 686.977436882 c 0
 362.179938704 693.558244725 362.538530151 700.148627936 363.259765625 706.716796875 c 1
 217.76171875 512.71875 l 1
 197.76171875 527.71875 l 1
 397.76171875 794.38671875 l 1
 417.76171875 779.38671875 l 1
 396.915706178 751.591637504 386.847107578 719.117495244 386.847107578 686.929630465 c 0
 386.847107578 640.102632291 408.156807188 593.881526491 448.59375 563.5546875 c 2
 766.66796875 325 l 1
 766.66796875 550 l 1
 766.66796875 800 l 1
 791.66796875 800 l 1
 791.66796875 737.720703125 841.888671875 687.5 904.16796875 687.5 c 2
 1441.74609375 687.5 l 1
 1455.2421875 729.788085938 1484.08203125 765.271484375 1521.66210938 787.5 c 1
 1279.16796875 787.5 l 1
 1279.16796875 812.5 l 1
791.66796875 721.2109375 m 1
 791.66796875 550 l 2
 791.66796875 487.720703125 841.888671875 437.5 904.16796875 437.5 c 2
 1315.65429688 437.5 l 1
 1436.99414062 558.837890625 l 1
 1451.29101562 544.54296875 l 1
 1466.76855469 576.330078125 1491.35253906 602.904296875 1521.66210938 620.83203125 c 1
 1279.16796875 620.83203125 l 1
 1279.16796875 645.83203125 l 1
 1433.76953125 645.83203125 l 1
 1434.16113281 651.46484375 1434.82324219 657.0234375 1435.7265625 662.5 c 1
 904.16796875 662.5 l 2
 857.68359375 662.5 816.569335938 685.772460938 791.66796875 721.2109375 c 1
1445.875 532.365234375 m 1
 1338.5078125 425 l 1
 1433.33203125 330.177734375 l 1
 1433.33203125 466.66796875 l 2
 1433.33203125 489.870117188 1437.79589844 512.025390625 1445.875 532.365234375 c 1
791.66796875 471.2109375 m 1
 791.66796875 300 l 2
 791.66796875 237.720703125 841.888671875 187.5 904.16796875 187.5 c 2
 1315.65429688 187.5 l 1
 1428.15625 300 l 1
 1315.65429688 412.5 l 1
 904.16796875 412.5 l 2
 857.68359375 412.5 816.569335938 435.772460938 791.66796875 471.2109375 c 1
125 375.830078125 m 1
 125 133.33203125 l 2
 125 48.041015625 193.876953125 -20.83203125 279.16796875 -20.83203125 c 2
 766.66796875 -20.83203125 l 1
 766.66796875 50 l 1
 766.66796875 287.5 l 1
 279.16796875 287.5 l 2
 213.541015625 287.5 156.209960938 323.064453125 125 375.830078125 c 1
1433.33203125 269.822265625 m 1
 1338.5078125 175 l 1
 1433.33203125 80.177734375 l 1
 1433.33203125 269.822265625 l 1
791.66796875 221.2109375 m 1
 791.66796875 50 l 2
 791.66796875 -12.279296875 841.888671875 -62.5 904.16796875 -62.5 c 2
 1433.33203125 -62.5 l 1
 1433.33203125 44.82421875 l 1
 1315.65429688 162.5 l 1
 904.16796875 162.5 l 2
 857.68359375 162.5 816.569335938 185.772460938 791.66796875 221.2109375 c 1
EndSplineSet
EndChar

StartChar: U121f8
Encoding: 290 74232 34
Width: 2221
VWidth: 100
Flags: W
HStem: -45.832 25<1095.62 1862.5> 120.875 25<220.592 975> 454.125 25<220.592 987.5>
VStem: 100 25<-33.25 209.174 239.946 542.424 573.196 633.25> 975 25<-200 42.4961 73.2617 120.875> 1167.43 24.7569<483.853 524.595> 1278.54 24.7558<594.962 635.707> 1378.19 24.716<334.278 403.454> 1389.65 24.7554<706.076 746.818> 1544.86 24.7153<500.946 570.119>
LayerCount: 2
Fore
SplineSet
1416.16210938 808.83984375 m 1xff40
 1433.83789062 791.162109375 l 1
 1420.88513184 778.208862302 1414.40856933 761.326341952 1414.40856933 744.444346926 c 0xfec0
 1414.40856933 727.562670096 1420.8848877 710.681518571 1433.83789062 697.73046875 c 1
 1425 688.890625 l 1
 1433.83984375 697.728515625 l 1
 1536.11132812 595.453125 l 1
 1582.828125 642.169921875 l 1
 1600.50585938 624.4921875 l 1
 1579.88244629 603.868774416 1569.57092285 576.934400885 1569.57092285 550.000112068 c 0
 1569.57092285 523.065504398 1579.88269043 496.130981444 1600.50585938 475.5078125 c 1
 1582.828125 457.830078125 l 1
 1557.46048433 483.197718793 1544.8555982 516.518269938 1544.8555982 549.856620562 c 0
 1544.8555982 556.745348581 1545.39377973 563.634836571 1546.46875 570.455078125 c 1
 1433.83789062 457.828125 l 2
 1413.21484375 437.205078125 1402.90332031 410.269042969 1402.90332031 383.333007812 c 0
 1402.90332031 356.396972656 1413.21484375 329.4609375 1433.83789062 308.837890625 c 2
 1517.16992188 225.5078125 l 1
 1499.4921875 207.830078125 l 1
 1416.16015625 291.162109375 l 2
 1390.79284375 316.530231193 1378.18728486 349.851057723 1378.18728486 383.190341775 c 0
 1378.18728486 390.079783089 1378.72557643 396.97001259 1379.80078125 403.791015625 c 1
 1267.16992188 291.162109375 l 1
 1249.49414062 308.837890625 l 1
 1296.21289062 355.556640625 l 1
 1193.93945312 457.828125 l 1
 1193.93945312 457.830078125 l 1
 1176.2151148 475.553474769 1167.42868625 498.872259002 1167.42868625 522.197386618 c 0
 1167.42868625 523.061364554 1167.44074131 523.925351194 1167.46484375 524.7890625 c 1
 1100.50585938 457.830078125 l 1
 1082.83007812 475.505859375 l 1
 1193.9375 586.615234375 l 1
 1193.93945312 586.615234375 l 1
 1211.61523438 568.9375 l 1
 1198.66210938 555.984375 1192.18554688 539.102539062 1192.18554688 522.221191406 c 0
 1192.18554688 505.33984375 1198.66210938 488.458984375 1211.61523438 475.5078125 c 1
 1199.83203125 463.720703125 l 1
 1211.6171875 475.505859375 l 1
 1313.88867188 373.234375 l 1
 1407.32226562 466.66796875 l 1
 1305.05273438 568.9375 l 2
 1287.3276495 586.662584877 1278.54390972 609.984750202 1278.54390972 633.309882841 c 0
 1278.54390972 634.174127256 1278.55596853 635.038375745 1278.58007812 635.90234375 c 1
 1211.6171875 568.939453125 l 1
 1193.93945312 586.615234375 l 1
 1305.05078125 697.728515625 l 1
 1305.05273438 697.728515625 l 1
 1416.16210938 808.83984375 l 1xff40
1582.828125 457.830078125 m 1
 1600.5078125 475.505859375 l 1
 1683.83789062 392.169921875 l 1
 1666.16015625 374.494140625 l 1
 1582.828125 457.830078125 l 1
1389.68945312 747.01171875 m 1
 1322.72851562 680.052734375 l 1
 1322.73046875 680.05078125 l 1
 1309.77648926 667.097778313 1303.29968262 650.215894347 1303.29968262 633.33385129 c 0
 1303.29968262 616.451490056 1309.7767334 599.568969724 1322.73046875 586.615234375 c 2
 1425 484.345703125 l 1
 1518.43359375 577.775390625 l 1
 1416.16015625 680.052734375 l 2
 1398.43689757 697.775051435 1389.65318363 721.092982377 1389.65318363 744.415877908 c 0
 1389.65318363 745.281246545 1389.66527612 746.146622017 1389.68945312 747.01171875 c 1
100 633.25 m 1
 125 633.25 l 1
 125 547.982421875 193.857421875 479.125 279.125 479.125 c 2
 987.5 479.125 l 1
 987.5 454.125 l 1
 279.125 454.125 l 2
 213.517578125 454.125 156.204101562 489.676757812 125 542.423828125 c 1
 125 300 l 2
 125 214.732421875 193.857421875 145.875 279.125 145.875 c 2
 987.5 145.875 l 1
 987.5 133.33203125 l 1
 1000 133.33203125 l 1
 1000 48.041015625 1068.87695312 -20.83203125 1154.16796875 -20.83203125 c 2
 1862.5 -20.83203125 l 1
 1862.5 -45.83203125 l 1
 1154.16796875 -45.83203125 l 2
 1088.54101562 -45.83203125 1031.20996094 -10.2685546875 1000 42.49609375 c 1
 1000 -200 l 1
 975 -200 l 1
 975 120.875 l 1
 279.125 120.875 l 2
 213.518554688 120.875 156.204101562 156.427734375 125 209.173828125 c 1
 125 -33.25 l 1
 100 -33.25 l 1
 100 300 l 1
 100 633.25 l 1
2103.66210938 558.837890625 m 1
 2121.33789062 541.162109375 l 1
 1880.17578125 300 l 1
 2121.33789062 58.837890625 l 1
 2103.66210938 41.162109375 l 1
 1844.82226562 300 l 1
 2103.66210938 558.837890625 l 1
EndSplineSet
EndChar

StartChar: U1207a
Encoding: 291 73850 35
Width: 1212
VWidth: 100
Flags: W
HStem: -45.832 25<220.777 266.668 387.282 933.332> 287.5 25<220.617 623.99 659.344 933.332> 787.5 25<779.168 1021.66 1052.43 1112.5>
VStem: 100 25<-200 42.4961 72.716 375.83 406.597 466.668> 266.668 25<-200 -44.2592 -20.2871 42.4941 73.2617 133.332> 933.332 25<-200 -45.832 -20.832 287.5 312.5 691.883>
LayerCount: 2
Fore
SplineSet
779.16796875 812.5 m 1
 1112.5 812.5 l 1
 1112.5 787.5 l 1
 1027.20898438 787.5 958.33203125 718.623046875 958.33203125 633.33203125 c 2
 958.33203125 -200 l 1
 933.33203125 -200 l 1
 933.33203125 -45.83203125 l 1
 445.83203125 -45.83203125 l 2
 380.206054688 -45.83203125 322.876953125 -10.26953125 291.66796875 42.494140625 c 1
 291.66796875 -200 l 1
 266.66796875 -200 l 1
 266.66796875 -45.39453125 l 1
 206.306640625 -41.2021484375 154.2109375 -6.8896484375 125 42.49609375 c 1
 125 -200 l 1
 100 -200 l 1
 100 133.33203125 l 1
 100 466.66796875 l 1
 125 466.66796875 l 1
 125 381.376953125 193.876953125 312.5 279.16796875 312.5 c 2
 623.990234375 312.5 l 1
 386.490234375 550 l 1
 645.328125 808.837890625 l 1
 663.005859375 791.162109375 l 1
 421.845703125 550 l 1
 659.34375 312.5 l 1
 933.33203125 312.5 l 1
 933.33203125 633.33203125 l 2
 933.33203125 698.958984375 968.896484375 756.290039062 1021.66210938 787.5 c 1
 779.16796875 787.5 l 1
 779.16796875 812.5 l 1
125 375.830078125 m 1
 125 133.33203125 l 2
 125 52.25390625 187.252929688 -13.9404296875 266.66796875 -20.287109375 c 1
 266.66796875 133.33203125 l 1
 291.66796875 133.33203125 l 1
 291.66796875 48.041015625 360.541015625 -20.83203125 445.83203125 -20.83203125 c 2
 933.33203125 -20.83203125 l 1
 933.33203125 287.5 l 1
 279.16796875 287.5 l 2
 213.541015625 287.5 156.209960938 323.064453125 125 375.830078125 c 1
EndSplineSet
EndChar

StartChar: U1207d
Encoding: 292 73853 36
Width: 1712
VWidth: 100
Flags: W
HStem: 148.609 25<220.777 266.668 387.282 1433.33> 426.391 25<220.617 1273.99> 620.832 25<1279.17 1434.91 1458.88 1521.66 1552.43 1612.5> 787.5 25<1279.17 1521.66 1551.88 1612.5>
VStem: 100 25<-5.55469 236.939 267.161 514.719 545.485 605.555> 266.668 25<-5.55469 150.182 174.154 236.939 267.706 327.777> 1433.33 25<-200 148.609 173.609 267.045 302.398 525.218 645.832 691.723>
LayerCount: 2
Fore
SplineSet
1279.16796875 812.5 m 1
 1612.5 812.5 l 1
 1612.5 787.5 l 1
 1531.421875 787.5 1465.22363281 725.247070312 1458.87695312 645.83203125 c 1
 1612.5 645.83203125 l 1
 1612.5 620.83203125 l 1
 1527.20898438 620.83203125 1458.33203125 551.958984375 1458.33203125 466.66796875 c 2
 1458.33203125 -200 l 1
 1433.33203125 -200 l 1
 1433.33203125 148.609375 l 1
 445.83203125 148.609375 l 2
 380.205078125 148.609375 322.876953125 184.174804688 291.66796875 236.939453125 c 1
 291.66796875 -5.5546875 l 1
 266.66796875 -5.5546875 l 1
 266.66796875 149.046875 l 1
 206.306640625 153.240234375 154.2109375 187.553710938 125 236.939453125 c 1
 125 -5.5546875 l 1
 100 -5.5546875 l 1
 100 272.22265625 l 1
 100 605.5546875 l 1
 125 605.5546875 l 1
 125 520.264648438 193.876953125 451.390625 279.16796875 451.390625 c 2
 1273.99023438 451.390625 l 1
 1436.9921875 614.392578125 l 1
 1454.66992188 596.716796875 l 1
 1296.84570312 438.890625 l 1
 1433.33203125 302.3984375 l 1
 1433.33203125 466.66796875 l 2
 1433.33203125 532.294921875 1468.89746094 589.623046875 1521.66210938 620.83203125 c 1
 1279.16796875 620.83203125 l 1
 1279.16796875 645.83203125 l 1
 1433.76953125 645.83203125 l 1
 1437.96289062 706.193359375 1472.27636719 758.2890625 1521.66210938 787.5 c 1
 1279.16796875 787.5 l 1
 1279.16796875 812.5 l 1
832.828125 808.837890625 m 1
 850.505859375 791.162109375 l 1
 734.345703125 675 l 1
 850.505859375 558.837890625 l 1
 832.828125 541.162109375 l 1
 698.990234375 675 l 1
 832.828125 808.837890625 l 1
125 514.71875 m 1
 125 327.77734375 l 2
 125 246.69921875 187.252929688 180.500976562 266.66796875 174.154296875 c 1
 266.66796875 327.77734375 l 1
 291.66796875 327.77734375 l 1
 291.66796875 242.486328125 360.541015625 173.609375 445.83203125 173.609375 c 2
 1433.33203125 173.609375 l 1
 1433.33203125 267.044921875 l 1
 1273.99023438 426.390625 l 1
 279.16796875 426.390625 l 2
 213.541015625 426.390625 156.209960938 461.954101562 125 514.71875 c 1
832.828125 58.837890625 m 1
 850.505859375 41.162109375 l 1
 734.345703125 -75 l 1
 850.505859375 -191.162109375 l 1
 832.828125 -208.837890625 l 1
 698.990234375 -75 l 1
 832.828125 58.837890625 l 1
EndSplineSet
EndChar

StartChar: U12041
Encoding: 293 73793 37
Width: 1221
VWidth: 100
Flags: W
HStem: 287.5 25<220.617 940.654>
VStem: 100 25<133.332 375.83 406.597 466.668>
LayerCount: 2
Fore
SplineSet
1103.66210938 475.505859375 m 1
 1121.33984375 457.830078125 l 1
 963.509765625 300 l 1
 1121.33984375 142.169921875 l 1
 1103.66210938 124.4921875 l 1
 940.654296875 287.5 l 1
 279.16796875 287.5 l 2
 213.541015625 287.5 156.209960938 323.064453125 125 375.830078125 c 1
 125 133.33203125 l 1
 100 133.33203125 l 1
 100 466.66796875 l 1
 125 466.66796875 l 1
 125 381.376953125 193.876953125 312.5 279.16796875 312.5 c 2
 940.654296875 312.5 l 1
 1103.66210938 475.505859375 l 1
EndSplineSet
EndChar

StartChar: U12458
Encoding: 294 74840 38
Width: 1221
VWidth: 100
Flags: W
HStem: 287.5 25<220.617 940.654>
VStem: 100 25<133.332 375.83 406.597 466.668>
LayerCount: 2
Fore
SplineSet
1103.66210938 475.505859375 m 1
 1121.33984375 457.830078125 l 1
 963.509765625 300 l 1
 1121.33984375 142.169921875 l 1
 1103.66210938 124.4921875 l 1
 940.654296875 287.5 l 1
 279.16796875 287.5 l 2
 213.541015625 287.5 156.209960938 323.064453125 125 375.830078125 c 1
 125 133.33203125 l 1
 100 133.33203125 l 1
 100 466.66796875 l 1
 125 466.66796875 l 1
 125 381.376953125 193.876953125 312.5 279.16796875 312.5 c 2
 940.654296875 312.5 l 1
 1103.66210938 475.505859375 l 1
EndSplineSet
EndChar

StartChar: U12080
Encoding: 295 73856 39
Width: 2212
VWidth: 100
Flags: W
HStem: -45.832 25<220.617 800 920.777 966.668 991.668 1600> 162.5 25<1253.95 1600> 287.5 25<220.617 812.5> 579.168 25<1253.95 1398.99> 787.5 25<812.5 1055 1085.76 1145.83 1445.83 1582.32 1617.68 1688.33 1719.1 2021.66 2052.43 2112.5>
VStem: 100 25<-200 42.4961 73.2617 375.83 406.597 466.668> 800 25<-200 -45.832 -20.832 42.4961 72.716 133.332> 966.668 25<-20.2871 691.883> 1133.33 25<8.33203 250.83 281.597 341.668 425 667.496 698.262 758.332> 1600 25<-200 -45.832 -20.832 162.5 187.5 378.154 413.508 691.883> 1933.33 25<-200 691.883>
LayerCount: 2
Fore
SplineSet
812.5 812.5 m 1
 1145.83203125 812.5 l 1
 1145.83203125 787.5 l 1
 1060.54101562 787.5 991.66796875 718.623046875 991.66796875 633.33203125 c 2
 991.66796875 -20.83203125 l 1
 1600 -20.83203125 l 1
 1600 162.5 l 1
 1312.5 162.5 l 2
 1246.87304688 162.5 1189.54199219 198.064453125 1158.33203125 250.830078125 c 1
 1158.33203125 8.33203125 l 1
 1133.33203125 8.33203125 l 1
 1133.33203125 341.66796875 l 1
 1158.33203125 341.66796875 l 1
 1158.33203125 256.376953125 1227.20898438 187.5 1312.5 187.5 c 2
 1600 187.5 l 1
 1600 378.154296875 l 1
 1398.99023438 579.16796875 l 1
 1312.5 579.16796875 l 2
 1246.87304688 579.16796875 1189.54199219 614.731445312 1158.33203125 667.49609375 c 1
 1158.33203125 425 l 1
 1133.33203125 425 l 1
 1133.33203125 758.33203125 l 1
 1158.33203125 758.33203125 l 1
 1158.33203125 673.041015625 1227.20800781 604.16796875 1312.5 604.16796875 c 2
 1398.99023438 604.16796875 l 1
 1582.32226562 787.5 l 1
 1445.83203125 787.5 l 1
 1445.83203125 812.5 l 1
 1779.16796875 812.5 l 1
 2112.5 812.5 l 1
 2112.5 787.5 l 1
 2027.20898438 787.5 1958.33203125 718.623046875 1958.33203125 633.33203125 c 2
 1958.33203125 -200 l 1
 1933.33203125 -200 l 1
 1933.33203125 633.33203125 l 2
 1933.33203125 698.958984375 1968.89746094 756.290039062 2021.66210938 787.5 c 1
 1779.16796875 787.5 l 2
 1693.87695312 787.5 1625 718.623046875 1625 633.33203125 c 2
 1625 -200 l 1
 1600 -200 l 1
 1600 -45.83203125 l 1
 979.16796875 -45.83203125 l 2
 913.541015625 -45.83203125 856.209960938 -10.2685546875 825 42.49609375 c 1
 825 -200 l 1
 800 -200 l 1
 800 -45.83203125 l 1
 279.16796875 -45.83203125 l 2
 213.541015625 -45.83203125 156.209960938 -10.2685546875 125 42.49609375 c 1
 125 -200 l 1
 100 -200 l 1
 100 133.33203125 l 1
 100 466.66796875 l 1
 125 466.66796875 l 1
 125 381.376953125 193.876953125 312.5 279.16796875 312.5 c 2
 812.5 312.5 l 1
 812.5 287.5 l 1
 279.16796875 287.5 l 2
 213.541015625 287.5 156.209960938 323.064453125 125 375.830078125 c 1
 125 133.33203125 l 2
 125 48.041015625 193.876953125 -20.83203125 279.16796875 -20.83203125 c 2
 800 -20.83203125 l 1
 800 133.33203125 l 1
 825 133.33203125 l 1
 825 52.25390625 887.252929688 -13.9404296875 966.66796875 -20.287109375 c 1
 966.66796875 633.33203125 l 2
 966.66796875 698.958984375 1002.23144531 756.290039062 1054.99609375 787.5 c 1
 812.5 787.5 l 1
 812.5 812.5 l 1
536.9921875 808.837890625 m 1
 554.669921875 791.162109375 l 1
 396.845703125 633.33203125 l 1
 554.669921875 475.505859375 l 1
 536.9921875 457.830078125 l 1
 361.490234375 633.33203125 l 1
 536.9921875 808.837890625 l 1
1617.67578125 787.5 m 1
 1421.84570312 591.66796875 l 1
 1600 413.5078125 l 1
 1600 633.33203125 l 2
 1600 698.958984375 1635.56445312 756.290039062 1688.33007812 787.5 c 1
 1617.67578125 787.5 l 1
EndSplineSet
EndChar

StartChar: U120fe
Encoding: 296 73982 40
Width: 1719
VWidth: 100
Flags: W
HStem: -45.832 25<220.617 850 970.617 1564.26> 287.5 25<220.617 690.654> 787.5 25<695.832 938.33 969.097 1029.17>
VStem: 100 25<-200 42.4961 73.2617 375.83 406.597 466.668> 850 25<-200 -45.832 -20.832 42.4961 73.2617 128.154 163.51 335.094 431.574 436.49 471.844 691.883> 910.254 24.6272<390.238 443.549>
LayerCount: 2
Fore
SplineSet
695.83203125 812.5 m 1
 1029.16796875 812.5 l 1
 1029.16796875 787.5 l 1
 943.876953125 787.5 875 718.623046875 875 633.33203125 c 2
 875 431.57421875 l 1
 932.513671875 535.09765625 l 1
 954.369140625 522.95703125 l 1
 941.156608117 499.174410435 934.881110151 473.44860122 934.881110151 448.09480731 c 0
 934.881110151 393.96333362 963.487429507 341.527659801 1014.26171875 313.3203125 c 2
 1618.5703125 -22.404296875 l 1
 1612.5 -33.33203125 l 1
 1612.5 -45.83203125 l 1
 1029.16796875 -45.83203125 l 2
 963.541015625 -45.83203125 906.209960938 -10.2685546875 875 42.49609375 c 1
 875 -200 l 1
 850 -200 l 1
 850 -45.83203125 l 1
 279.16796875 -45.83203125 l 2
 213.541015625 -45.83203125 156.209960938 -10.2685546875 125 42.49609375 c 1
 125 -200 l 1
 100 -200 l 1
 100 133.33203125 l 1
 100 466.66796875 l 1
 125 466.66796875 l 1
 125 381.376953125 193.876953125 312.5 279.16796875 312.5 c 2
 690.654296875 312.5 l 1
 850 471.84375 l 1
 850 633.33203125 l 2
 850 698.958984375 885.564453125 756.290039062 938.330078125 787.5 c 1
 695.83203125 787.5 l 1
 695.83203125 812.5 l 1
910.25390625 443.548828125 m 1
 875 380.091796875 l 1
 875 133.33203125 l 2
 875 48.041015625 943.876953125 -20.83203125 1029.16796875 -20.83203125 c 2
 1564.25976562 -20.83203125 l 1
 1002.12109375 291.466796875 l 2
 944.754882812 323.3359375 911.911132812 382.267578125 910.25390625 443.548828125 c 1
850 436.490234375 m 1
 713.509765625 300 l 1
 850 163.509765625 l 1
 850 335.09375 l 1
 792.486328125 231.5703125 l 1
 770.630859375 243.7109375 l 1
 850 386.57421875 l 1
 850 436.490234375 l 1
125 375.830078125 m 1
 125 133.33203125 l 2
 125 48.041015625 193.876953125 -20.83203125 279.16796875 -20.83203125 c 2
 850 -20.83203125 l 1
 850 128.154296875 l 1
 690.654296875 287.5 l 1
 279.16796875 287.5 l 2
 213.541015625 287.5 156.209960938 323.064453125 125 375.830078125 c 1
EndSplineSet
EndChar

StartChar: U12351
Encoding: 297 74577 41
Width: 1212
VWidth: 100
Flags: W
HStem: 37.5 25<220.617 933.332> 537.5 25<220.617 773.99> 787.5 25<779.168 1021.66 1052.43 1112.5>
VStem: 100 25<-116.668 125.83 156.597 216.668 383.332 625.83 656.597 716.668> 933.332 25<-200 37.5 62.5 378.152 413.508 693.403>
LayerCount: 2
Fore
SplineSet
779.16796875 812.5 m 1
 1112.5 812.5 l 1
 1112.5 787.5 l 1
 1027.20898438 787.5 958.33203125 718.623046875 958.33203125 633.33203125 c 2
 958.33203125 -200 l 1
 933.33203125 -200 l 1
 933.33203125 37.5 l 1
 279.16796875 37.5 l 2
 213.541015625 37.5 156.209960938 73.064453125 125 125.830078125 c 1
 125 -116.66796875 l 1
 100 -116.66796875 l 1
 100 216.66796875 l 1
 125 216.66796875 l 1
 125 131.376953125 193.876953125 62.5 279.16796875 62.5 c 2
 933.33203125 62.5 l 1
 933.33203125 378.15234375 l 1
 773.990234375 537.5 l 1
 279.16796875 537.5 l 2
 213.541015625 537.5 156.209960938 573.064453125 125 625.830078125 c 1
 125 383.33203125 l 1
 100 383.33203125 l 1
 100 716.66796875 l 1
 125 716.66796875 l 1
 125 631.376953125 193.876953125 562.5 279.16796875 562.5 c 2
 773.990234375 562.5 l 1
 936.9921875 725.505859375 l 1
 951.291015625 711.208984375 l 1
 966.768554688 742.99609375 991.352539062 769.572265625 1021.66210938 787.5 c 1
 779.16796875 787.5 l 1
 779.16796875 812.5 l 1
945.876953125 699.037109375 m 1
 796.845703125 550 l 1
 933.33203125 413.5078125 l 1
 933.33203125 633.33203125 l 2
 933.33203125 656.536132812 937.795898438 678.6953125 945.876953125 699.037109375 c 1
EndSplineSet
EndChar

StartChar: U12157
Encoding: 298 74071 42
Width: 1712
VWidth: 100
Flags: W
HStem: -45.832 25<220.617 485.1 520.455 766.668 791.668 1433.33 1458.33 1612.5> 120.812 25<887.271 1433.33> 231.945 25<220.617 485.1 520.453 766.668> 454.102 25<887.271 1433.33> 787.5 25<612.5 854.996 885.762 945.832 1279.17 1521.66 1552.43 1612.5>
VStem: 100 25<-200 42.4961 73.2617 320.273 351.039 411.109> 766.668 25<-20.832 209.127 257.706 542.416 573.184 691.883> 1433.33 25<-20.832 120.812 145.812 454.102 479.102 691.883>
LayerCount: 2
Fore
SplineSet
612.5 812.5 m 1
 945.83203125 812.5 l 1
 945.83203125 787.5 l 1
 860.541015625 787.5 791.66796875 718.623046875 791.66796875 633.33203125 c 2
 791.66796875 633.24609375 l 2
 791.66796875 547.966796875 860.533203125 479.1015625 945.8125 479.1015625 c 2
 1433.33203125 479.1015625 l 1
 1433.33203125 633.33203125 l 2
 1433.33203125 698.958984375 1468.89746094 756.290039062 1521.66210938 787.5 c 1
 1279.16796875 787.5 l 1
 1279.16796875 812.5 l 1
 1612.5 812.5 l 1
 1612.5 787.5 l 1
 1527.20898438 787.5 1458.33203125 718.623046875 1458.33203125 633.33203125 c 2
 1458.33203125 -20.83203125 l 1
 1612.5 -20.83203125 l 1
 1612.5 -45.83203125 l 1
 279.16796875 -45.83203125 l 2
 213.541015625 -45.83203125 156.209960938 -10.2685546875 125 42.49609375 c 1
 125 -200 l 1
 100 -200 l 1
 100 77.77734375 l 1
 100 133.33203125 l 1
 100 411.109375 l 1
 125 411.109375 l 1
 125 325.818359375 193.876953125 256.9453125 279.16796875 256.9453125 c 2
 766.66796875 256.9453125 l 1
 766.66796875 299.95703125 l 1
 766.66796875 633.24609375 l 1
 766.66796875 633.33203125 l 2
 766.66796875 698.958984375 802.231445312 756.290039062 854.99609375 787.5 c 1
 612.5 787.5 l 1
 612.5 812.5 l 1
791.66796875 542.416015625 m 1
 791.66796875 299.95703125 l 2
 791.66796875 214.677734375 860.533203125 145.8125 945.8125 145.8125 c 2
 1433.33203125 145.8125 l 1
 1433.33203125 454.1015625 l 1
 945.8125 454.1015625 l 2
 880.1953125 454.1015625 822.874023438 489.66015625 791.66796875 542.416015625 c 1
125 320.2734375 m 1
 125 133.33203125 l 2
 125 48.041015625 193.876953125 -20.83203125 279.16796875 -20.83203125 c 2
 485.099609375 -20.83203125 l 1
 358.712890625 105.5546875 l 1
 485.099609375 231.9453125 l 1
 279.16796875 231.9453125 l 2
 213.541015625 231.9453125 156.209960938 267.509765625 125 320.2734375 c 1
520.453125 231.9453125 m 1
 394.068359375 105.5546875 l 1
 520.455078125 -20.83203125 l 1
 766.66796875 -20.83203125 l 1
 766.66796875 231.9453125 l 1
 520.453125 231.9453125 l 1
791.66796875 209.126953125 m 1
 791.66796875 -20.83203125 l 1
 1433.33203125 -20.83203125 l 1
 1433.33203125 120.8125 l 1
 945.8125 120.8125 l 2
 880.1953125 120.8125 822.874023438 156.37109375 791.66796875 209.126953125 c 1
EndSplineSet
EndChar

StartChar: U1215e
Encoding: 299 74078 43
Width: 2212
VWidth: 100
Flags: W
HStem: -45.832 25<220.617 1016.67 1137.28 1933.33> 287.5 25<220.617 857.322 1237.28 1475 1500 1845.83> 520.832 25<1320.83 1563.33 1594.1 1654.17> 620.832 25<1136.17 1933.33> 787.5 25<862.5 1016.67 1042.21 1105 1135.81 1195.83 1779.17 2021.66 2052.43 2112.5>
VStem: 100 25<-200 42.4961 73.2617 375.83 406.597 466.668> 1016.67 25<-200 -45.832 -20.832 42.4941 73.2617 128.154 163.508 436.49 471.844 691.198 742.057 787.5> 1116.67 25<133.332 375.83 406.597 466.668> 1475 25<66.668 287.5 312.5 425.218> 1933.33 25<-200 -45.832 -20.832 620.832 645.832 691.909>
LayerCount: 2
Fore
SplineSet
862.5 812.5 m 1
 1195.83203125 812.5 l 1
 1195.83203125 787.5 l 1
 1141.27734375 787.5 1093.47558594 759.295898438 1066.08203125 716.666015625 c 1
 1093.47558594 674.036132812 1141.27734375 645.83203125 1195.83203125 645.83203125 c 2
 1933.76953125 645.83203125 l 1
 1937.96289062 706.193359375 1972.27636719 758.2890625 2021.66210938 787.5 c 1
 1779.16796875 787.5 l 1
 1779.16796875 812.5 l 1
 2112.5 812.5 l 1
 2112.5 787.5 l 1
 2027.20898438 787.5 1958.33203125 718.623046875 1958.33203125 633.33203125 c 2
 1958.33203125 -200 l 1
 1933.33203125 -200 l 1
 1933.33203125 -45.83203125 l 1
 1195.83203125 -45.83203125 l 2
 1130.20605469 -45.83203125 1072.87695312 -10.26953125 1041.66796875 42.494140625 c 1
 1041.66796875 -200 l 1
 1016.66796875 -200 l 1
 1016.66796875 -45.83203125 l 1
 279.16796875 -45.83203125 l 2
 213.541015625 -45.83203125 156.209960938 -10.2685546875 125 42.49609375 c 1
 125 -200 l 1
 100 -200 l 1
 100 133.33203125 l 1
 100 466.66796875 l 1
 125 466.66796875 l 1
 125 381.376953125 193.876953125 312.5 279.16796875 312.5 c 2
 857.322265625 312.5 l 1
 1016.66796875 471.84375 l 1
 1016.66796875 633.33203125 l 1
 1016.66796875 787.5 l 1
 862.5 787.5 l 1
 862.5 812.5 l 1
1042.21484375 787.5 m 1
 1043.51074219 771.282226562 1047.28320312 755.782226562 1053.19140625 741.380859375 c 1
 1067.29003906 759.884765625 1084.87988281 775.6015625 1104.99609375 787.5 c 1
 1042.21484375 787.5 l 1
1053.22851562 692.046875 m 1
 1045.79199219 673.955078125 1041.66796875 654.138671875 1041.66796875 633.33203125 c 2
 1041.66796875 466.66796875 l 1
 1041.66796875 133.33203125 l 2
 1041.66796875 48.041015625 1110.54101562 -20.83203125 1195.83203125 -20.83203125 c 2
 1933.33203125 -20.83203125 l 1
 1933.33203125 620.83203125 l 1
 1195.83203125 620.83203125 l 2
 1137.59765625 620.83203125 1085.94335938 648.87109375 1053.22851562 692.046875 c 1
1320.83203125 545.83203125 m 1
 1654.16796875 545.83203125 l 1
 1654.16796875 520.83203125 l 1
 1568.87695312 520.83203125 1500 451.958984375 1500 366.66796875 c 2
 1500 312.5 l 1
 1845.83203125 312.5 l 1
 1845.83203125 287.5 l 1
 1500 287.5 l 1
 1500 66.66796875 l 1
 1475 66.66796875 l 1
 1475 287.5 l 1
 1295.83203125 287.5 l 2
 1230.20507812 287.5 1172.87695312 323.065429688 1141.66796875 375.830078125 c 1
 1141.66796875 133.33203125 l 1
 1116.66796875 133.33203125 l 1
 1116.66796875 466.66796875 l 1
 1141.66796875 466.66796875 l 1
 1141.66796875 381.376953125 1210.54101562 312.5 1295.83203125 312.5 c 2
 1475 312.5 l 1
 1475 366.66796875 l 2
 1475 432.294921875 1510.56542969 489.623046875 1563.33007812 520.83203125 c 1
 1320.83203125 520.83203125 l 1
 1320.83203125 545.83203125 l 1
1016.66796875 436.490234375 m 1
 880.177734375 300 l 1
 1016.66796875 163.5078125 l 1
 1016.66796875 436.490234375 l 1
125 375.830078125 m 1
 125 133.33203125 l 2
 125 48.041015625 193.876953125 -20.83203125 279.16796875 -20.83203125 c 2
 1016.66796875 -20.83203125 l 1
 1016.66796875 128.154296875 l 1
 857.322265625 287.5 l 1
 279.16796875 287.5 l 2
 213.541015625 287.5 156.209960938 323.064453125 125 375.830078125 c 1
EndSplineSet
EndChar

StartChar: U1233a
Encoding: 300 74554 44
Width: 2212
VWidth: 100
Flags: W
HStem: -45.832 25<220.617 1016.67 1137.28 1933.33> 287.5 25<220.617 857.322 1237.28 1475 1500 1845.83> 520.832 25<1320.83 1563.33 1594.1 1654.17> 620.832 25<1136.17 1933.33> 787.5 25<862.5 1016.67 1042.21 1105 1135.81 1195.83 1779.17 2021.66 2052.43 2112.5>
VStem: 100 25<-200 42.4961 73.2617 375.83 406.597 466.668> 1016.67 25<-200 -45.832 -20.832 42.4941 73.2617 128.154 163.508 436.49 471.844 691.198 742.057 787.5> 1116.67 25<133.332 375.83 406.597 466.668> 1475 25<66.668 287.5 312.5 425.218> 1933.33 25<-200 -45.832 -20.832 620.832 645.832 691.909>
LayerCount: 2
Fore
SplineSet
862.5 812.5 m 1
 1195.83203125 812.5 l 1
 1195.83203125 787.5 l 1
 1141.27734375 787.5 1093.47558594 759.295898438 1066.08203125 716.666015625 c 1
 1093.47558594 674.036132812 1141.27734375 645.83203125 1195.83203125 645.83203125 c 2
 1933.76953125 645.83203125 l 1
 1937.96289062 706.193359375 1972.27636719 758.2890625 2021.66210938 787.5 c 1
 1779.16796875 787.5 l 1
 1779.16796875 812.5 l 1
 2112.5 812.5 l 1
 2112.5 787.5 l 1
 2027.20898438 787.5 1958.33203125 718.623046875 1958.33203125 633.33203125 c 2
 1958.33203125 -200 l 1
 1933.33203125 -200 l 1
 1933.33203125 -45.83203125 l 1
 1195.83203125 -45.83203125 l 2
 1130.20605469 -45.83203125 1072.87695312 -10.26953125 1041.66796875 42.494140625 c 1
 1041.66796875 -200 l 1
 1016.66796875 -200 l 1
 1016.66796875 -45.83203125 l 1
 279.16796875 -45.83203125 l 2
 213.541015625 -45.83203125 156.209960938 -10.2685546875 125 42.49609375 c 1
 125 -200 l 1
 100 -200 l 1
 100 133.33203125 l 1
 100 466.66796875 l 1
 125 466.66796875 l 1
 125 381.376953125 193.876953125 312.5 279.16796875 312.5 c 2
 857.322265625 312.5 l 1
 1016.66796875 471.84375 l 1
 1016.66796875 633.33203125 l 1
 1016.66796875 787.5 l 1
 862.5 787.5 l 1
 862.5 812.5 l 1
1042.21484375 787.5 m 1
 1043.51074219 771.282226562 1047.28320312 755.782226562 1053.19140625 741.380859375 c 1
 1067.29003906 759.884765625 1084.87988281 775.6015625 1104.99609375 787.5 c 1
 1042.21484375 787.5 l 1
1053.22851562 692.046875 m 1
 1045.79199219 673.955078125 1041.66796875 654.138671875 1041.66796875 633.33203125 c 2
 1041.66796875 466.66796875 l 1
 1041.66796875 133.33203125 l 2
 1041.66796875 48.041015625 1110.54101562 -20.83203125 1195.83203125 -20.83203125 c 2
 1933.33203125 -20.83203125 l 1
 1933.33203125 620.83203125 l 1
 1195.83203125 620.83203125 l 2
 1137.59765625 620.83203125 1085.94335938 648.87109375 1053.22851562 692.046875 c 1
1320.83203125 545.83203125 m 1
 1654.16796875 545.83203125 l 1
 1654.16796875 520.83203125 l 1
 1568.87695312 520.83203125 1500 451.958984375 1500 366.66796875 c 2
 1500 312.5 l 1
 1845.83203125 312.5 l 1
 1845.83203125 287.5 l 1
 1500 287.5 l 1
 1500 66.66796875 l 1
 1475 66.66796875 l 1
 1475 287.5 l 1
 1295.83203125 287.5 l 2
 1230.20507812 287.5 1172.87695312 323.065429688 1141.66796875 375.830078125 c 1
 1141.66796875 133.33203125 l 1
 1116.66796875 133.33203125 l 1
 1116.66796875 466.66796875 l 1
 1141.66796875 466.66796875 l 1
 1141.66796875 381.376953125 1210.54101562 312.5 1295.83203125 312.5 c 2
 1475 312.5 l 1
 1475 366.66796875 l 2
 1475 432.294921875 1510.56542969 489.623046875 1563.33007812 520.83203125 c 1
 1320.83203125 520.83203125 l 1
 1320.83203125 545.83203125 l 1
1016.66796875 436.490234375 m 1
 880.177734375 300 l 1
 1016.66796875 163.5078125 l 1
 1016.66796875 436.490234375 l 1
125 375.830078125 m 1
 125 133.33203125 l 2
 125 48.041015625 193.876953125 -20.83203125 279.16796875 -20.83203125 c 2
 1016.66796875 -20.83203125 l 1
 1016.66796875 128.154296875 l 1
 857.322265625 287.5 l 1
 279.16796875 287.5 l 2
 213.541015625 287.5 156.209960938 323.064453125 125 375.830078125 c 1
EndSplineSet
EndChar

StartChar: U1217b
Encoding: 301 74107 45
Width: 2212
VWidth: 100
Flags: W
HStem: -45.832 25<220.617 933.332 1053.95 1933.33> 287.5 25<220.617 773.99 1159.13 1333.33 1358.33 1533.33 1558.33 1733.33 1758.33 1845.83> 520.832 25<1045.83 1175.32 1202.21 1375.32 1402.21 1575.32 1602.21 1775.32 1802.21 1845.83> 620.832 25<1052.84 1933.33> 787.5 25<779.168 933.332 958.877 1021.66 1052.47 1112.5 1779.17 2021.66 2052.43 2112.5>
VStem: 100 25<-200 42.4961 73.2617 375.83 406.597 466.668> 933.332 25<-200 -45.832 -20.832 42.4961 73.2617 128.152 163.508 436.492 471.846 691.198 742.057 787.5> 1033.33 25<133.332 375.83 407.13 466.668> 1133.33 25<66.668 295.914 334.303 476.952> 1333.33 25<66.668 287.5 312.5 476.952> 1533.33 25<66.668 287.5 312.5 476.952> 1733.33 25<66.668 287.5 312.5 476.952> 1933.33 25<-200 -45.832 -20.832 620.832 645.832 691.909>
LayerCount: 2
Fore
SplineSet
779.16796875 812.5 m 1
 1112.5 812.5 l 1
 1112.5 787.5 l 1
 1057.9453125 787.5 1010.14257812 759.294921875 982.748046875 716.666015625 c 1
 1010.14257812 674.037109375 1057.9453125 645.83203125 1112.5 645.83203125 c 2
 1933.76953125 645.83203125 l 1
 1937.96289062 706.193359375 1972.27636719 758.2890625 2021.66210938 787.5 c 1
 1779.16796875 787.5 l 1
 1779.16796875 812.5 l 1
 2112.5 812.5 l 1
 2112.5 787.5 l 1
 2027.20898438 787.5 1958.33203125 718.623046875 1958.33203125 633.33203125 c 2
 1958.33203125 -200 l 1
 1933.33203125 -200 l 1
 1933.33203125 -45.83203125 l 1
 1112.5 -45.83203125 l 2
 1046.87304688 -45.83203125 989.541992188 -10.2685546875 958.33203125 42.49609375 c 1
 958.33203125 -200 l 1
 933.33203125 -200 l 1
 933.33203125 -45.83203125 l 1
 279.16796875 -45.83203125 l 2
 213.541015625 -45.83203125 156.209960938 -10.2685546875 125 42.49609375 c 1
 125 -200 l 1
 100 -200 l 1
 100 133.33203125 l 1
 100 466.66796875 l 1
 125 466.66796875 l 1
 125 381.376953125 193.876953125 312.5 279.16796875 312.5 c 2
 773.990234375 312.5 l 1
 933.33203125 471.845703125 l 1
 933.33203125 633.33203125 l 1
 933.33203125 787.5 l 1
 779.16796875 787.5 l 1
 779.16796875 812.5 l 1
958.876953125 787.5 m 1
 960.172851562 771.282226562 963.947265625 755.782226562 969.85546875 741.380859375 c 1
 983.954101562 759.884765625 1001.54589844 775.6015625 1021.66210938 787.5 c 1
 958.876953125 787.5 l 1
969.892578125 692.046875 m 1
 962.456054688 673.955078125 958.33203125 654.138671875 958.33203125 633.33203125 c 2
 958.33203125 466.66796875 l 1
 958.33203125 133.33203125 l 2
 958.33203125 48.041015625 1027.20800781 -20.83203125 1112.5 -20.83203125 c 2
 1933.33203125 -20.83203125 l 1
 1933.33203125 620.83203125 l 1
 1112.5 620.83203125 l 2
 1054.265625 620.83203125 1002.60839844 648.87109375 969.892578125 692.046875 c 1
1045.83203125 545.83203125 m 1
 1245.83203125 545.83203125 l 1
 1445.83203125 545.83203125 l 1
 1645.83203125 545.83203125 l 1
 1845.83203125 545.83203125 l 1
 1845.83203125 520.83203125 l 1
 1797.36035156 520.83203125 1758.33203125 481.806640625 1758.33203125 433.33203125 c 2
 1758.33203125 312.5 l 1
 1845.83203125 312.5 l 1
 1845.83203125 287.5 l 1
 1758.33203125 287.5 l 1
 1758.33203125 66.66796875 l 1
 1733.33203125 66.66796875 l 1
 1733.33203125 287.5 l 1
 1558.33203125 287.5 l 1
 1558.33203125 66.66796875 l 1
 1533.33203125 66.66796875 l 1
 1533.33203125 287.5 l 1
 1358.33203125 287.5 l 1
 1358.33203125 66.66796875 l 1
 1333.33203125 66.66796875 l 1
 1333.33203125 287.5 l 1
 1212.5 287.5 l 2
 1193.61328125 287.5 1175.41992188 290.4609375 1158.33203125 295.9140625 c 1
 1158.33203125 66.66796875 l 1
 1133.33203125 66.66796875 l 1
 1133.33203125 306.056640625 l 1
 1102.109375 321.568359375 1076.01953125 345.92578125 1058.33203125 375.830078125 c 1
 1058.33203125 133.33203125 l 1
 1033.33203125 133.33203125 l 1
 1033.33203125 466.66796875 l 1
 1058.33203125 466.66796875 l 1
 1058.33203125 410.348632812 1088.37402344 361.203125 1133.33203125 334.302734375 c 1
 1133.33203125 433.33203125 l 2
 1133.33203125 468.638671875 1149.75488281 500.18359375 1175.31835938 520.83203125 c 1
 1045.83203125 520.83203125 l 1
 1045.83203125 545.83203125 l 1
1245.83203125 520.83203125 m 2
 1197.36035156 520.83203125 1158.33203125 481.806640625 1158.33203125 433.33203125 c 2
 1158.33203125 322.271484375 l 1
 1175.1796875 315.966796875 1193.42285156 312.5 1212.5 312.5 c 2
 1333.33203125 312.5 l 1
 1333.33203125 433.33203125 l 2
 1333.33203125 468.638671875 1349.75488281 500.18359375 1375.31835938 520.83203125 c 1
 1245.83203125 520.83203125 l 2
1445.83203125 520.83203125 m 2
 1397.36035156 520.83203125 1358.33203125 481.806640625 1358.33203125 433.33203125 c 2
 1358.33203125 312.5 l 1
 1533.33203125 312.5 l 1
 1533.33203125 433.33203125 l 2
 1533.33203125 468.638671875 1549.75488281 500.18359375 1575.31835938 520.83203125 c 1
 1445.83203125 520.83203125 l 2
1645.83203125 520.83203125 m 2
 1597.36035156 520.83203125 1558.33203125 481.806640625 1558.33203125 433.33203125 c 2
 1558.33203125 312.5 l 1
 1733.33203125 312.5 l 1
 1733.33203125 433.33203125 l 2
 1733.33203125 468.638671875 1749.75488281 500.18359375 1775.31835938 520.83203125 c 1
 1645.83203125 520.83203125 l 2
933.33203125 436.4921875 m 1
 796.845703125 300 l 1
 933.33203125 163.5078125 l 1
 933.33203125 436.4921875 l 1
125 375.830078125 m 1
 125 133.33203125 l 2
 125 48.041015625 193.876953125 -20.83203125 279.16796875 -20.83203125 c 2
 933.33203125 -20.83203125 l 1
 933.33203125 128.15234375 l 1
 773.990234375 287.5 l 1
 279.16796875 287.5 l 2
 213.541015625 287.5 156.209960938 323.064453125 125 375.830078125 c 1
EndSplineSet
EndChar

StartChar: U1217e
Encoding: 302 74110 46
Width: 2212
VWidth: 100
Flags: W
HStem: -45.832 25<220.617 933.293 1053.95 1933.33> 209.711 25<1144.83 1200 1225 1388.93 1413.93 1566.69 1591.69 1744.45 1769.45 1845.83> 287.5 25<220.617 773.947> 365.258 25.0312<1312.55 1423.9 1449.08 1601.66 1626.84 1779.43 1804.6 1845.83> 520.832 25<1045.83 1200 1225.57 1288.33 1319.88 1379.17> 620.832 25<1052.82 1933.33> 787.5 25<779.125 933.332 958.877 1021.62 1052.45 1112.46 1779.17 2021.66 2052.43 2112.5>
VStem: 100 25<-200 42.4961 73.2617 375.83 406.597 466.668> 933.293 25<-200 -45.832 -20.832 42.4961 73.2617 128.154 163.508 436.492 471.844 691.254 742.091 787.5> 1033.33 25<66.668 290.014 319.145 377.758> 1200 25<234.746 426.956 476.222 520.832> 1388.93 25<66.668 209.711 234.711 330.111> 1566.69 25<66.668 209.711 234.711 330.111> 1744.45 25<66.668 209.711 234.711 330.111> 1933.33 25<-200 -45.832 -20.832 620.832 645.832 691.909>
LayerCount: 2
Fore
SplineSet
779.125 812.5 m 1
 1112.4609375 812.5 l 1
 1112.4609375 787.5 l 1
 1057.91699219 787.5 1010.12597656 759.309570312 982.728515625 716.697265625 c 1
 1010.12011719 674.05078125 1057.93261719 645.83203125 1112.5 645.83203125 c 2
 1933.76953125 645.83203125 l 1
 1937.96289062 706.193359375 1972.27636719 758.2890625 2021.66210938 787.5 c 1
 1779.16796875 787.5 l 1
 1779.16796875 812.5 l 1
 2112.5 812.5 l 1
 2112.5 787.5 l 1
 2027.20898438 787.5 1958.33203125 718.623046875 1958.33203125 633.33203125 c 2
 1958.33203125 -200 l 1
 1933.33203125 -200 l 1
 1933.33203125 -45.83203125 l 1
 1112.5 -45.83203125 l 2
 1046.87304688 -45.83203125 989.541992188 -10.2685546875 958.33203125 42.49609375 c 1
 958.33203125 -200 l 1
 958.29296875 -200 l 1
 933.29296875 -200 l 1
 933.29296875 -45.83203125 l 1
 279.16796875 -45.83203125 l 2
 213.541015625 -45.83203125 156.209960938 -10.2685546875 125 42.49609375 c 1
 125 -200 l 1
 100 -200 l 1
 100 133.33203125 l 1
 100 466.66796875 l 1
 125 466.66796875 l 1
 125 381.376953125 193.876953125 312.5 279.16796875 312.5 c 2
 773.947265625 312.5 l 1
 933.29296875 471.84375 l 1
 933.29296875 633.33203125 l 2
 933.29296875 634.106445312 933.322265625 634.873046875 933.33203125 635.64453125 c 2
 933.33203125 787.5 l 1
 779.125 787.5 l 1
 779.125 812.5 l 1
958.876953125 787.5 m 1
 960.171875 771.294921875 963.94140625 755.807617188 969.841796875 741.416015625 c 1
 983.935546875 759.905273438 1001.51660156 775.608398438 1021.62109375 787.5 c 1
 958.876953125 787.5 l 1
969.8671875 692.08203125 m 1
 962.609375 674.435546875 958.532226562 655.139648438 958.33203125 634.890625 c 2
 958.33203125 466.66796875 l 1
 958.29296875 466.66796875 l 1
 958.29296875 133.33203125 l 1
 958.33203125 133.33203125 l 1
 958.33203125 48.041015625 1027.20800781 -20.83203125 1112.5 -20.83203125 c 2
 1933.33203125 -20.83203125 l 1
 1933.33203125 620.83203125 l 1
 1112.5 620.83203125 l 2
 1054.25 620.83203125 1002.58105469 648.88671875 969.8671875 692.08203125 c 1
1045.83203125 545.83203125 m 1
 1379.16796875 545.83203125 l 1
 1379.16796875 520.83203125 l 1
 1325.34179688 520.83203125 1278.07714844 493.385742188 1250.51171875 451.7109375 c 1
 1276.31933594 414.569335938 1319.2734375 390.2890625 1368.046875 390.2890625 c 2
 1845.83203125 390.2890625 l 1
 1845.83203125 390.2578125 l 1
 1845.83203125 365.2578125 l 1
 1803.50195312 365.2578125 1769.453125 331.208984375 1769.453125 288.87890625 c 2
 1769.453125 234.7109375 l 1
 1845.83203125 234.7109375 l 1
 1845.83203125 209.7109375 l 1
 1769.453125 209.7109375 l 1
 1769.453125 66.66796875 l 1
 1744.453125 66.66796875 l 1
 1744.453125 209.7109375 l 1
 1591.69140625 209.7109375 l 1
 1591.69140625 66.66796875 l 1
 1566.69140625 66.66796875 l 1
 1566.69140625 209.7109375 l 1
 1413.93359375 209.7109375 l 1
 1413.93359375 66.66796875 l 1
 1388.93359375 66.66796875 l 1
 1388.93359375 209.7109375 l 1
 1201.37890625 209.7109375 l 2
 1140.89550781 209.7109375 1087.93359375 241.936523438 1058.33203125 290.013671875 c 1
 1058.33203125 66.66796875 l 1
 1033.33203125 66.66796875 l 1
 1033.33203125 377.7578125 l 1
 1058.33203125 377.7578125 l 1
 1058.33203125 299.0703125 1121.49023438 235.486328125 1200 234.74609375 c 1
 1200 366.66796875 l 1
 1200 520.83203125 l 1
 1045.83203125 520.83203125 l 1
 1045.83203125 545.83203125 l 1
1225.57421875 520.83203125 m 1
 1226.953125 504.833984375 1230.9453125 489.60546875 1237.13476562 475.5625 c 1
 1251.12597656 493.706054688 1268.51464844 509.111328125 1288.33007812 520.83203125 c 1
 1225.57421875 520.83203125 l 1
933.29296875 436.4921875 m 1
 796.802734375 300 l 1
 933.29296875 163.5078125 l 1
 933.29296875 436.4921875 l 1
1237.58984375 427.8359375 m 1
 1229.50097656 409.090820312 1225 388.418945312 1225 366.66796875 c 2
 1225 234.7109375 l 1
 1388.93359375 234.7109375 l 1
 1388.93359375 288.87890625 l 2
 1388.93359375 319.329101562 1402.53613281 346.6484375 1423.90429688 365.2578125 c 1
 1312.5546875 365.2578125 l 1
 1312.5546875 374.7890625 l 1
 1282.88476562 385.249023438 1257.01660156 403.817382812 1237.58984375 427.8359375 c 1
125 375.830078125 m 1
 125 133.33203125 l 2
 125 48.041015625 193.876953125 -20.83203125 279.16796875 -20.83203125 c 2
 933.29296875 -20.83203125 l 1
 933.29296875 128.154296875 l 1
 773.947265625 287.5 l 1
 279.16796875 287.5 l 2
 213.541015625 287.5 156.209960938 323.064453125 125 375.830078125 c 1
1490.3125 365.2578125 m 2
 1447.98242188 365.2578125 1413.93359375 331.208984375 1413.93359375 288.87890625 c 2
 1413.93359375 234.7109375 l 1
 1566.69140625 234.7109375 l 1
 1566.69140625 288.87890625 l 2
 1566.69140625 319.329101562 1580.29492188 346.6484375 1601.6640625 365.2578125 c 1
 1490.3125 365.2578125 l 2
1668.07421875 365.2578125 m 2
 1625.73925781 365.2578125 1591.69140625 331.208984375 1591.69140625 288.87890625 c 2
 1591.69140625 234.7109375 l 1
 1744.453125 234.7109375 l 1
 1744.453125 288.87890625 l 2
 1744.453125 319.329101562 1758.05664062 346.6484375 1779.42578125 365.2578125 c 1
 1668.07421875 365.2578125 l 2
EndSplineSet
EndChar

StartChar: U12387
Encoding: 303 74631 47
Width: 2212
VWidth: 100
Flags: W
HStem: -45.832 25<220.617 1016.67 1137.28 1933.33> 170.832 25<1198.35 1295.83 1377.51 1487.5> 287.5 25<220.617 857.322 1487.5 1599.99 1640.6 1666.67> 404.168 25<1198.35 1295.83 1377.51 1487.5> 520.832 25<1666.67 1779.15 1804.22 1845.83> 620.832 25<1136.17 1933.33> 787.5 25<862.5 1016.67 1042.21 1105 1135.81 1195.83 1779.17 2021.66 2052.43 2112.5>
VStem: 100 25<-200 42.4961 73.2617 375.83 406.597 466.668> 1016.67 25<-200 -45.832 -20.832 42.4941 73.2617 128.154 163.508 436.49 471.844 691.198 742.057 787.5> 1116.67 25<66.668 223.967 252.512 457.303 485.845 533.332> 1295.83 25<66.668 170.832 195.832 223.969 252.513 404.168 429.168 457.303 485.845 533.332> 1564.58 25<66.668 252.029> 1743.75 25<66.668 485.363> 1933.33 25<-200 -45.832 -20.832 620.832 645.832 691.909>
LayerCount: 2
Fore
SplineSet
862.5 812.5 m 1
 1195.83203125 812.5 l 1
 1195.83203125 787.5 l 1
 1141.27734375 787.5 1093.47558594 759.295898438 1066.08203125 716.666015625 c 1
 1093.47558594 674.036132812 1141.27734375 645.83203125 1195.83203125 645.83203125 c 2
 1933.76953125 645.83203125 l 1
 1937.96289062 706.193359375 1972.27636719 758.2890625 2021.66210938 787.5 c 1
 1779.16796875 787.5 l 1
 1779.16796875 812.5 l 1
 2112.5 812.5 l 1
 2112.5 787.5 l 1
 2027.20898438 787.5 1958.33203125 718.623046875 1958.33203125 633.33203125 c 2
 1958.33203125 -200 l 1
 1933.33203125 -200 l 1
 1933.33203125 -45.83203125 l 1
 1195.83203125 -45.83203125 l 2
 1130.20605469 -45.83203125 1072.87695312 -10.26953125 1041.66796875 42.494140625 c 1
 1041.66796875 -200 l 1
 1016.66796875 -200 l 1
 1016.66796875 -45.83203125 l 1
 279.16796875 -45.83203125 l 2
 213.541015625 -45.83203125 156.209960938 -10.2685546875 125 42.49609375 c 1
 125 -200 l 1
 100 -200 l 1
 100 133.33203125 l 1
 100 466.66796875 l 1
 125 466.66796875 l 1
 125 381.376953125 193.876953125 312.5 279.16796875 312.5 c 2
 857.322265625 312.5 l 1
 1016.66796875 471.84375 l 1
 1016.66796875 633.33203125 l 1
 1016.66796875 787.5 l 1
 862.5 787.5 l 1
 862.5 812.5 l 1
1042.21484375 787.5 m 1
 1043.51074219 771.282226562 1047.28320312 755.782226562 1053.19140625 741.380859375 c 1
 1067.29003906 759.884765625 1084.87988281 775.6015625 1104.99609375 787.5 c 1
 1042.21484375 787.5 l 1
1053.22851562 692.046875 m 1
 1045.79199219 673.955078125 1041.66796875 654.138671875 1041.66796875 633.33203125 c 2
 1041.66796875 466.66796875 l 1
 1041.66796875 133.33203125 l 2
 1041.66796875 48.041015625 1110.54101562 -20.83203125 1195.83203125 -20.83203125 c 2
 1933.33203125 -20.83203125 l 1
 1933.33203125 620.83203125 l 1
 1195.83203125 620.83203125 l 2
 1137.59765625 620.83203125 1085.94335938 648.87109375 1053.22851562 692.046875 c 1
1666.66796875 545.83203125 m 1
 1845.83203125 545.83203125 l 1
 1845.83203125 520.83203125 l 1
 1803.11621094 520.83203125 1768.75 486.470703125 1768.75 443.75 c 2
 1768.75 66.66796875 l 1
 1743.75 66.66796875 l 1
 1743.75 443.75 l 2
 1743.75 474.505859375 1757.52539062 502.090820312 1779.15429688 520.83203125 c 1
 1666.66796875 520.83203125 l 1
 1666.66796875 545.83203125 l 1
1626.58007812 542.171875 m 1
 1644.25585938 524.4921875 l 1
 1536.42773438 416.66796875 l 1
 1640.59570312 312.5 l 1
 1666.66796875 312.5 l 1
 1666.66796875 287.5 l 1
 1623.94628906 287.5 1589.58203125 253.134765625 1589.58203125 210.41796875 c 2
 1589.58203125 66.66796875 l 1
 1564.58203125 66.66796875 l 1
 1564.58203125 210.41796875 l 2
 1564.58203125 241.172851562 1578.35742188 268.758789062 1599.98828125 287.5 c 1
 1487.5 287.5 l 1
 1487.5 312.5 l 1
 1605.2421875 312.5 l 1
 1501.07226562 416.66796875 l 1
 1626.58007812 542.171875 l 1
1116.66796875 533.33203125 m 1
 1141.66796875 533.33203125 l 1
 1141.66796875 475.653320312 1188.15429688 429.16796875 1245.83203125 429.16796875 c 2
 1295.83203125 429.16796875 l 1
 1295.83203125 533.33203125 l 1
 1320.83203125 533.33203125 l 1
 1320.83203125 475.653320312 1367.32128906 429.16796875 1425 429.16796875 c 2
 1487.5 429.16796875 l 1
 1487.5 404.16796875 l 1
 1425 404.16796875 l 2
 1382.24121094 404.16796875 1344.35839844 425.170898438 1320.83203125 457.302734375 c 1
 1320.83203125 300 l 2
 1320.83203125 242.323242188 1367.32226562 195.83203125 1425 195.83203125 c 2
 1487.5 195.83203125 l 1
 1487.5 170.83203125 l 1
 1425 170.83203125 l 2
 1382.24023438 170.83203125 1344.35839844 191.8359375 1320.83203125 223.96875 c 1
 1320.83203125 66.66796875 l 1
 1295.83203125 66.66796875 l 1
 1295.83203125 170.83203125 l 1
 1245.83203125 170.83203125 l 2
 1203.07421875 170.83203125 1165.19335938 191.834960938 1141.66796875 223.966796875 c 1
 1141.66796875 66.66796875 l 1
 1116.66796875 66.66796875 l 1
 1116.66796875 300 l 1
 1116.66796875 533.33203125 l 1
1141.66796875 457.302734375 m 1
 1141.66796875 300 l 2
 1141.66796875 242.322265625 1188.15429688 195.83203125 1245.83203125 195.83203125 c 2
 1295.83203125 195.83203125 l 1
 1295.83203125 300 l 1
 1295.83203125 404.16796875 l 1
 1245.83203125 404.16796875 l 2
 1203.07324219 404.16796875 1165.19335938 425.170898438 1141.66796875 457.302734375 c 1
1016.66796875 436.490234375 m 1
 880.177734375 300 l 1
 1016.66796875 163.5078125 l 1
 1016.66796875 436.490234375 l 1
125 375.830078125 m 1
 125 133.33203125 l 2
 125 48.041015625 193.876953125 -20.83203125 279.16796875 -20.83203125 c 2
 1016.66796875 -20.83203125 l 1
 1016.66796875 128.154296875 l 1
 857.322265625 287.5 l 1
 279.16796875 287.5 l 2
 213.541015625 287.5 156.209960938 323.064453125 125 375.830078125 c 1
EndSplineSet
EndChar

StartChar: U12384
Encoding: 304 74628 48
Width: 2212
VWidth: 100
Flags: W
HStem: -45.832 25<220.617 1016.67 1137.28 1933.33> 170.832 25<1198.35 1475 1500 1845.83> 287.5 25<220.617 857.322> 404.168 25<1198.35 1478.98 1513.19 1845.83> 520.832 25<1320.83 1563.33 1593.22 1654.17> 620.832 25<1136.17 1933.33> 787.5 25<862.5 1016.67 1042.21 1105 1135.81 1195.83 1779.17 2021.66 2052.43 2112.5>
VStem: 100 25<-200 42.4961 73.2617 375.83 406.597 466.668> 1016.67 25<-200 -45.832 -20.832 42.4941 73.2617 128.154 163.508 436.49 471.844 691.198 742.057 787.5> 1116.67 25<66.668 223.967 252.512 457.303 485.845 533.332> 1475 25<66.668 170.832 195.832 404.168> 1933.33 25<-200 -45.832 -20.832 620.832 645.832 691.909>
LayerCount: 2
Fore
SplineSet
862.5 812.5 m 1
 1195.83203125 812.5 l 1
 1195.83203125 787.5 l 1
 1141.27734375 787.5 1093.47558594 759.295898438 1066.08203125 716.666015625 c 1
 1093.47558594 674.036132812 1141.27734375 645.83203125 1195.83203125 645.83203125 c 2
 1933.76953125 645.83203125 l 1
 1937.96289062 706.193359375 1972.27636719 758.2890625 2021.66210938 787.5 c 1
 1779.16796875 787.5 l 1
 1779.16796875 812.5 l 1
 2112.5 812.5 l 1
 2112.5 787.5 l 1
 2027.20898438 787.5 1958.33203125 718.623046875 1958.33203125 633.33203125 c 2
 1958.33203125 -200 l 1
 1933.33203125 -200 l 1
 1933.33203125 -45.83203125 l 1
 1195.83203125 -45.83203125 l 2
 1130.20605469 -45.83203125 1072.87695312 -10.26953125 1041.66796875 42.494140625 c 1
 1041.66796875 -200 l 1
 1016.66796875 -200 l 1
 1016.66796875 -45.83203125 l 1
 279.16796875 -45.83203125 l 2
 213.541015625 -45.83203125 156.209960938 -10.2685546875 125 42.49609375 c 1
 125 -200 l 1
 100 -200 l 1
 100 133.33203125 l 1
 100 466.66796875 l 1
 125 466.66796875 l 1
 125 381.376953125 193.876953125 312.5 279.16796875 312.5 c 2
 857.322265625 312.5 l 1
 1016.66796875 471.84375 l 1
 1016.66796875 633.33203125 l 1
 1016.66796875 787.5 l 1
 862.5 787.5 l 1
 862.5 812.5 l 1
1042.21484375 787.5 m 1
 1043.51074219 771.282226562 1047.28320312 755.782226562 1053.19140625 741.380859375 c 1
 1067.29003906 759.884765625 1084.87988281 775.6015625 1104.99609375 787.5 c 1
 1042.21484375 787.5 l 1
1053.22851562 692.046875 m 1
 1045.79199219 673.955078125 1041.66796875 654.138671875 1041.66796875 633.33203125 c 2
 1041.66796875 466.66796875 l 1
 1041.66796875 133.33203125 l 2
 1041.66796875 48.041015625 1110.54101562 -20.83203125 1195.83203125 -20.83203125 c 2
 1933.33203125 -20.83203125 l 1
 1933.33203125 620.83203125 l 1
 1195.83203125 620.83203125 l 2
 1137.59765625 620.83203125 1085.94335938 648.87109375 1053.22851562 692.046875 c 1
1320.83203125 545.83203125 m 1
 1654.16796875 545.83203125 l 1
 1654.16796875 520.83203125 l 1
 1591.14746094 520.83203125 1537.12597656 483.209960938 1513.19140625 429.16796875 c 1
 1845.83203125 429.16796875 l 1
 1845.83203125 404.16796875 l 1
 1504.59570312 404.16796875 l 1
 1501.60742188 392.165039062 1500 379.609375 1500 366.66796875 c 2
 1500 195.83203125 l 1
 1845.83203125 195.83203125 l 1
 1845.83203125 170.83203125 l 1
 1500 170.83203125 l 1
 1500 66.66796875 l 1
 1475 66.66796875 l 1
 1475 170.83203125 l 1
 1245.83203125 170.83203125 l 2
 1203.07421875 170.83203125 1165.19335938 191.834960938 1141.66796875 223.966796875 c 1
 1141.66796875 66.66796875 l 1
 1116.66796875 66.66796875 l 1
 1116.66796875 300 l 1
 1116.66796875 533.33203125 l 1
 1141.66796875 533.33203125 l 1
 1141.66796875 475.653320312 1188.15429688 429.16796875 1245.83203125 429.16796875 c 2
 1486.30664062 429.16796875 l 1
 1500.78417969 467.774414062 1528.24609375 500.081054688 1563.33007812 520.83203125 c 1
 1320.83203125 520.83203125 l 1
 1320.83203125 545.83203125 l 1
1141.66796875 457.302734375 m 1
 1141.66796875 300 l 2
 1141.66796875 242.322265625 1188.15429688 195.83203125 1245.83203125 195.83203125 c 2
 1475 195.83203125 l 1
 1475 366.66796875 l 2
 1475 379.534179688 1476.38671875 392.07421875 1478.98242188 404.16796875 c 1
 1245.83203125 404.16796875 l 2
 1203.07324219 404.16796875 1165.19335938 425.170898438 1141.66796875 457.302734375 c 1
1016.66796875 436.490234375 m 1
 880.177734375 300 l 1
 1016.66796875 163.5078125 l 1
 1016.66796875 436.490234375 l 1
125 375.830078125 m 1
 125 133.33203125 l 2
 125 48.041015625 193.876953125 -20.83203125 279.16796875 -20.83203125 c 2
 1016.66796875 -20.83203125 l 1
 1016.66796875 128.154296875 l 1
 857.322265625 287.5 l 1
 279.16796875 287.5 l 2
 213.541015625 287.5 156.209960938 323.064453125 125 375.830078125 c 1
EndSplineSet
EndChar

StartChar: U12380
Encoding: 305 74624 49
Width: 2212
VWidth: 100
Flags: W
HStem: -45.832 25<220.617 1016.67 1137.28 1933.33> 170.832 25<1198.35 1666.67> 287.5 25<220.617 857.322> 404.168 25<1198.35 1670.65> 520.832 25<1512.5 1754.99 1785.76 1845.83> 620.832 25<1136.17 1933.33> 787.5 25<862.5 1016.67 1042.21 1105 1135.81 1195.83 1779.17 2021.66 2052.43 2112.5>
VStem: 100 25<-200 42.4961 73.2617 375.83 406.597 466.668> 1016.67 25<-200 -45.832 -20.832 42.4941 73.2617 128.154 163.508 436.49 471.844 691.198 742.057 787.5> 1116.67 25<66.668 223.967 252.512 457.303 485.845 533.332> 1666.67 25<66.668 170.832 195.832 401.53> 1933.33 25<-200 -45.832 -20.832 620.832 645.832 691.909>
LayerCount: 2
Fore
SplineSet
862.5 812.5 m 1
 1195.83203125 812.5 l 1
 1195.83203125 787.5 l 1
 1141.27734375 787.5 1093.47558594 759.295898438 1066.08203125 716.666015625 c 1
 1093.47558594 674.036132812 1141.27734375 645.83203125 1195.83203125 645.83203125 c 2
 1933.76953125 645.83203125 l 1
 1937.96289062 706.193359375 1972.27636719 758.2890625 2021.66210938 787.5 c 1
 1779.16796875 787.5 l 1
 1779.16796875 812.5 l 1
 2112.5 812.5 l 1
 2112.5 787.5 l 1
 2027.20898438 787.5 1958.33203125 718.623046875 1958.33203125 633.33203125 c 2
 1958.33203125 -200 l 1
 1933.33203125 -200 l 1
 1933.33203125 -45.83203125 l 1
 1195.83203125 -45.83203125 l 2
 1130.20605469 -45.83203125 1072.87695312 -10.26953125 1041.66796875 42.494140625 c 1
 1041.66796875 -200 l 1
 1016.66796875 -200 l 1
 1016.66796875 -45.83203125 l 1
 279.16796875 -45.83203125 l 2
 213.541015625 -45.83203125 156.209960938 -10.2685546875 125 42.49609375 c 1
 125 -200 l 1
 100 -200 l 1
 100 133.33203125 l 1
 100 466.66796875 l 1
 125 466.66796875 l 1
 125 381.376953125 193.876953125 312.5 279.16796875 312.5 c 2
 857.322265625 312.5 l 1
 1016.66796875 471.84375 l 1
 1016.66796875 633.33203125 l 1
 1016.66796875 787.5 l 1
 862.5 787.5 l 1
 862.5 812.5 l 1
1042.21484375 787.5 m 1
 1043.51074219 771.282226562 1047.28320312 755.782226562 1053.19140625 741.380859375 c 1
 1067.29003906 759.884765625 1084.87988281 775.6015625 1104.99609375 787.5 c 1
 1042.21484375 787.5 l 1
1053.22851562 692.046875 m 1
 1045.79199219 673.955078125 1041.66796875 654.138671875 1041.66796875 633.33203125 c 2
 1041.66796875 466.66796875 l 1
 1041.66796875 133.33203125 l 2
 1041.66796875 48.041015625 1110.54101562 -20.83203125 1195.83203125 -20.83203125 c 2
 1933.33203125 -20.83203125 l 1
 1933.33203125 620.83203125 l 1
 1195.83203125 620.83203125 l 2
 1137.59765625 620.83203125 1085.94335938 648.87109375 1053.22851562 692.046875 c 1
1512.5 545.83203125 m 1
 1845.83203125 545.83203125 l 1
 1845.83203125 520.83203125 l 1
 1760.54101562 520.83203125 1691.66796875 451.958984375 1691.66796875 366.66796875 c 2
 1691.66796875 66.66796875 l 1
 1666.66796875 66.66796875 l 1
 1666.66796875 170.83203125 l 1
 1245.83203125 170.83203125 l 2
 1203.07421875 170.83203125 1165.19335938 191.834960938 1141.66796875 223.966796875 c 1
 1141.66796875 66.66796875 l 1
 1116.66796875 66.66796875 l 1
 1116.66796875 300 l 1
 1116.66796875 533.33203125 l 1
 1141.66796875 533.33203125 l 1
 1141.66796875 475.653320312 1188.15429688 429.16796875 1245.83203125 429.16796875 c 2
 1677.97460938 429.16796875 l 1
 1692.45117188 467.774414062 1719.91210938 500.081054688 1754.99414062 520.83203125 c 1
 1512.5 520.83203125 l 1
 1512.5 545.83203125 l 1
1141.66796875 457.302734375 m 1
 1141.66796875 300 l 2
 1141.66796875 242.322265625 1188.15429688 195.83203125 1245.83203125 195.83203125 c 2
 1666.66796875 195.83203125 l 1
 1666.66796875 366.66796875 l 2
 1666.66796875 379.534179688 1668.05273438 392.07421875 1670.6484375 404.16796875 c 1
 1245.83203125 404.16796875 l 2
 1203.07324219 404.16796875 1165.19335938 425.170898438 1141.66796875 457.302734375 c 1
1016.66796875 436.490234375 m 1
 880.177734375 300 l 1
 1016.66796875 163.5078125 l 1
 1016.66796875 436.490234375 l 1
125 375.830078125 m 1
 125 133.33203125 l 2
 125 48.041015625 193.876953125 -20.83203125 279.16796875 -20.83203125 c 2
 1016.66796875 -20.83203125 l 1
 1016.66796875 128.154296875 l 1
 857.322265625 287.5 l 1
 279.16796875 287.5 l 2
 213.541015625 287.5 156.209960938 323.064453125 125 375.830078125 c 1
EndSplineSet
EndChar

StartChar: U12074
Encoding: 306 73844 50
Width: 2221
VWidth: 100
Flags: W
HStem: -143.221 24.6814<1068.52 1172.07> 287.5 25<220.617 1112.5> 454.168 25<1112.5 1355 1385.87 1415.66>
VStem: 100 25<133.332 375.83 406.597 466.668> 1169.28 24.6814<740.426 843.981> 1266.67 25<-200 -63.5078 -3.15234 358.551>
LayerCount: 2
Fore
SplineSet
1221.51367188 926.69140625 m 1
 1239.19140625 909.013671875 l 1
 1209.03710938 878.859375 1193.95996094 839.430175781 1193.95996094 800.000976562 c 0
 1193.95996094 760.571777344 1209.03710938 721.142578125 1239.19140625 690.98828125 c 2
 1612.5 317.6796875 l 1
 2103.66210938 808.83984375 l 1
 2121.33789062 791.162109375 l 1
 1630.17773438 300.001953125 l 1
 2121.33984375 -191.162109375 l 1
 2103.66210938 -208.83984375 l 1
 1612.5 282.32421875 l 1
 1291.66796875 -38.5078125 l 1
 1291.66796875 -200 l 1
 1266.66796875 -200 l 1
 1266.66796875 -63.5078125 l 1
 1239.18945312 -90.986328125 l 2
 1204.31171071 -125.864070536 1158.54167716 -143.221470247 1112.74387697 -143.221470247 c 0
 1097.60712997 -143.221470247 1082.46734979 -141.325373328 1067.71679688 -137.5390625 c 1
 1239.18945312 -309.01171875 l 1
 1221.51171875 -326.689453125 l 1
 985.80859375 -90.986328125 l 1
 1003.48632812 -73.30859375 l 1
 1033.640625 -103.462890625 1073.06982422 -118.540039062 1112.49902344 -118.540039062 c 0
 1151.92822266 -118.540039062 1191.35742188 -103.462890625 1221.51171875 -73.30859375 c 2
 1266.66796875 -28.15234375 l 1
 1266.66796875 300 l 2
 1266.66796875 365.626953125 1302.23144531 422.958007812 1354.99609375 454.16796875 c 1
 1112.5 454.16796875 l 1
 1112.5 479.16796875 l 1
 1415.65625 479.16796875 l 1
 1221.51367188 673.310546875 l 2
 1186.63592946 708.188289286 1169.27852975 753.958322839 1169.27852975 799.756123031 c 0
 1169.27852975 814.892870026 1171.17462667 830.032650209 1174.9609375 844.783203125 c 1
 1003.48632812 673.310546875 l 1
 985.810546875 690.986328125 l 1
 1221.51367188 926.69140625 l 1
686.9921875 808.837890625 m 1
 704.669921875 791.162109375 l 1
 546.845703125 633.33203125 l 1
 704.669921875 475.505859375 l 1
 686.9921875 457.830078125 l 1
 511.490234375 633.33203125 l 1
 686.9921875 808.837890625 l 1
100 466.66796875 m 1
 125 466.66796875 l 1
 125 381.376953125 193.876953125 312.5 279.16796875 312.5 c 2
 1112.5 312.5 l 1
 1112.5 287.5 l 1
 279.16796875 287.5 l 2
 213.541015625 287.5 156.209960938 323.064453125 125 375.830078125 c 1
 125 133.33203125 l 1
 100 133.33203125 l 1
 100 466.66796875 l 1
1440.78320312 454.041015625 m 1
 1357.84472656 451.380859375 1291.66796875 383.598632812 1291.66796875 300 c 2
 1291.66796875 -3.15234375 l 1
 1594.82226562 300.001953125 l 1
 1440.78320312 454.041015625 l 1
686.9921875 142.169921875 m 1
 704.669921875 124.494140625 l 1
 546.845703125 -33.33203125 l 1
 704.669921875 -191.16015625 l 1
 686.9921875 -208.837890625 l 1
 511.490234375 -33.33203125 l 1
 686.9921875 142.169921875 l 1
EndSplineSet
EndChar

StartChar: U1216f
Encoding: 307 74095 51
Width: 2212
VWidth: 100
Flags: W
HStem: -45.832 25<220.617 1016.67 1137.28 1933.33> 287.5 25<220.617 857.322 1198.34 1563.33 1594.1 1767.16 1829.89 1845.83> 620.832 25<1136.17 1933.33> 787.5 25<862.5 1016.67 1042.21 1105 1135.81 1195.83 1779.17 2021.66 2052.43 2112.5>
VStem: 100 25<-200 42.4961 73.2617 375.83 406.597 466.668> 1016.67 25<-200 -45.832 -20.832 42.4941 73.2617 128.154 163.508 436.49 471.844 691.198 742.057 787.5> 1116.67 25<183.352 340.625 369.17 416.648> 1363.29 23.7734<558.287 574.331> 1475 25<66.668 191.848> 1933.33 25<-200 -45.832 -20.832 620.832 645.832 691.909>
LayerCount: 2
Fore
SplineSet
862.5 812.5 m 1
 1195.83203125 812.5 l 1
 1195.83203125 787.5 l 1
 1141.27734375 787.5 1093.47558594 759.295898438 1066.08203125 716.666015625 c 1
 1093.47558594 674.036132812 1141.27734375 645.83203125 1195.83203125 645.83203125 c 2
 1933.76953125 645.83203125 l 1
 1937.96289062 706.193359375 1972.27636719 758.2890625 2021.66210938 787.5 c 1
 1779.16796875 787.5 l 1
 1779.16796875 812.5 l 1
 2112.5 812.5 l 1
 2112.5 787.5 l 1
 2027.20898438 787.5 1958.33203125 718.623046875 1958.33203125 633.33203125 c 2
 1958.33203125 -200 l 1
 1933.33203125 -200 l 1
 1933.33203125 -45.83203125 l 1
 1195.83203125 -45.83203125 l 2
 1130.20605469 -45.83203125 1072.87695312 -10.26953125 1041.66796875 42.494140625 c 1
 1041.66796875 -200 l 1
 1016.66796875 -200 l 1
 1016.66796875 -45.83203125 l 1
 279.16796875 -45.83203125 l 2
 213.541015625 -45.83203125 156.209960938 -10.2685546875 125 42.49609375 c 1
 125 -200 l 1
 100 -200 l 1
 100 133.33203125 l 1
 100 466.66796875 l 1
 125 466.66796875 l 1
 125 381.376953125 193.876953125 312.5 279.16796875 312.5 c 2
 857.322265625 312.5 l 1
 1016.66796875 471.84375 l 1
 1016.66796875 633.33203125 l 1
 1016.66796875 787.5 l 1
 862.5 787.5 l 1
 862.5 812.5 l 1
1042.21484375 787.5 m 1
 1043.51074219 771.282226562 1047.28320312 755.782226562 1053.19140625 741.380859375 c 1
 1067.29003906 759.884765625 1084.87988281 775.6015625 1104.99609375 787.5 c 1
 1042.21484375 787.5 l 1
1053.22851562 692.046875 m 1
 1045.79199219 673.955078125 1041.66796875 654.138671875 1041.66796875 633.33203125 c 2
 1041.66796875 466.66796875 l 1
 1041.66796875 133.33203125 l 2
 1041.66796875 48.041015625 1110.54101562 -20.83203125 1195.83203125 -20.83203125 c 2
 1933.33203125 -20.83203125 l 1
 1933.33203125 620.83203125 l 1
 1195.83203125 620.83203125 l 2
 1137.59765625 620.83203125 1085.94335938 648.87109375 1053.22851562 692.046875 c 1
1363.29296875 579.791015625 m 1
 1387.06640625 572.052734375 l 1
 1383.56035775 561.282348263 1381.89310659 550.367093374 1381.89310659 539.644141604 c 0
 1381.89310659 495.77557808 1409.79792168 455.125595617 1453.86132812 440.78125 c 2
 1849.70117188 311.921875 l 1
 1845.83203125 300.03515625 l 1
 1845.83203125 287.5 l 1
 1654.16796875 287.5 l 1
 1654.16796875 287.46484375 l 1
 1568.87695312 287.46484375 1500 218.587890625 1500 133.296875 c 2
 1500 66.66796875 l 1
 1475 66.66796875 l 1
 1475 133.296875 l 2
 1475 198.923828125 1510.56445312 256.254882812 1563.33007812 287.46484375 c 1
 1320.83203125 287.46484375 l 1
 1320.83203125 287.5 l 1
 1245.81640625 287.5 l 2
 1203.06445312 287.5 1165.19042969 308.5 1141.66796875 340.625 c 1
 1141.66796875 183.3515625 l 1
 1116.66796875 183.3515625 l 1
 1116.66796875 416.6484375 l 1
 1141.66796875 416.6484375 l 1
 1141.66796875 358.981445312 1188.14550781 312.5 1245.81640625 312.5 c 2
 1767.15820312 312.5 l 1
 1446.12304688 417.0078125 l 2
 1405.47265625 430.241210938 1375.95703125 461.932617188 1363.53320312 499.76171875 c 1
 1314.8515625 350.212890625 l 1
 1291.078125 357.951171875 l 1
 1363.29296875 579.791015625 l 1
1016.66796875 436.490234375 m 1
 880.177734375 300 l 1
 1016.66796875 163.5078125 l 1
 1016.66796875 436.490234375 l 1
125 375.830078125 m 1
 125 133.33203125 l 2
 125 48.041015625 193.876953125 -20.83203125 279.16796875 -20.83203125 c 2
 1016.66796875 -20.83203125 l 1
 1016.66796875 128.154296875 l 1
 857.322265625 287.5 l 1
 279.16796875 287.5 l 2
 213.541015625 287.5 156.209960938 323.064453125 125 375.830078125 c 1
EndSplineSet
EndChar

StartChar: U12187
Encoding: 308 74119 52
Width: 2212
VWidth: 100
Flags: W
HStem: -45.832 25<220.617 1016.67 1137.28 1933.33> 287.5 25<220.617 857.322> 620.832 25<1136.17 1933.33> 787.5 25<862.5 1016.67 1042.21 1105 1135.81 1195.83 1779.17 2021.66 2052.43 2112.5>
VStem: 100 25<-200 42.4961 73.2617 375.83 406.597 466.668> 1016.67 25<-200 -45.832 -20.832 42.4941 73.2617 128.154 163.508 436.49 471.844 691.198 742.057 787.5> 1933.33 25<-200 -45.832 -20.832 620.832 645.832 691.909>
LayerCount: 2
Fore
SplineSet
862.5 812.5 m 1
 1195.83203125 812.5 l 1
 1195.83203125 787.5 l 1
 1141.27734375 787.5 1093.47558594 759.295898438 1066.08203125 716.666015625 c 1
 1093.47558594 674.036132812 1141.27734375 645.83203125 1195.83203125 645.83203125 c 2
 1933.76953125 645.83203125 l 1
 1937.96289062 706.193359375 1972.27636719 758.2890625 2021.66210938 787.5 c 1
 1779.16796875 787.5 l 1
 1779.16796875 812.5 l 1
 2112.5 812.5 l 1
 2112.5 787.5 l 1
 2027.20898438 787.5 1958.33203125 718.623046875 1958.33203125 633.33203125 c 2
 1958.33203125 -200 l 1
 1933.33203125 -200 l 1
 1933.33203125 -45.83203125 l 1
 1195.83203125 -45.83203125 l 2
 1130.20605469 -45.83203125 1072.87695312 -10.26953125 1041.66796875 42.494140625 c 1
 1041.66796875 -200 l 1
 1016.66796875 -200 l 1
 1016.66796875 -45.83203125 l 1
 279.16796875 -45.83203125 l 2
 213.541015625 -45.83203125 156.209960938 -10.2685546875 125 42.49609375 c 1
 125 -200 l 1
 100 -200 l 1
 100 133.33203125 l 1
 100 466.66796875 l 1
 125 466.66796875 l 1
 125 381.376953125 193.876953125 312.5 279.16796875 312.5 c 2
 857.322265625 312.5 l 1
 1016.66796875 471.84375 l 1
 1016.66796875 633.33203125 l 1
 1016.66796875 787.5 l 1
 862.5 787.5 l 1
 862.5 812.5 l 1
1042.21484375 787.5 m 1
 1043.51074219 771.282226562 1047.28320312 755.782226562 1053.19140625 741.380859375 c 1
 1067.29003906 759.884765625 1084.87988281 775.6015625 1104.99609375 787.5 c 1
 1042.21484375 787.5 l 1
1053.22851562 692.046875 m 1
 1045.79199219 673.955078125 1041.66796875 654.138671875 1041.66796875 633.33203125 c 2
 1041.66796875 466.66796875 l 1
 1041.66796875 133.33203125 l 2
 1041.66796875 48.041015625 1110.54101562 -20.83203125 1195.83203125 -20.83203125 c 2
 1933.33203125 -20.83203125 l 1
 1933.33203125 620.83203125 l 1
 1195.83203125 620.83203125 l 2
 1137.59765625 620.83203125 1085.94335938 648.87109375 1053.22851562 692.046875 c 1
1561.9921875 475.505859375 m 1
 1579.66992188 457.830078125 l 1
 1421.84570312 300 l 1
 1579.66992188 142.169921875 l 1
 1561.9921875 124.4921875 l 1
 1386.49023438 300 l 1
 1561.9921875 475.505859375 l 1
1016.66796875 436.490234375 m 1
 880.177734375 300 l 1
 1016.66796875 163.5078125 l 1
 1016.66796875 436.490234375 l 1
125 375.830078125 m 1
 125 133.33203125 l 2
 125 48.041015625 193.876953125 -20.83203125 279.16796875 -20.83203125 c 2
 1016.66796875 -20.83203125 l 1
 1016.66796875 128.154296875 l 1
 857.322265625 287.5 l 1
 279.16796875 287.5 l 2
 213.541015625 287.5 156.209960938 323.064453125 125 375.830078125 c 1
EndSplineSet
EndChar

StartChar: Ue003
Encoding: 309 57347 53
Width: 2212
VWidth: 100
Flags: W
HStem: -45.832 25<220.617 933.332 1053.95 1933.33> 170.832 25<1231.68 1491.67 1573.35 1845.83> 287.5 25<220.617 773.99> 404.168 25<1231.68 1491.67 1573.35 1845.83> 620.832 25<1052.84 1933.33> 787.5 25<779.168 933.332 958.877 1021.66 1052.47 1112.5 1779.17 2021.66 2052.43 2112.5>
VStem: 100 25<-200 42.4961 73.2617 375.83 406.597 466.668> 933.332 25<-200 -45.832 -20.832 42.4961 73.2617 128.152 163.508 436.492 471.846 691.198 742.057 787.5> 1150 25<96.8457 223.969 252.513 269.822 330.18 457.303 485.845 503.154> 1491.67 25<66.668 170.832 195.832 223.967 252.512 404.168 429.168 457.303 485.845 533.332> 1933.33 25<-200 -45.832 -20.832 620.832 645.832 691.909>
LayerCount: 2
Fore
SplineSet
779.16796875 812.5 m 1
 1112.5 812.5 l 1
 1112.5 787.5 l 1
 1057.9453125 787.5 1010.14257812 759.294921875 982.748046875 716.666015625 c 1
 1010.14257812 674.037109375 1057.9453125 645.83203125 1112.5 645.83203125 c 2
 1933.76953125 645.83203125 l 1
 1937.96289062 706.193359375 1972.27636719 758.2890625 2021.66210938 787.5 c 1
 1779.16796875 787.5 l 1
 1779.16796875 812.5 l 1
 2112.5 812.5 l 1
 2112.5 787.5 l 1
 2027.20898438 787.5 1958.33203125 718.623046875 1958.33203125 633.33203125 c 2
 1958.33203125 -200 l 1
 1933.33203125 -200 l 1
 1933.33203125 -45.83203125 l 1
 1112.5 -45.83203125 l 2
 1046.87304688 -45.83203125 989.541992188 -10.2685546875 958.33203125 42.49609375 c 1
 958.33203125 -200 l 1
 933.33203125 -200 l 1
 933.33203125 -45.83203125 l 1
 279.16796875 -45.83203125 l 2
 213.541015625 -45.83203125 156.209960938 -10.2685546875 125 42.49609375 c 1
 125 -200 l 1
 100 -200 l 1
 100 133.33203125 l 1
 100 466.66796875 l 1
 125 466.66796875 l 1
 125 381.376953125 193.876953125 312.5 279.16796875 312.5 c 2
 773.990234375 312.5 l 1
 933.33203125 471.845703125 l 1
 933.33203125 633.33203125 l 1
 933.33203125 787.5 l 1
 779.16796875 787.5 l 1
 779.16796875 812.5 l 1
958.876953125 787.5 m 1
 960.172851562 771.282226562 963.947265625 755.782226562 969.85546875 741.380859375 c 1
 983.954101562 759.884765625 1001.54589844 775.6015625 1021.66210938 787.5 c 1
 958.876953125 787.5 l 1
969.892578125 692.046875 m 1
 962.456054688 673.955078125 958.33203125 654.138671875 958.33203125 633.33203125 c 2
 958.33203125 466.66796875 l 1
 958.33203125 133.33203125 l 2
 958.33203125 48.041015625 1027.20800781 -20.83203125 1112.5 -20.83203125 c 2
 1933.33203125 -20.83203125 l 1
 1933.33203125 620.83203125 l 1
 1112.5 620.83203125 l 2
 1054.265625 620.83203125 1002.60839844 648.87109375 969.892578125 692.046875 c 1
1153.66210938 542.171875 m 1
 1162.5 533.33203125 l 1
 1175 533.33203125 l 1
 1175 475.653320312 1221.48925781 429.16796875 1279.16796875 429.16796875 c 2
 1491.66796875 429.16796875 l 1
 1491.66796875 533.33203125 l 1
 1516.66796875 533.33203125 l 1
 1516.66796875 475.653320312 1563.15429688 429.16796875 1620.83203125 429.16796875 c 2
 1845.83203125 429.16796875 l 1
 1845.83203125 404.16796875 l 1
 1620.83203125 404.16796875 l 2
 1578.07324219 404.16796875 1540.19335938 425.170898438 1516.66796875 457.302734375 c 1
 1516.66796875 300 l 2
 1516.66796875 242.322265625 1563.15429688 195.83203125 1620.83203125 195.83203125 c 2
 1845.83203125 195.83203125 l 1
 1845.83203125 170.83203125 l 1
 1620.83203125 170.83203125 l 2
 1578.07421875 170.83203125 1540.19335938 191.834960938 1516.66796875 223.966796875 c 1
 1516.66796875 66.66796875 l 1
 1491.66796875 66.66796875 l 1
 1491.66796875 170.83203125 l 1
 1279.16796875 170.83203125 l 2
 1236.40917969 170.83203125 1198.52636719 191.8359375 1175 223.96875 c 1
 1175 66.66796875 l 1
 1162.5 66.66796875 l 1
 1153.66210938 57.828125 l 1
 1028.15429688 183.33203125 l 1
 1144.82421875 300 l 1
 1028.15429688 416.66796875 l 1
 1153.66210938 542.171875 l 1
1150 503.154296875 m 1
 1063.50976562 416.66796875 l 1
 1150 330.1796875 l 1
 1150 503.154296875 l 1
1175 457.302734375 m 1
 1175 300 l 2
 1175 242.323242188 1221.49023438 195.83203125 1279.16796875 195.83203125 c 2
 1491.66796875 195.83203125 l 1
 1491.66796875 300 l 1
 1491.66796875 404.16796875 l 1
 1279.16796875 404.16796875 l 2
 1236.40917969 404.16796875 1198.52636719 425.170898438 1175 457.302734375 c 1
933.33203125 436.4921875 m 1
 796.845703125 300 l 1
 933.33203125 163.5078125 l 1
 933.33203125 436.4921875 l 1
125 375.830078125 m 1
 125 133.33203125 l 2
 125 48.041015625 193.876953125 -20.83203125 279.16796875 -20.83203125 c 2
 933.33203125 -20.83203125 l 1
 933.33203125 128.15234375 l 1
 773.990234375 287.5 l 1
 279.16796875 287.5 l 2
 213.541015625 287.5 156.209960938 323.064453125 125 375.830078125 c 1
1150 269.822265625 m 1
 1063.50976562 183.33203125 l 1
 1150 96.845703125 l 1
 1150 269.822265625 l 1
EndSplineSet
EndChar

StartChar: U12189
Encoding: 310 74121 54
Width: 2212
VWidth: 100
Flags: W
HStem: -45.832 25<220.617 1016.67 1137.28 1933.33> 287.5 25<220.617 857.322> 520.832 25<1491 1648.68 1676.81 1725.81> 620.832 25<1136.17 1933.33> 787.5 25<862.5 1016.67 1042.21 1105 1135.81 1195.83 1779.17 2021.66 2052.43 2112.5>
VStem: 100 25<-200 42.4961 73.2617 375.83 406.597 466.668> 1016.67 25<-200 -45.832 -20.832 42.4941 73.2617 128.154 163.508 436.49 471.844 691.198 742.057 787.5> 1593.32 25<66.668 462.269> 1933.33 25<-200 -45.832 -20.832 620.832 645.832 691.909>
LayerCount: 2
Fore
SplineSet
862.5 812.5 m 1
 1195.83203125 812.5 l 1
 1195.83203125 787.5 l 1
 1141.27734375 787.5 1093.47558594 759.295898438 1066.08203125 716.666015625 c 1
 1093.47558594 674.036132812 1141.27734375 645.83203125 1195.83203125 645.83203125 c 2
 1933.76953125 645.83203125 l 1
 1937.96289062 706.193359375 1972.27636719 758.2890625 2021.66210938 787.5 c 1
 1779.16796875 787.5 l 1
 1779.16796875 812.5 l 1
 2112.5 812.5 l 1
 2112.5 787.5 l 1
 2027.20898438 787.5 1958.33203125 718.623046875 1958.33203125 633.33203125 c 2
 1958.33203125 -200 l 1
 1933.33203125 -200 l 1
 1933.33203125 -45.83203125 l 1
 1195.83203125 -45.83203125 l 2
 1130.20605469 -45.83203125 1072.87695312 -10.26953125 1041.66796875 42.494140625 c 1
 1041.66796875 -200 l 1
 1016.66796875 -200 l 1
 1016.66796875 -45.83203125 l 1
 279.16796875 -45.83203125 l 2
 213.541015625 -45.83203125 156.209960938 -10.2685546875 125 42.49609375 c 1
 125 -200 l 1
 100 -200 l 1
 100 133.33203125 l 1
 100 466.66796875 l 1
 125 466.66796875 l 1
 125 381.376953125 193.876953125 312.5 279.16796875 312.5 c 2
 857.322265625 312.5 l 1
 1016.66796875 471.84375 l 1
 1016.66796875 633.33203125 l 1
 1016.66796875 787.5 l 1
 862.5 787.5 l 1
 862.5 812.5 l 1
1042.21484375 787.5 m 1
 1043.51074219 771.282226562 1047.28320312 755.782226562 1053.19140625 741.380859375 c 1
 1067.29003906 759.884765625 1084.87988281 775.6015625 1104.99609375 787.5 c 1
 1042.21484375 787.5 l 1
1053.22851562 692.046875 m 1
 1045.79199219 673.955078125 1041.66796875 654.138671875 1041.66796875 633.33203125 c 2
 1041.66796875 466.66796875 l 1
 1041.66796875 133.33203125 l 2
 1041.66796875 48.041015625 1110.54101562 -20.83203125 1195.83203125 -20.83203125 c 2
 1933.33203125 -20.83203125 l 1
 1933.33203125 620.83203125 l 1
 1195.83203125 620.83203125 l 2
 1137.59765625 620.83203125 1085.94335938 648.87109375 1053.22851562 692.046875 c 1
1485.8203125 545.83203125 m 1
 1725.80859375 545.83203125 l 1
 1725.80859375 520.83203125 l 1
 1666.29394531 520.83203125 1618.31640625 472.853515625 1618.31640625 413.33984375 c 2
 1618.31640625 66.66796875 l 1
 1593.31640625 66.66796875 l 1
 1593.31640625 413.33984375 l 2
 1593.31640625 457.584960938 1615.22753906 496.752929688 1648.67773438 520.83203125 c 1
 1490.99804688 520.83203125 l 1
 1386.83007812 416.66796875 l 1
 1494.65820312 308.83984375 l 1
 1485.81835938 300 l 1
 1494.65820312 291.162109375 l 1
 1386.83007812 183.333984375 l 1
 1494.65820312 75.5078125 l 1
 1476.98242188 57.828125 l 1
 1351.47460938 183.33203125 l 1
 1468.14257812 300 l 1
 1351.47460938 416.66796875 l 1
 1476.98242188 542.171875 l 1
 1485.8203125 533.33203125 l 1
 1485.8203125 545.83203125 l 1
1016.66796875 436.490234375 m 1
 880.177734375 300 l 1
 1016.66796875 163.5078125 l 1
 1016.66796875 436.490234375 l 1
125 375.830078125 m 1
 125 133.33203125 l 2
 125 48.041015625 193.876953125 -20.83203125 279.16796875 -20.83203125 c 2
 1016.66796875 -20.83203125 l 1
 1016.66796875 128.154296875 l 1
 857.322265625 287.5 l 1
 279.16796875 287.5 l 2
 213.541015625 287.5 156.209960938 323.064453125 125 375.830078125 c 1
EndSplineSet
EndChar

StartChar: U1216e
Encoding: 311 74094 55
Width: 2212
VWidth: 100
Flags: W
HStem: -45.832 25<220.617 933.332 1053.95 1933.33> 287.5 25<220.617 773.99 1552.6 1593.36> 520.832 25<1525.88 1622.87 1646.72 1782.85 1806.7 1845.83> 620.832 25<1052.84 1933.33> 787.5 25<779.168 933.332 958.877 1021.66 1052.47 1112.5 1779.17 2021.66 2052.43 2112.5>
VStem: 100 25<-200 42.4961 73.2617 375.83 406.597 466.668> 933.332 25<-200 -45.832 -20.832 42.4961 73.2617 128.152 163.508 436.492 471.846 691.198 742.057 787.5> 1292.08 24.7549<245.61 331.038> 1433.33 25<133.332 375.83 407.62 466.668> 1593.36 25<66.668 290.004 313.719 491.796> 1753.34 25<66.668 491.796> 1933.33 25<-200 -45.832 -20.832 620.832 645.832 691.909>
LayerCount: 2
Fore
SplineSet
779.16796875 812.5 m 1
 1112.5 812.5 l 1
 1112.5 787.5 l 1
 1057.9453125 787.5 1010.14257812 759.294921875 982.748046875 716.666015625 c 1
 1010.14257812 674.037109375 1057.9453125 645.83203125 1112.5 645.83203125 c 2
 1933.76953125 645.83203125 l 1
 1937.96289062 706.193359375 1972.27636719 758.2890625 2021.66210938 787.5 c 1
 1779.16796875 787.5 l 1
 1779.16796875 812.5 l 1
 2112.5 812.5 l 1
 2112.5 787.5 l 1
 2027.20898438 787.5 1958.33203125 718.623046875 1958.33203125 633.33203125 c 2
 1958.33203125 -200 l 1
 1933.33203125 -200 l 1
 1933.33203125 -45.83203125 l 1
 1112.5 -45.83203125 l 2
 1046.87304688 -45.83203125 989.541992188 -10.2685546875 958.33203125 42.49609375 c 1
 958.33203125 -200 l 1
 933.33203125 -200 l 1
 933.33203125 -45.83203125 l 1
 279.16796875 -45.83203125 l 2
 213.541015625 -45.83203125 156.209960938 -10.2685546875 125 42.49609375 c 1
 125 -200 l 1
 100 -200 l 1
 100 133.33203125 l 1
 100 466.66796875 l 1
 125 466.66796875 l 1
 125 381.376953125 193.876953125 312.5 279.16796875 312.5 c 2
 773.990234375 312.5 l 1
 933.33203125 471.845703125 l 1
 933.33203125 633.33203125 l 1
 933.33203125 787.5 l 1
 779.16796875 787.5 l 1
 779.16796875 812.5 l 1
958.876953125 787.5 m 1
 960.172851562 771.282226562 963.947265625 755.782226562 969.85546875 741.380859375 c 1
 983.954101562 759.884765625 1001.54589844 775.6015625 1021.66210938 787.5 c 1
 958.876953125 787.5 l 1
969.892578125 692.046875 m 1
 962.456054688 673.955078125 958.33203125 654.138671875 958.33203125 633.33203125 c 2
 958.33203125 466.66796875 l 1
 958.33203125 133.33203125 l 2
 958.33203125 48.041015625 1027.20800781 -20.83203125 1112.5 -20.83203125 c 2
 1933.33203125 -20.83203125 l 1
 1933.33203125 620.83203125 l 1
 1112.5 620.83203125 l 2
 1054.265625 620.83203125 1002.60839844 648.87109375 969.892578125 692.046875 c 1
1525.875 545.83203125 m 1
 1685.85546875 545.83203125 l 1
 1845.83203125 545.83203125 l 1
 1845.83203125 520.83203125 l 1
 1808.41210938 520.83203125 1778.34375 490.763671875 1778.34375 453.34375 c 2
 1778.34375 66.66796875 l 1
 1753.34375 66.66796875 l 1
 1753.34375 453.34375 l 2
 1753.34375 479.952148438 1764.75195312 503.9296875 1782.84765625 520.83203125 c 1
 1685.85546875 520.83203125 l 2
 1648.43066406 520.83203125 1618.36328125 490.763671875 1618.36328125 453.34375 c 2
 1618.36328125 66.66796875 l 1
 1593.36328125 66.66796875 l 1
 1593.36328125 288.53125 l 1
 1535.83203125 294.688476562 1486.46679688 328.263671875 1458.33203125 375.830078125 c 1
 1458.33203125 133.33203125 l 1
 1433.33203125 133.33203125 l 1
 1433.33203125 466.66796875 l 1
 1458.33203125 466.66796875 l 1
 1458.33203125 387.86328125 1517.14550781 323.118164062 1593.36328125 313.71875 c 1
 1593.36328125 453.34375 l 2
 1593.36328125 479.952148438 1604.77148438 503.9296875 1622.8671875 520.83203125 c 1
 1525.875 520.83203125 l 1
 1525.875 545.83203125 l 1
1236.9921875 508.837890625 m 1
 1254.671875 491.162109375 l 1
 1247.85668944 484.345947213 1244.44921874 475.506202562 1244.44921874 466.666408326 c 0
 1244.44921874 457.827247471 1247.85620115 448.988037039 1254.66992188 442.171875 c 2
 1312.5 384.345703125 l 1
 1336.99414062 408.83984375 l 1
 1354.66992188 391.162109375 l 1
 1329.44604493 365.937255855 1316.83374023 332.9681118 1316.83374023 299.999042701 c 0
 1316.83374023 267.030611801 1329.44555665 234.062255855 1354.66992188 208.837890625 c 1
 1336.9921875 191.162109375 l 1
 1307.01725388 221.137042993 1292.07882343 260.498787151 1292.07882343 299.87642352 c 0
 1292.07882343 310.612554352 1293.18927921 321.349866539 1295.40820312 331.8984375 c 1
 1154.66992188 191.162109375 l 1
 1136.99414062 208.837890625 l 1
 1161.49023438 233.333984375 l 1
 1103.66210938 291.162109375 l 2
 1094.53808594 300.286132812 1089.05859375 311.706054688 1087.11523438 323.607421875 c 1
 1054.66992188 291.162109375 l 1
 1036.9921875 308.837890625 l 1
 1103.66015625 375.505859375 l 1
 1115.4453125 363.720703125 l 1
 1103.66210938 375.5078125 l 1
 1170.328125 442.169921875 l 1
 1170.328125 442.171875 l 1
 1170.33007812 442.171875 l 1
 1236.9921875 508.837890625 l 1
1220.45117188 456.939453125 m 1
 1188.0078125 424.494140625 l 1
 1179.16796875 433.33203125 l 1
 1188.00585938 424.4921875 l 1
 1181.18994141 417.678222656 1177.78198242 408.839355469 1177.78198242 400.000366211 c 0
 1177.78198242 391.161376953 1181.18994141 382.322265625 1188.00585938 375.5078125 c 1
 1179.16796875 366.66796875 l 1
 1188.0078125 375.505859375 l 1
 1245.83203125 317.67578125 l 1
 1294.82226562 366.66796875 l 1
 1236.99414062 424.4921875 l 1
 1245.83203125 433.33203125 l 1
 1236.9921875 424.494140625 l 1
 1227.87011719 433.618164062 1222.39453125 445.0390625 1220.45117188 456.939453125 c 1
933.33203125 436.4921875 m 1
 796.845703125 300 l 1
 933.33203125 163.5078125 l 1
 933.33203125 436.4921875 l 1
1153.78515625 390.2734375 m 1
 1121.33789062 357.830078125 l 1
 1121.33789062 357.828125 l 1
 1114.52148438 351.011230469 1111.11328125 342.171875 1111.11328125 333.332641602 c 0
 1111.11328125 324.493408203 1114.52148438 315.654296875 1121.33789062 308.837890625 c 2
 1179.16601562 251.01171875 l 1
 1228.15429688 300 l 1
 1170.328125 357.830078125 l 2
 1161.20410156 366.953125 1155.72851562 378.373046875 1153.78515625 390.2734375 c 1
125 375.830078125 m 1
 125 133.33203125 l 2
 125 48.041015625 193.876953125 -20.83203125 279.16796875 -20.83203125 c 2
 933.33203125 -20.83203125 l 1
 933.33203125 128.15234375 l 1
 773.990234375 287.5 l 1
 279.16796875 287.5 l 2
 213.541015625 287.5 156.209960938 323.064453125 125 375.830078125 c 1
EndSplineSet
EndChar

StartChar: U12181
Encoding: 312 74113 56
Width: 2212
VWidth: 100
Flags: W
HStem: -45.832 25<220.617 1016.67 1137.28 1933.33> 287.5 25<220.617 857.322> 620.832 25<1136.17 1933.33> 787.5 25<862.5 1016.67 1042.21 1105 1135.81 1195.83 1779.17 2021.66 2052.43 2112.5>
VStem: 100 25<-200 42.4961 73.2617 375.83 406.597 466.668> 1016.67 25<-200 -45.832 -20.832 42.4941 73.2617 128.154 163.508 436.49 471.844 691.198 742.057 787.5> 1933.33 25<-200 -45.832 -20.832 620.832 645.832 691.909>
LayerCount: 2
Fore
SplineSet
862.5 812.5 m 1
 1195.83203125 812.5 l 1
 1195.83203125 787.5 l 1
 1141.27734375 787.5 1093.47558594 759.295898438 1066.08203125 716.666015625 c 1
 1093.47558594 674.036132812 1141.27734375 645.83203125 1195.83203125 645.83203125 c 2
 1933.76953125 645.83203125 l 1
 1937.96289062 706.193359375 1972.27636719 758.2890625 2021.66210938 787.5 c 1
 1779.16796875 787.5 l 1
 1779.16796875 812.5 l 1
 2112.5 812.5 l 1
 2112.5 787.5 l 1
 2027.20898438 787.5 1958.33203125 718.623046875 1958.33203125 633.33203125 c 2
 1958.33203125 -200 l 1
 1933.33203125 -200 l 1
 1933.33203125 -45.83203125 l 1
 1195.83203125 -45.83203125 l 2
 1130.20605469 -45.83203125 1072.87695312 -10.26953125 1041.66796875 42.494140625 c 1
 1041.66796875 -200 l 1
 1016.66796875 -200 l 1
 1016.66796875 -45.83203125 l 1
 279.16796875 -45.83203125 l 2
 213.541015625 -45.83203125 156.209960938 -10.2685546875 125 42.49609375 c 1
 125 -200 l 1
 100 -200 l 1
 100 133.33203125 l 1
 100 466.66796875 l 1
 125 466.66796875 l 1
 125 381.376953125 193.876953125 312.5 279.16796875 312.5 c 2
 857.322265625 312.5 l 1
 1016.66796875 471.84375 l 1
 1016.66796875 633.33203125 l 1
 1016.66796875 787.5 l 1
 862.5 787.5 l 1
 862.5 812.5 l 1
1042.21484375 787.5 m 1
 1043.51074219 771.282226562 1047.28320312 755.782226562 1053.19140625 741.380859375 c 1
 1067.29003906 759.884765625 1084.87988281 775.6015625 1104.99609375 787.5 c 1
 1042.21484375 787.5 l 1
1053.22851562 692.046875 m 1
 1045.79199219 673.955078125 1041.66796875 654.138671875 1041.66796875 633.33203125 c 2
 1041.66796875 466.66796875 l 1
 1041.66796875 133.33203125 l 2
 1041.66796875 48.041015625 1110.54101562 -20.83203125 1195.83203125 -20.83203125 c 2
 1933.33203125 -20.83203125 l 1
 1933.33203125 620.83203125 l 1
 1195.83203125 620.83203125 l 2
 1137.59765625 620.83203125 1085.94335938 648.87109375 1053.22851562 692.046875 c 1
1311.99414062 558.837890625 m 1
 1329.671875 541.162109375 l 1
 1213.5078125 425 l 1
 1329.671875 308.837890625 l 1
 1320.83203125 300 l 1
 1329.671875 291.162109375 l 1
 1213.5078125 175 l 1
 1329.671875 58.837890625 l 1
 1311.99414062 41.162109375 l 1
 1178.15429688 175 l 1
 1303.15625 300 l 1
 1178.15429688 425 l 1
 1311.99414062 558.837890625 l 1
1770.328125 558.837890625 m 1
 1788.00585938 541.162109375 l 1
 1671.84570312 425 l 1
 1788.00585938 308.837890625 l 1
 1779.16796875 300 l 1
 1788.00585938 291.162109375 l 1
 1671.84570312 175 l 1
 1788.00585938 58.837890625 l 1
 1770.328125 41.162109375 l 1
 1636.49023438 175 l 1
 1761.49023438 300 l 1
 1636.49023438 425 l 1
 1770.328125 558.837890625 l 1
1016.66796875 436.490234375 m 1
 880.177734375 300 l 1
 1016.66796875 163.5078125 l 1
 1016.66796875 436.490234375 l 1
125 375.830078125 m 1
 125 133.33203125 l 2
 125 48.041015625 193.876953125 -20.83203125 279.16796875 -20.83203125 c 2
 1016.66796875 -20.83203125 l 1
 1016.66796875 128.154296875 l 1
 857.322265625 287.5 l 1
 279.16796875 287.5 l 2
 213.541015625 287.5 156.209960938 323.064453125 125 375.830078125 c 1
EndSplineSet
EndChar

StartChar: U12172
Encoding: 313 74098 57
Width: 2212
VWidth: 100
Flags: W
HStem: -45.832 25<220.617 933.332 1053.95 1933.33> 287.5 25<220.617 773.99> 520.832 25<1392.52 1420.65 1456.01 1544.25 1571.05 1770.91 1797.71 1845.83> 620.832 25<1052.84 1933.33> 787.5 25<779.168 933.332 958.877 1021.66 1052.47 1112.5 1779.17 2021.66 2052.43 2112.5>
VStem: 100 25<-200 42.4961 73.2617 375.83 406.597 466.668> 933.332 25<-200 -45.832 -20.832 42.4961 73.2617 128.152 163.508 436.492 471.846 691.198 742.057 787.5> 1493.35 25<66.668 467.385> 1720 25<66.668 467.385> 1933.33 25<-200 -45.832 -20.832 620.832 645.832 691.909>
LayerCount: 2
Fore
SplineSet
779.16796875 812.5 m 1
 1112.5 812.5 l 1
 1112.5 787.5 l 1
 1057.9453125 787.5 1010.14257812 759.294921875 982.748046875 716.666015625 c 1
 1010.14257812 674.037109375 1057.9453125 645.83203125 1112.5 645.83203125 c 2
 1933.76953125 645.83203125 l 1
 1937.96289062 706.193359375 1972.27636719 758.2890625 2021.66210938 787.5 c 1
 1779.16796875 787.5 l 1
 1779.16796875 812.5 l 1
 2112.5 812.5 l 1
 2112.5 787.5 l 1
 2027.20898438 787.5 1958.33203125 718.623046875 1958.33203125 633.33203125 c 2
 1958.33203125 -200 l 1
 1933.33203125 -200 l 1
 1933.33203125 -45.83203125 l 1
 1112.5 -45.83203125 l 2
 1046.87304688 -45.83203125 989.541992188 -10.2685546875 958.33203125 42.49609375 c 1
 958.33203125 -200 l 1
 933.33203125 -200 l 1
 933.33203125 -45.83203125 l 1
 279.16796875 -45.83203125 l 2
 213.541015625 -45.83203125 156.209960938 -10.2685546875 125 42.49609375 c 1
 125 -200 l 1
 100 -200 l 1
 100 133.33203125 l 1
 100 466.66796875 l 1
 125 466.66796875 l 1
 125 381.376953125 193.876953125 312.5 279.16796875 312.5 c 2
 773.990234375 312.5 l 1
 933.33203125 471.845703125 l 1
 933.33203125 633.33203125 l 1
 933.33203125 787.5 l 1
 779.16796875 787.5 l 1
 779.16796875 812.5 l 1
958.876953125 787.5 m 1
 960.172851562 771.282226562 963.947265625 755.782226562 969.85546875 741.380859375 c 1
 983.954101562 759.884765625 1001.54589844 775.6015625 1021.66210938 787.5 c 1
 958.876953125 787.5 l 1
969.892578125 692.046875 m 1
 962.456054688 673.955078125 958.33203125 654.138671875 958.33203125 633.33203125 c 2
 958.33203125 466.66796875 l 1
 958.33203125 133.33203125 l 2
 958.33203125 48.041015625 1027.20800781 -20.83203125 1112.5 -20.83203125 c 2
 1933.33203125 -20.83203125 l 1
 1933.33203125 620.83203125 l 1
 1112.5 620.83203125 l 2
 1054.265625 620.83203125 1002.60839844 648.87109375 969.892578125 692.046875 c 1
1392.515625 545.83203125 m 1
 1619.17578125 545.83203125 l 1
 1845.83203125 545.83203125 l 1
 1845.83203125 520.83203125 l 1
 1789.99804688 520.83203125 1745.00390625 475.837890625 1745.00390625 420.00390625 c 2
 1745.00390625 66.66796875 l 1
 1720.00390625 66.66796875 l 1
 1720.00390625 420.00390625 l 2
 1720.00390625 461.270507812 1740.09570312 497.868164062 1770.90820312 520.83203125 c 1
 1619.17578125 520.83203125 l 2
 1563.34082031 520.83203125 1518.34765625 475.837890625 1518.34765625 420.00390625 c 2
 1518.34765625 66.66796875 l 1
 1493.34765625 66.66796875 l 1
 1493.34765625 420.00390625 l 2
 1493.34765625 461.270507812 1513.43945312 497.868164062 1544.25195312 520.83203125 c 1
 1456.00585938 520.83203125 l 1
 1351.84179688 416.66796875 l 1
 1459.66796875 308.83984375 l 1
 1441.99023438 291.162109375 l 1
 1316.48632812 416.66796875 l 1
 1420.65234375 520.83203125 l 1
 1392.515625 520.83203125 l 1
 1392.515625 545.83203125 l 1
1153.66210938 542.171875 m 1
 1171.33984375 524.4921875 l 1
 1063.50976562 416.66796875 l 1
 1171.33984375 308.83984375 l 1
 1162.5 300 l 1
 1171.33984375 291.162109375 l 1
 1063.50976562 183.33203125 l 1
 1171.33984375 75.5078125 l 1
 1153.66210938 57.828125 l 1
 1028.15429688 183.33203125 l 1
 1144.82421875 300 l 1
 1028.15429688 416.66796875 l 1
 1153.66210938 542.171875 l 1
1270.33007812 542.171875 m 1
 1288.00585938 524.4921875 l 1
 1180.17773438 416.66796875 l 1
 1288.00585938 308.83984375 l 1
 1279.16796875 300 l 1
 1288.00585938 291.162109375 l 1
 1180.17773438 183.333984375 l 1
 1288.00585938 75.5078125 l 1
 1270.33007812 57.828125 l 1
 1144.82226562 183.33203125 l 1
 1261.4921875 300 l 1
 1144.82226562 416.66796875 l 1
 1270.33007812 542.171875 l 1
933.33203125 436.4921875 m 1
 796.845703125 300 l 1
 933.33203125 163.5078125 l 1
 933.33203125 436.4921875 l 1
125 375.830078125 m 1
 125 133.33203125 l 2
 125 48.041015625 193.876953125 -20.83203125 279.16796875 -20.83203125 c 2
 933.33203125 -20.83203125 l 1
 933.33203125 128.15234375 l 1
 773.990234375 287.5 l 1
 279.16796875 287.5 l 2
 213.541015625 287.5 156.209960938 323.064453125 125 375.830078125 c 1
EndSplineSet
EndChar

StartChar: U12174
Encoding: 314 74100 58
Width: 2212
VWidth: 100
Flags: W
HStem: -45.832 25<220.617 1016.67 1137.28 1933.33> 287.5 25<220.617 857.322 1404.1 1845.83> 520.832 25<1129.17 1371.66 1402.81 1462.5> 620.832 25<1136.17 1933.33> 787.5 25<862.5 1016.67 1042.21 1105 1135.81 1195.83 1779.17 2021.66 2052.43 2112.5>
VStem: 100 25<-200 42.4961 73.2617 375.83 406.597 466.668> 1016.67 25<-200 -45.832 -20.832 42.4941 73.2617 128.154 163.508 436.49 471.844 691.198 742.057 787.5> 1283.33 25<66.668 375.42 458.041 466.668> 1933.33 25<-200 -45.832 -20.832 620.832 645.832 691.909>
LayerCount: 2
Fore
SplineSet
862.5 812.5 m 1
 1195.83203125 812.5 l 1
 1195.83203125 787.5 l 1
 1141.27734375 787.5 1093.47558594 759.295898438 1066.08203125 716.666015625 c 1
 1093.47558594 674.036132812 1141.27734375 645.83203125 1195.83203125 645.83203125 c 2
 1933.76953125 645.83203125 l 1
 1937.96289062 706.193359375 1972.27636719 758.2890625 2021.66210938 787.5 c 1
 1779.16796875 787.5 l 1
 1779.16796875 812.5 l 1
 2112.5 812.5 l 1
 2112.5 787.5 l 1
 2027.20898438 787.5 1958.33203125 718.623046875 1958.33203125 633.33203125 c 2
 1958.33203125 -200 l 1
 1933.33203125 -200 l 1
 1933.33203125 -45.83203125 l 1
 1195.83203125 -45.83203125 l 2
 1130.20605469 -45.83203125 1072.87695312 -10.26953125 1041.66796875 42.494140625 c 1
 1041.66796875 -200 l 1
 1016.66796875 -200 l 1
 1016.66796875 -45.83203125 l 1
 279.16796875 -45.83203125 l 2
 213.541015625 -45.83203125 156.209960938 -10.2685546875 125 42.49609375 c 1
 125 -200 l 1
 100 -200 l 1
 100 133.33203125 l 1
 100 466.66796875 l 1
 125 466.66796875 l 1
 125 381.376953125 193.876953125 312.5 279.16796875 312.5 c 2
 857.322265625 312.5 l 1
 1016.66796875 471.84375 l 1
 1016.66796875 633.33203125 l 1
 1016.66796875 787.5 l 1
 862.5 787.5 l 1
 862.5 812.5 l 1
1042.21484375 787.5 m 1
 1043.51074219 771.282226562 1047.28320312 755.782226562 1053.19140625 741.380859375 c 1
 1067.29003906 759.884765625 1084.87988281 775.6015625 1104.99609375 787.5 c 1
 1042.21484375 787.5 l 1
1053.22851562 692.046875 m 1
 1045.79199219 673.955078125 1041.66796875 654.138671875 1041.66796875 633.33203125 c 2
 1041.66796875 466.66796875 l 1
 1041.66796875 133.33203125 l 2
 1041.66796875 48.041015625 1110.54101562 -20.83203125 1195.83203125 -20.83203125 c 2
 1933.33203125 -20.83203125 l 1
 1933.33203125 620.83203125 l 1
 1195.83203125 620.83203125 l 2
 1137.59765625 620.83203125 1085.94335938 648.87109375 1053.22851562 692.046875 c 1
1129.16796875 545.83203125 m 1
 1462.5 545.83203125 l 1
 1462.5 520.83203125 l 1
 1394.72558594 520.83203125 1337.35742188 477.32421875 1316.63476562 416.66796875 c 1
 1337.35742188 356.009765625 1394.72558594 312.5 1462.5 312.5 c 2
 1845.83203125 312.5 l 1
 1845.83203125 287.5 l 1
 1462.5 287.5 l 2
 1397.046875 287.5 1339.85742188 322.884765625 1308.59179688 375.419921875 c 1
 1308.43066406 372.522460938 1308.33203125 369.606445312 1308.33203125 366.66796875 c 2
 1308.33203125 66.66796875 l 1
 1283.33203125 66.66796875 l 1
 1283.33203125 133.33203125 l 1
 1283.33203125 466.66796875 l 1
 1308.33203125 466.66796875 l 1
 1308.33203125 463.771484375 1308.42480469 460.897460938 1308.58203125 458.041015625 c 1
 1324.0234375 483.854492188 1345.75 505.505859375 1371.66210938 520.83203125 c 1
 1129.16796875 520.83203125 l 1
 1129.16796875 545.83203125 l 1
1016.66796875 436.490234375 m 1
 880.177734375 300 l 1
 1016.66796875 163.5078125 l 1
 1016.66796875 436.490234375 l 1
125 375.830078125 m 1
 125 133.33203125 l 2
 125 48.041015625 193.876953125 -20.83203125 279.16796875 -20.83203125 c 2
 1016.66796875 -20.83203125 l 1
 1016.66796875 128.154296875 l 1
 857.322265625 287.5 l 1
 279.16796875 287.5 l 2
 213.541015625 287.5 156.209960938 323.064453125 125 375.830078125 c 1
EndSplineSet
EndChar

StartChar: U12158
Encoding: 315 74072 59
Width: 2212
VWidth: 100
Flags: W
HStem: -45.832 25<220.617 1016.67 1137.28 1933.33> 287.5 25<220.617 857.322> 354.168 25<1500 1655.74 1679.71 1742.5 1773.26 1833.33> 520.832 25<1141.67 1384.16 1414.93 1475 1500 1742.49 1772.72 1833.33> 620.832 25<1136.17 1933.33> 787.5 25<862.5 1016.67 1042.21 1105 1135.81 1195.83 1779.17 2021.66 2052.43 2112.5>
VStem: 100 25<-200 42.4961 73.2617 375.83 406.597 466.668> 1016.67 25<-200 -45.832 -20.832 42.4941 73.2617 128.154 163.508 436.49 471.844 691.198 742.057 787.5> 1295.83 25<66.668 425.218> 1654.17 25<66.668 258.551 379.168 425.058> 1933.33 25<-200 -45.832 -20.832 620.832 645.832 691.909>
LayerCount: 2
Fore
SplineSet
862.5 812.5 m 1
 1195.83203125 812.5 l 1
 1195.83203125 787.5 l 1
 1141.27734375 787.5 1093.47558594 759.295898438 1066.08203125 716.666015625 c 1
 1093.47558594 674.036132812 1141.27734375 645.83203125 1195.83203125 645.83203125 c 2
 1933.76953125 645.83203125 l 1
 1937.96289062 706.193359375 1972.27636719 758.2890625 2021.66210938 787.5 c 1
 1779.16796875 787.5 l 1
 1779.16796875 812.5 l 1
 2112.5 812.5 l 1
 2112.5 787.5 l 1
 2027.20898438 787.5 1958.33203125 718.623046875 1958.33203125 633.33203125 c 2
 1958.33203125 -200 l 1
 1933.33203125 -200 l 1
 1933.33203125 -45.83203125 l 1
 1195.83203125 -45.83203125 l 2
 1130.20605469 -45.83203125 1072.87695312 -10.26953125 1041.66796875 42.494140625 c 1
 1041.66796875 -200 l 1
 1016.66796875 -200 l 1
 1016.66796875 -45.83203125 l 1
 279.16796875 -45.83203125 l 2
 213.541015625 -45.83203125 156.209960938 -10.2685546875 125 42.49609375 c 1
 125 -200 l 1
 100 -200 l 1
 100 133.33203125 l 1
 100 466.66796875 l 1
 125 466.66796875 l 1
 125 381.376953125 193.876953125 312.5 279.16796875 312.5 c 2
 857.322265625 312.5 l 1
 1016.66796875 471.84375 l 1
 1016.66796875 633.33203125 l 1
 1016.66796875 787.5 l 1
 862.5 787.5 l 1
 862.5 812.5 l 1
1042.21484375 787.5 m 1
 1043.51074219 771.282226562 1047.28320312 755.782226562 1053.19140625 741.380859375 c 1
 1067.29003906 759.884765625 1084.87988281 775.6015625 1104.99609375 787.5 c 1
 1042.21484375 787.5 l 1
1053.22851562 692.046875 m 1
 1045.79199219 673.955078125 1041.66796875 654.138671875 1041.66796875 633.33203125 c 2
 1041.66796875 466.66796875 l 1
 1041.66796875 133.33203125 l 2
 1041.66796875 48.041015625 1110.54101562 -20.83203125 1195.83203125 -20.83203125 c 2
 1933.33203125 -20.83203125 l 1
 1933.33203125 620.83203125 l 1
 1195.83203125 620.83203125 l 2
 1137.59765625 620.83203125 1085.94335938 648.87109375 1053.22851562 692.046875 c 1
1141.66796875 545.83203125 m 1
 1475 545.83203125 l 1
 1475 520.83203125 l 1
 1389.70898438 520.83203125 1320.83203125 451.958984375 1320.83203125 366.66796875 c 2
 1320.83203125 66.66796875 l 1
 1295.83203125 66.66796875 l 1
 1295.83203125 366.66796875 l 2
 1295.83203125 432.294921875 1331.39746094 489.623046875 1384.16210938 520.83203125 c 1
 1141.66796875 520.83203125 l 1
 1141.66796875 545.83203125 l 1
1500 545.83203125 m 1
 1833.33203125 545.83203125 l 1
 1833.33203125 520.83203125 l 1
 1752.25390625 520.83203125 1686.06152344 458.58203125 1679.71484375 379.16796875 c 1
 1833.33203125 379.16796875 l 1
 1833.33203125 354.16796875 l 1
 1748.04101562 354.16796875 1679.16796875 285.291015625 1679.16796875 200 c 2
 1679.16796875 66.66796875 l 1
 1654.16796875 66.66796875 l 1
 1654.16796875 200 l 2
 1654.16796875 265.626953125 1689.73144531 322.958007812 1742.49609375 354.16796875 c 1
 1500 354.16796875 l 1
 1500 379.16796875 l 1
 1654.60546875 379.16796875 l 1
 1658.79785156 439.528320312 1693.109375 491.62109375 1742.49414062 520.83203125 c 1
 1500 520.83203125 l 1
 1500 545.83203125 l 1
1016.66796875 436.490234375 m 1
 880.177734375 300 l 1
 1016.66796875 163.5078125 l 1
 1016.66796875 436.490234375 l 1
125 375.830078125 m 1
 125 133.33203125 l 2
 125 48.041015625 193.876953125 -20.83203125 279.16796875 -20.83203125 c 2
 1016.66796875 -20.83203125 l 1
 1016.66796875 128.154296875 l 1
 857.322265625 287.5 l 1
 279.16796875 287.5 l 2
 213.541015625 287.5 156.209960938 323.064453125 125 375.830078125 c 1
EndSplineSet
EndChar

